<?xml version="1.0" encoding="UTF-8"?>
<svg xmlns="http://www.w3.org/2000/svg" version="1.1" viewBox="0 0 3840 2160">
  <defs>
    <style>
      .cls-1 {
        fill: #2a6847;
      }

      .cls-2 {
        fill: #123815;
      }

      .cls-3 {
        fill: #217c2e;
      }

      .cls-4 {
        fill: #33895c;
      }

      .cls-5 {
        fill: #331f12;
      }

      .cls-6 {
        fill: #4f2f21;
      }

      .cls-7 {
        fill: #3f6827;
      }

      .cls-8 {
        fill: #1e6029;
      }

      .cls-9 {
        fill: #22602c;
      }

      .cls-10 {
        fill: #227049;
      }

      .cls-11 {
        fill: #205138;
      }

      .cls-12 {
        fill: #315637;
      }

      .cls-13 {
        fill: #007216;
      }

      .cls-14 {
        fill: #164220;
      }

      .cls-15 {
        fill: #23422a;
      }

      .cls-16 {
        fill: #3f2c22;
      }

      .cls-17 {
        fill: #30843e;
      }

      .cls-18 {
        fill: #266030;
      }

      .cls-19 {
        fill: #17441c;
      }

      .cls-20 {
        fill: #2f6b40;
      }

      .cls-21 {
        fill: #174429;
      }

      .cls-22 {
        fill: #24542a;
      }

      .cls-23 {
        fill: #44372e;
      }

      .cls-24 {
        fill: #227226;
      }

      .cls-25 {
        fill: #114418;
      }

      .cls-26 {
        fill: #2b7f53;
      }

      .cls-27 {
        fill: #25774c;
      }

      .cls-28 {
        fill: #206026;
      }

      .cls-29 {
        fill: #2a6b35;
      }

      .cls-30 {
        fill: #2b6d4c;
      }

      .cls-31 {
        fill: #2d6d42;
      }

      .cls-32 {
        fill: #226634;
      }
    </style>
  </defs>
  <!-- Generator: Adobe Illustrator 28.7.1, SVG Export Plug-In . SVG Version: 1.2.0 Build 142)  -->
  <g>
    <g id="Background">
      <path class="cls-11" d="M0,0v2160h3840V0H0Z"/>
    </g>
    <g id="Trees_1">
      <path class="cls-6" d="M3556.53,621.22c21.99,8.06,37.39,21.73,47.1,32.24l-135.18,40.01L189,772l-57.05-39.8,27.3-78.73c13.42-10.53,32.29-27.26,50.33-51.33,46.62-62.22,53.23-127.46,58.42-186.13,7.75-87.61,13.95-157.82-29-214-25.74-33.67-58.54-48.45-55-76,3.8-29.52,45.8-46.32,55-50,38.45-15.38,67.26-7.06,134,4,123.5,20.47,165.58,15.32,172,38,6.31,22.29-27.71,50.71-33,55-31.25,25.32-56.87,16.32-80,33-34.84,25.13-31.66,85.22-29,126,6.25,95.75,13.15,213.31,96,260,110.42,62.23,278.79-44.39,340-155,5.59-10.1,59.8-108.06,25-155-9.12-12.3-26.72-24.3-42-55-8.44-16.96-15.18-30.5-13-46,5.4-38.47,61.39-57.92,76-63,32.93-11.44,104.58-25.57,130,8,19.94,26.33-8.47,55.73-17,126-11.38,93.7,23.58,169.63,50,227,26.39,57.32,50.01,106.82,105,138,20.59,11.67,56.72,32.16,93,21,62.4-19.19,77.64-117.33,88-184,8.43-54.25,15.17-102.27-13-147-7.07-11.22-28.02-44.5-67-59-31.93-11.88-52.11-2.28-63-17-13.48-18.21.16-56.22,21-79,38.58-42.18,104.97-35.67,122-34,75.05,7.36,84.05,47.79,176,80,83.03,29.09,150.81,22.44,151,33,.29,15.53-146.93,2.41-181,72-5.09,10.41-9.2,25.8,21,125,34.38,112.95,52.3,169.9,88,193,29.56,19.13,66.04,19.75,139,21,76.81,1.31,115.21,1.97,142-21,37.96-32.56,36.42-88.39,34-176-1.61-58.35-2.61-94.29-29-121-21.39-21.64-46.57-24.2-55-51-8.21-26.12,7.11-51.03,9-54,15.11-23.79,40.39-30.43,54-34,30.16-7.92,40.76,1.57,76,0,43.31-1.93,47.13-17.16,83-21,57.94-6.2,124.14,25.38,126,55,.91,14.52-14.18,19.95-54,58-41.6,39.75-62.4,59.62-72,84-15.95,40.49-.35,80.11,26,147,25.56,64.9,38.34,97.35,71,118,32.08,20.29,76.16,15.13,163,4,115.81-14.85,119.35-33.66,210-38,41.29-1.98,55.35,1.21,75-11,62.23-38.68,51.56-151.69,51-157-7.09-66.74-44.45-116.07-55-130-29.77-39.32-46-54-46-54-21.12-19.11-34.06-24.66-33-34,1.59-13.96,32.74-21.27,67-29,43.27-9.77,64.91-14.65,92-13,25.19,1.53,61.8,17.71,134,50,50.47,22.57,67.9,31.7,67,42-1.22,14.02-34.87,12.46-62,42-19.02,20.71-23.93,44.82-26,55-7.86,38.58,7.05,60.33,26,126,23.59,81.74,10.48,82.67,25,100,17.97,21.46,46.24,29.81,230,21,120.16-5.76,137.3-10.72,156-25,51.61-39.39,60.76-108.13,67-155,4.61-34.63,10.08-75.67-13-109-7.18-10.38-18.53-22.02-38-42-31.45-32.27-42.83-38.81-42-50,1.41-18.91,36.21-30.45,59-38,35-11.6,108.29-35.89,160,0,18.64,12.94,11.55,17.78,46,50,36.53,34.16,60.68,43.84,58,55-3.6,14.98-48.3,2.54-75,29-20.23,20.05-18.66,51.08-17,84,2.88,57.01,22.17,55.93,50,155,6.38,22.73,10.16,39.83,26,51,17.91,12.62,34.8,6.06,62.53,16.22Z"/>
      <path class="cls-18" d="M0,540v1620h3840V540c-13.2-5.3-107.73,38.19-132,35-45.85-6.03-56.02-30.71-97-19-123.6,35.32-60.91-21.04-97-16-66.25,9.25-75.94-14.36-189-25-79.22-7.45-141.43-2.16-163,0-109.15,10.93-107.16,34.65-210,42-74.52,5.32-151.26-1.73-176-4-29.45-2.71-61.81-6.73-80-9-101.78-12.67-120.56-19.65-159-12-31.73,6.31-25.87,12.45-76,25-42.23,10.57-73.64,18.05-109,8-28.85-8.2-27.07-18.62-50-21-34.63-3.59-47.3,19.29-88,26-21.98,3.63-23.16-2.25-76-9-36.98-4.73-81.53-10.42-130-4-58.59,7.76-76.3,35.98-92,25-29.1-20.34-97.57,11.13-200,16-18.37.87-65.16-3.41-158-12-122.97-11.38-184.45-17.08-199-19-82.64-10.93-100.33-17.46-138-9-52.74,11.85-28.2-32-82-21-24.73,5.06-43.87,4.61-139-8-107.43-14.24-100.42-15.97-134-19-24.77-2.23-105.33-8.21-201,9-91.06,16.38-97.28,36.04-170,49-48.37,8.62-120.7,13.29-215-11-56.48-25.91-87.21-28.22-105-25-5.03.91-18.31,3.95-37,4-16.93.05-21.15-2.33-36.4-2.45-11.63-.09-26.23,1.3-44.6,6.45-18.45,5.17-46.71-2.73-57,0Z"/>
      <path class="cls-8" d="M335,168c-24.5,4.05-35.49-18.16-63-29-54.93-21.64-90.86,35.53-146,21-38.61-10.17-58.81-48.16-80-88C23.85,30.36-12.77-38.5,21-92c31.39-49.73,116.42-7.62,142-50,19.18-31.79-7.47-85.77-54-180-29.4-59.55-44.67-75.71-42-109,3.78-47.2,39.69-79.83,63-101,15.72-14.28,78.83-71.62,163-67,35.63,1.95,76.24,27.66,156,79,82.17,52.88,123.25,79.33,163,122,38.48,41.31,32.7,48.42,88,109,44.67,48.94,59.19,56.07,63,80,6.7,42.04-28.3,81.43-75,134-56.25,63.32-92.12,78.09-93,118-.24,11.08,6.84,28.05,21,62,28.15,67.48,42.29,76.71,38,97-6.81,32.23-53.96,63.24-88,54-45.91-12.46-31.85-88.35-92-117-24.74-11.78-66.25-17.58-97,0-20.05,11.47-23.36,25.92-42,29Z"/>
      <path class="cls-13" d="M889,126c-9.22,11.66-24.35,29.1-46,47-30.39,25.14-57.13,44.59-92,46-24.09.98-42.47-12.7-59-25-13.04-9.7-52.66-42.65-59-97-7.78-66.74,47.9-119.42,63-134,33.89-32.72,55.19-31.16,76-67,17.17-29.58,19.67-59.92,21-76,.66-8.04,2.97-41.66-9-84-11.92-42.16-24.04-43.59-25-71-.94-26.84,9.37-62.66,34-75,16.51-8.27,24.19,1.66,50-5,25.21-6.5,26.98-18.32,54-33,10.46-5.69,52.95-27.15,97-17,22.8,5.25,18.16,12.56,54,25,36.63,12.72,48.52,7.53,63,21,11.52,10.71,10.44,19.97,21,55,12.08,40.07,17.09,39.88,30,79,13.5,40.92,20.34,61.65,21,88,1.42,56.44-27.39,63.02-34,130-3.63,36.75,5.21,33.09,4,97-.94,49.59-1.27,76.11-17,105-9.57,17.57-28.89,53.05-62,59-30.08,5.4-38.56-19.48-93-26-33.6-4.02-48.14,18.52-67,9-17.09-8.63-22.85-32.05-25-51Z"/>
      <path class="cls-29" d="M1279,194c-34.15-.23-49.16,43.05-80,37-18.57-3.64-29.31-22.51-33-29-29.18-51.29,22.66-95.56,25-202,1.08-49.44-9.72-57.2,0-92,9.36-33.53,25.13-46.86,63-96,3.11-4.04,48.28-62.91,84-122,54.26-89.76,46.16-112.97,71-121,58.22-18.83,105.04,107.89,206,109,75.74.83,100.26-69.92,146-55,65.36,21.32,90.04,190.17,55,319-18.46,67.88-40.44,76.63-63,172-14.56,61.55-14.13,94.81-42,113-20.34,13.28-33.81,4.21-126-4-70.82-6.31-106.87-9.27-138,0-45.47,13.55-51.77,33.2-80,29-44.07-6.55-50.92-57.75-88-58Z"/>
      <path class="cls-9" d="M1938,315c-18.95-9.16-35.08-16.97-55-21-32.06-6.49-43.62,2.93-80,4-30.9.91-72.72,2.14-96-21-32.92-32.71-26.44-111.79,12-151,32.38-33.03,71.47-21.49,89-58,5.74-11.97,6.5-30.31,8-67,.99-24.28-.46-30.59,0-59,.57-35.21.86-52.82,4-67,11.39-51.39,44.54-48.87,59-97,14.31-47.65-12.19-70.07,8-96,17.95-23.06,53.52-24.11,84-25,40.58-1.19,71.03,9.73,88,16,29.85,11.03,83.2,30.74,113,80,18.24,30.15,16.11,52.3,30,55,25.28,4.92,45.52-65.85,75-63,20.88,2.02,33.4,39.73,46,79,17.05,53.14,14.1,73.65,26,135,17.38,89.63,32.52,91.54,29,134-.86,10.38-7.36,88.65-59,117-34.02,18.68-50.73-4.57-142,0-46.31,2.32-100.96,5.69-118,38-8.4,15.93-.39,25.12-12,50-3.31,7.09-19.83,42.5-47,46-16.22,2.09-20.99-9.17-62-29Z"/>
      <path class="cls-17" d="M2680,244c-65.02-22.97-66.14-43-105-46-7.11-.55-54.47-3.53-92,25-16.7,12.7-20.1,23-38,29-19.79,6.63-49.04,5.23-63-12-13.39-16.53-7-40.6,0-67,14.88-56.1,38.57-60.79,38-93-.57-32.06-24.15-33.25-38-80-3.99-13.47-13.47-51.94,0-96,2.21-7.22,19.76-61.86,71-92,31.92-18.78,44.29-8.86,68-30,19.21-17.12,39.73-49.17,33-79-5.82-25.78-27.7-30.85-25-46,4.43-24.85,67.08-32.44,80-34,22.09-2.68,69.5-8.42,117,17,36.72,19.65,28.4,33.78,71,63,53.34,36.58,76.84,21.6,105,54,25.53,29.37,9.92,45.95,38,84,26.47,35.87,45.16,27.68,75,63,5.57,6.59,54.2,64.15,38,113-13.76,41.49-62.23,40.36-67,80-2.66,22.11,9.44,47.27,17,63,11.44,23.79,20.65,29.35,21,46,.37,17.74-9.69,31.04-21,46-17.08,22.58-33.38,44.13-55,46-36.89,3.18-44.55-54.79-92-63-36.32-6.29-45.94,25.24-101,26-25.87.36-44.73-6.31-75-17Z"/>
      <path class="cls-12" d="M3267,235c-15-7.14-45.5-21.64-80-16-27.05,4.43-51.69,20.44-71,33-21.68,14.09-29.89,23.52-42,21-19.5-4.06-28.12-34.71-29-38-9.17-34.11,13-46.8,8-88-3.43-28.23-15.14-33.01-12-50,5.37-29.06,49.62-20.86,71-54,20.74-32.16,5.53-75.8,4-80-14.48-39.81-44-38.64-54-76-5.44-20.33-4.69-50.55,12-71,19.19-23.51,41.09-11.62,84-42,15.34-10.86,30.73-22.06,38-42,7.64-20.96-1.83-29.28,4-50,9.84-34.96,48.31-52.16,55-55,24.08-10.23,31.35-2.24,88-4,58.54-1.82,64.93-10.8,96-4,11.48,2.51,41.71,9.13,67,33,32.63,30.81,19.56,54.97,55,101,22.75,29.55,49.13,46.86,54,50,39.66,25.57,56.97,17.25,72,38,18.29,25.26-3.72,42.63,12,88,13.38,38.61,35.24,43.09,34,71-1.14,25.62-19.82,28.42-21,55-.57,12.97,3.57,19.1,29,67,26.04,49.05,30,58.27,29,72-1.31,17.97-10.16,30.57-21,46-4.95,7.05-24.15,33.2-62,54-23.48,12.9-60.12,33.04-101,25-38.62-7.59-35.19-31.31-80-46-27.91-9.15-54.94-7.43-109-4-41.87,2.66-53,7.45-75,0-25.13-8.51-24.34-19.42-55-34Z"/>
    </g>
    <g id="Trees_2">
      <path class="cls-5" d="M57,1174c2.67,18.67,5.33,37.33,8,56,1246,3.67,2492,7.33,3738,11,7.67-33.67,15.33-67.33,23-101-.7-15.71-3.21-43.2-14-75-29.93-88.19-100.14-126.45-81-174,9.66-23.99,25.62-30.69,22-47-5.31-23.95-46.86-41.56-81-34-20.73,4.59-46.68,20.23-48,40-1.09,16.35,15.39,24.53,28,41,35.24,46.02,10.49,126.41-16,171-26.08,43.91-62.52,65.53-84,78-83.92,48.72-170.84,40.75-235,34-87.09-9.16-144.67-15.22-196-62-85.5-77.93-84.44-205.77-67-232,16.18-24.33,21.15-36.54,31-61,10.23-25.4,9.74-32.03,8-37-10.07-28.72-71.27-28.07-78-28-22.42.24-48.46.51-64,20-16.29,20.42-10.14,48.25-9,53,5.26,21.84,18.17,26.81,28,45,13.4,24.8,7.88,50.2,0,89-6.95,34.25-14.24,70.13-42,107-37.19,49.38-87.19,67.42-109,75-29.93,10.41-41.35,8.14-159,11-115.98,2.82-122.44,5.45-146-2-82.11-25.96-121.83-95.26-125-101-24.24-43.83-48.39-124.72-14-176,14.74-21.98,41.31-40.12,39-70-.2-2.58-1.34-16.04-11-28-9.56-11.84-24.14-18.61-76-23-53.58-4.54-80.54-6.55-89,6-4.07,6.04-2.84,12.18,8,56,8.66,35,12.22,48.38,14,56,0,0,0,0,0,0,28.73,43.1,2.72,89.37,3,95,1.89,37.39-30.71,105.19-79,145-64.29,53-143.09,45.42-293,31-37.71-3.63-85.18-10.52-140-31-59.46-22.22-95.73-35.77-115-72-23.13-43.49-12.19-101.7-5-140,6.63-35.32,9.95-52.97,11-56,5.13-14.81,10.24-23.79,6-31-5.48-9.32-22.2-8.25-37-8-71.13,1.21-97.02-16.53-106-3-7.66,11.54,10.37,25.64,22,59,29.03,83.25-23.02,168.13-28,176-20.82,32.9-45.4,51.59-58,61-113.8,84.92-261.1,47.15-280,42-44.1-12.02-100.18-27.3-140-81-45.99-62.03-38.9-132.99-36-162,3.26-32.61,6.82-68.26,33-87,27.2-19.47,60.59-7.37,68-25,5.74-13.66-7.51-34.82-23-45-18.8-12.35-40.49-8.26-81,0-18.96,3.87-39.82,8.12-67,20-43.36,18.96-94.63,53.76-89,70,3.47,10.02,25.18,3.11,44,22,9.17,9.2,12.43,19.28,17,34,1.39,4.46,10.3,34.28,8,67-2.21,31.44-17.01,96.98-72,140-86.49,67.67-199.53,22.57-221,14-29.45-11.75-88.32-35.24-112-92-14.26-34.18-23.28-98.45,3-151,7.77-15.53,18.74-30.29,14-48-6.14-22.92-33.98-33.79-48-39-6.98-2.59-61.26-22.76-84,3-11.01,12.47-8.25,31.18-8,33,2.39,17.12,14.36,28.25,17,31,29.84,31.1,28.56,200.34-79,266-59.19,36.13-115.79-27.67-190,11-28.87,15.05-47.23,37.22-58,53Z"/>
      <path class="cls-1" d="M3817,852c32.32-40.95,22.79-123.34-19-162-21.14-19.56-43.5-21.4-48-42-3.68-16.86,9.22-25.21,23-56,8.47-18.93,29.13-65.06,14-103-5.52-13.83-9.36-10.45-51-53-38.09-38.92-41.48-48.5-58-53-22.03-6-41.7,4.04-70,19-31.1,16.44-40.64,29-101,84-49.42,45.04-57.91,50.19-61,67-6.16,33.57,16.66,73.23,47,90,32.26,17.83,68.28,7.16,70,16,.29,1.48.2,6.51-34,23-39.53,19.07-56.12,20.41-86,36-27,14.09-40.5,21.13-45,34-9.94,28.42,19.96,72.09,56,92,39.88,22.02,68.55,4.61,89,31,10.3,13.29,15.76,34.14,34,39,3.51.94,7,.77,16.46,3.39,9.56,2.65,14.61,5.44,25.54,7.61,28.08,5.58,98.44-23.86,131-39,62-28.83,63.41-29.45,67-34Z"/>
      <path class="cls-24" d="M3166,371c-62.87-52.31-141.33-42.38-168-39-76.68,9.71-148.83,54.25-145,81,1.62,11.33,16.57,17.41,14,28-2.71,11.15-20.91,11.07-37,20-30.75,17.05-47.66,63.55-42,98,7.87,47.94,59.18,70.88,51,86-4.93,9.12-22.97-.36-45,9-41.58,17.67-49.25,81.98-50,89-.34,3.2-7.5,79.24,36,107,26.85,17.14,45.03-1.99,90,14,38.71,13.76,34.84,31.34,67,44,42.08,16.56,61.26-8.6,159-22,70.48-9.66,82.24.45,106-17,38.43-28.22,49.94-85.72,42-129-2.47-13.47-9.97-54.33-42-75-24.31-15.69-52.06-12.84-53-22-.9-8.77,24.72-9.47,39-31,12.35-18.62,2.32-31.85,11-62,8.22-28.55,21.34-30.97,28-50,14.83-42.35-25.82-99.73-61-129Z"/>
      <path class="cls-32" d="M1997,724c-.5,26.96-1.31,70.14,28,109,20.96,27.8,47.5,40.34,62,47,31.47,14.44,58.62,15.79,83,17,28.59,1.42,53.49,2.65,82-8,41.22-15.4,42.15-37.77,69-39,32.15-1.48,37.23,30.3,79,39,31.53,6.57,57.75-5.31,95-23,14.11-6.7,110.16-53.61,103-95-4.14-23.9-39.63-28.34-39-50,.57-19.41,29.21-20.96,42-45,20.59-38.7-11.19-114.43-64-148-39.07-24.84-78.99-19.81-84-42-3.57-15.81,15.76-22.47,19-47,4.17-31.59-22.8-59.21-47-84-25.28-25.9-49.65-50.86-90-59-40.13-8.1-72.48,5.21-106,19-28.52,11.73-57.28,23.56-81,54-8.46,10.86-34.55,44.34-31,86,3.62,42.42,34.87,56.73,26,79-7.42,18.65-30.94,12.66-68,39-26.38,18.75-40.84,40.54-47,50-5.62,8.64-29.98,46.27-31,101Z"/>
      <path class="cls-20" d="M1360,665c-13.84,35.23-27.12,69.06-28,109-.44,20.11-1.15,52.18,19,84,5.32,8.4,25.56,40.37,65,50,7.37,1.8,31.21,7.62,55-3,19.5-8.71,19.12-19.6,40-33,2.39-1.53,28.92-18.12,61-17,36.07,1.26,38.16,23.48,78,31,42.18,7.97,80.34-9.29,84-11,27.46-12.82,32.98-27.43,59-31,23.95-3.28,28.77,7.8,45,3,29.07-8.59,40.24-52.03,50-90,8.6-33.47,14.9-57.96,6-89-2.9-10.12-11.22-39.15-37-59-24.13-18.58-39.04-10.26-78-33-16.36-9.55-28.57-16.68-39-31-12.88-17.69-10.39-28.99-20-73-8.95-41.01-19.03-67.43-22-75-13.69-34.92-20.53-52.38-36-62-13.25-8.24-36.35-6.61-82-3-22.68,1.79-42.36,3.42-69,9-34.83,7.3-52.25,10.95-70,22-24.38,15.17-35.87,34.78-53,64-25.48,43.47-41.4,70.62-37,104,4.85,36.83,29.54,44.16,28,81-.69,16.52-5.84,19.5-19,53Z"/>
      <path class="cls-26" d="M733,724c-7.2,18.75-19.82,51.6-8,84,3.23,8.87,11.35,31.13,31,39,27.12,10.87,44.63-18.34,106-31,22.91-4.73,18.38-.23,64-6,49.79-6.3,53.32-11.43,92-16,58.26-6.89,60.37,3.54,93-6,13.03-3.81,50.49-15.31,78-50,24.41-30.79,28.06-63.55,31-90,5.35-48.11-4.49-86.72-17-134-17.64-66.68-29.05-68.15-28-101,1.76-54.95,34.4-73.28,22-100-8.23-17.73-40.93-25.06-106-39-58.72-12.58-88.5-18.73-109-12-37.28,12.24-61.1,44.22-87,79-26.32,35.34-25.43,48.29-50,67-21.59,16.44-29.67,12.07-67,33-33.04,18.52-49.95,28-64,48-30.22,43.02-18.99,94.57-17,103,3.08,13.08,6.64,28.17,19,42,17.32,19.38,34.38,16.69,40,31,5.77,14.7-9.64,24.21-23,59Z"/>
      <path class="cls-27" d="M180,662c-6.81,6.7-49.73,50.28-48,112,1.18,42.3,23.17,87.23,62,112,49.51,31.58,106.82,17.87,123,14,38.75-9.27,64-20,64-20,46.59-14.72,53.78-15.48,59-16,22.1-2.21,25.4,3.66,70,11,32.26,5.31,62.29,6.27,86,3,33.6-4.63,70.34-9.7,90-37,26.11-36.27,7.09-90.97-3-120-7.25-20.85-9.96-18.71-34-70-19.52-41.64-29.27-62.46-33-78-6.36-26.53-2.06-35.42,5-123,6.24-77.41,4.53-90.97-5-104-18.12-24.76-51.23-29.47-76-33-55.92-7.96-65.21,14.98-120,11-58.35-4.24-66.71-31.63-112-25-4.84.71-52.81,8.49-81,50-30.61,45.06-16.69,98.64-14,109,11.4,43.88,34.58,47.18,37,87,2.22,36.54-15.4,65.01-20,72-15.85,24.1-29.13,24.47-50,45Z"/>
      <path class="cls-4" d="M0,1080v1080h3840v-1080c-6.55-.37-16.28-15.67-28-15-47.79,2.73-74.78,18.4-109,31-24.52,9.02-82.53,30.38-148,22-35.93-4.6-32.97-12.89-79-22-58.82-11.65-106.9-6.68-140-3-78.74,8.75-86.87,26.12-153,25-20.29-.34-17.84-1.95-79-6-59.16-3.92-88.73-5.88-103-5-88.43,5.43-111.7,44.42-154,25-27.22-12.5-29.04-33.9-59-39-10.83-1.84-17.62-.24-64,14-66.42,20.4-70.59,22.68-87,25-30.3,4.28-56.23,2.19-72,0-30.67-4.25-36.23-10.69-59-14-34.55-5.03-53.8,5.12-92,14-53.66,12.48-58.31,2.36-143,11-59,6.02-68.99,12.16-91.65,16.37,0,0-16.4,2.81-31.35,3.63-33.32,1.83-57.36-16.58-87-25-39.03-11.09-38.37,9.18-109,8-58.12-.97-68.29-16.34-111-6-20.77,5.03-27.74,10.82-59,17-38.38,7.58-67.11,6.6-78,6-22.42-1.24-39.26-4.73-45-6-26.95-5.94-25.87-10.07-45-14-44.8-9.2-85.34,6.35-92,9-13.12,5.22-12.98,7.25-20,8-36.38,3.88-70.33-47.68-70-48,.19-.19,15.29,15.26,20,20,12.98,13.06,19.36,21.66,19,22-.86.81-33.35-50.16-69-47-9.8.87-8.9,4.66-31,14-30.05,12.7-55.59,15.73-67,17-7.28.81-27.14,2.67-53,0-52.67-5.44-66.03-23.07-126-31-13.47-1.78-22.96-2.24-39-3-14.64-.7-52.77-2.04-104,3-51.9,5.1-43.92,9.62-75,11-46.8,2.08-49.98-8.64-112-11-38.32-1.46-40.89,2.49-84,0-39.53-2.29-39.1-5.71-67-6-33.75-.36-36.43,4.63-92,9-45.11,3.55-45.96.35-68,5-35.47,7.48-35.94,15.4-69,23-24.91,5.73-44.61,5.49-84,5-41.48-.51-62.22-.77-81-5-66.6-15.01-110.38-61.21-112-59-.73,1,8.88,9.77,19,17,15.92,11.38,35.8,20.92,37,19,1.86-2.97-36.57-40.93-90-56-34.38-9.7-57.32-8.76-64-8-17.23,1.97-30.94,24.95-40,29Z"/>
    </g>
    <g id="Trees_3">
      <path class="cls-16" d="M67,1607c13.32-10.84,31.91-26.66,53-47,35.94-34.66,53.91-51.99,70-78,9.21-14.88,55.46-89.63,28-137-14.13-24.38-36.4-21.86-42-45-6.33-26.16,14.63-60.34,42-72,19.22-8.19,38.33-3.89,69,3,9.76,2.19,23.04,5.26,39,13,18.13,8.79,48.57,23.55,49,42,.48,20.68-37.28,21.56-49,54-5.89,16.31,2.3,19.8,7,72,3.19,35.46-.28,37.28,4,59,2.56,13.01,7.97,36.49,23,61,19.11,31.17,47.32,46.6,70,59,25.02,13.68,45.08,19.1,78,28,53.44,14.44,70.99,15,81,14,14.58-1.46,26.05-5.64,49-14,41.42-15.09,64.37-23.45,86-45,18.56-18.49,27.19-37.77,34-53,12.91-28.86,16.17-53.58,19-75,3.83-29.02-.91-22.17,3-62,1.71-17.48,3.46-27.29-2-39-5.73-12.29-13.11-12.4-17-25-.77-2.49-5.95-20.27,4-36,6.13-9.7,14.99-13.83,22-17,7.75-3.5,21.17-7.96,57-5,20.94,1.73,37.25,5.39,47,8,25.03,6.69,38.28,10.23,51,22,6.63,6.13,22.28,20.61,20,36-3.13,21.13-36.38,19.16-62,48-24.81,27.93-24.95,65.05-25,78-.18,47.13,25.08,79.93,39,98,4.5,5.85,74.85,94.12,185,87,17.87-1.16,54.35-3.51,89-28,45.08-31.86,55.39-79.24,76-174,14.03-64.52,8.55-85.29-3-97-16.91-17.15-40.75-8.69-50-26-10.26-19.19,6.36-53.26,30-70,7.86-5.57,12.99-6.73,59-16,58.68-11.82,64.99-12.87,76-14,36.9-3.78,55.72-5.46,74,5,5.42,3.1,4.75,3.8,27,19,20.91,14.29,25,16.06,25,20,0,8.8-20.41,11.75-59,31-31.18,15.55-39.93,24.64-43,28-12.3,13.47-17.57,27.34-22,39-8.04,21.15-9.56,38.33-11,56-2.84,34.89,1.49,61.52,3,70,3.74,20.96,6.69,37.47,17,56,18.29,32.85,46.74,48.7,45,51-1.55,2.05-23.2-11.66-23-12,.22-.37,25.73,16.71,59,31,29.58,12.71,35.56,10.44,87,25,75.98,21.5,91.03,34.39,125,28,9.24-1.74,21.53-5.21,42-11,26.43-7.47,39.64-11.21,54-17,7.6-3.07,34.1-14.15,64-36,4.59-3.36,19.79-17.28,50-45,32.29-29.62,37.46-34.5,42-45,3.45-7.99,5.2-16.14,3-56-2.88-52.17-4.51-78.58-14-95-13.76-23.81-34.53-37.23-45-44-34.08-22.03-59.85-20.1-61-31-1.3-12.39,30.72-27.34,56-34,24.53-6.46,36.94-3.61,95-3,52.38.55,45.72-1.74,64,0,34.12,3.24,83.01,7.89,101,40,1.79,3.2,10.7,19.91,5,36-4.19,11.84-13.45,15.36-36,31-15.71,10.9-32,22.2-45,36-6.15,6.53-23.77,25.64-31,53-10.49,39.71,6.8,74.54,12,85,32.18,64.8,105.79,84.42,123,89,55.16,14.7,106.59,5.65,107,11,.31,4.06-29.35,8.98-29,11,.39,2.29,37.78-6.39,87-5,10.93.31,5.43.63,64,5,39.4,2.94,45.77,3.08,53,3,19.75-.22,34.92-1.98,61-5,23.68-2.75,35.52-4.12,42-6,29.28-8.51,48.49-25.24,62-37,20.69-18.02,33.17-35.9,39-45,14.36-22.4,23.73-37.02,25-58,1.29-21.38-7.15-27.65-2-50,2.99-12.98,7.6-18.52,5-28-2.58-9.41-9.83-13.84-22-23-28.22-21.24-21.87-21.96-39-33-26.94-17.36-36.1-11.35-54-28-7.05-6.56-20.71-19.27-19-34,.53-4.59,3.12-14.22,31-31,17.1-10.3,37.73-22.72,70-28,30.82-5.04,53.73-.54,87,6,24.61,4.84,49.02,9.64,77,25,6.3,3.46,19.2,12.64,45,31,22.63,16.1,24.76,18.39,25,22,.94,14.22-29.29,22.29-83,59-14.46,9.88-26.53,14.74-32,28-4.47,10.82-2.64,21.21,1,42,3.42,19.5,5.81,18.8,14,50,6.6,25.13,6.92,32.69,15,40,8.7,7.87,17.19,5.23,27,10,36.46,17.72,28.7,51.81,61,75,21.79,15.65,29.39,3.06,78,23,36.4,14.94,31.93,21.91,51,26,39.76,8.52,51.78-23.4,128-42,20.56-5.02,42.67-8.3,81-14,46.54-6.92,44.7-4.71,53-8,43.67-17.3,74.06-70.2,76-115,.2-4.51-.25-.78-3-56-1.59-32.02-1.55-35.32-4-42-7.76-21.14-27.78-41.32-52-48-32.21-8.88-52.95,11.35-64,0-9.99-10.27-5.68-39.84,11-53,19.45-15.34,41.59,2.75,108,3,20.74.08,16.28-1.7,52-3,65.04-2.37,97.73-3.27,106,11,9.94,17.14-8.09,49.76-25,67-15.93,16.23-25.51,13.36-34,28-8.65,14.91-5.77,31.61,0,65,4.82,27.88,7.22,41.81,17,56,9.38,13.62,21.5,22.78,39,36,4.64,3.51,13.16,9.74,25,17,32.17,19.74,60.79,29.89,70,33,52.51,17.75,63.84,6.1,85,18,44.72,25.15,49.58,108.38,44,133-29.18,128.68-665.34,74.25-1175,54-1084.87-43.11-1398.13,76.48-2167-115-135.41-33.72-243.94-66.88-310-88Z"/>
      <path class="cls-30" d="M0,1620v540h3840v-540c-9.08-4.11-22.79-15.32-40-18-39.11-6.1-69.56,5-92,12-54.14,16.9-104.24,23.24-132,25-55.77,3.53-102.81-6.3-154-17-58.46-12.22-53.65-17.55-86-20-28.55-2.16-64.7,3.22-137,14-34.82,5.19-50.15,8.32-65,12-29.82,7.39-32.16,10.65-64,19-35.48,9.31-55.97,14.69-84,14-18.34-.45-32.66-3.32-56-8-26.63-5.34-29.53-8-56-14-38.41-8.71-57.62-13.07-81-11-18.74,1.66-33.83,6.44-64,16-28.72,9.1-29.02,11.69-42,14-21.35,3.81-37.04-.25-75-11-48.64-13.77-72.96-20.66-96-28-51.41-16.39-56.99-19.33-81-25-32.39-7.65-48.78-11.52-72-11-31.08.7-54.52,8.8-84,19-33.17,11.47-36.62,16.86-64,26-36.41,12.16-65.99,14.55-84,16-79.32,6.41-108.77-19.07-246-36-33.03-4.08-60.96-6.26-95-3-13.23,1.27-14.55,2.12-70,11-39.36,6.3-59.03,9.45-79,12-32.87,4.2-55.25,7.06-86,8-36.95,1.13-65.08-1.15-87-3-38.45-3.24-57.67-4.86-81-11-32.13-8.46-36.7-15.13-70-22-13.69-2.82-33.7-6.83-59-6-14.06.46-27.3,2.33-70,14-73.97,20.21-71.32,24.71-92,25-35.24.5-65.18-12.26-81-19-20.87-8.89-22.76-13.22-50-26-18.31-8.59-40.21-18.86-67-25-25.4-5.82-79.83-18.29-118,9-11.01,7.87-14.43,22.45-33,33-10.11,5.75-22.81,9.97-26,11-1.29.42-13.03,4.18-25,6-6.12.93-44.05,7.3-78-11-23.57-12.71-19.61-21.98-39-34-46.36-28.74-129.24-13.07-165,25-4.79,5.1-11.8,13.87-25,20-11.22,5.21-24.38,7.34-56,3-28.25-3.88-51.65-7.08-81-20-28.31-12.46-32.16-20.74-59-28-16.79-4.54-29.28-7.92-45-5-24.3,4.51-25.91,18.43-61,33-9.55,3.96-23.27,9.53-42,11-19.1,1.5-34.87,7.07-45,4Z"/>
      <path class="cls-19" d="M260,1359c-49.82,4.84-59.76,16.7-92,9-10.08-2.41-13.16-4.53-53-26-76.99-41.48-84.26-43.66-90-56-16.69-35.86,14.15-83.05,20-92,32.19-49.24,80.65-58.96,77-76-3.94-18.37-59.66-4.4-86-38-21.13-26.95-15.31-74.22,6-104,23.49-32.82,62.73-40.1,73-42,48.33-8.96,74.98,15.14,97-3,14.98-12.34,5.06-25.47,20-47,16.44-23.7,38.74-22.64,101-45,59.28-21.29,54.78-27.9,84-33,49.99-8.72,91.36,5.7,106,11,6.15,2.22,117.79,44.11,126,120,2.46,22.72-7.44,19.99-20,84-11.89,60.61-4.12,68.67-17,100-8.64,21-24.43,39.34-56,76-44.63,51.82-49.37,45.12-75,81-19.33,27.06-23.81,40.93-45,56-4.74,3.37-20.93,14.35-56,22-51.62,11.26-61.7-2.67-120,3Z"/>
      <path class="cls-31" d="M844,1356c-23.43-5.1-21.69-29.98-47-42-15.64-7.42-25.52-2.3-76,6-50.25,8.26-75.64,12.27-89,6-31.13-14.6-49.51-59.56-42-93,1.84-8.18,12.56-24.12,34-56,22.35-33.24,27.41-37.44,33-53,6.89-19.17,7.38-35.48,8-56,1.18-39.28-6.51-45.38,0-67,1.99-6.6,8.58-28.47,28-42,15.8-11,24.56-5.67,70-16,36.36-8.27,42.59-14.37,45-17,8.2-8.95,5.97-14.62,17-48,3.85-11.65,8.4-25.26,16-41,9.62-19.91,16.41-33.59,31-45,7.37-5.77,21.49-16.81,37-14,11.01,1.99,14.4,9.46,30,25,7.37,7.34,26.91,26.56,51,39,20.98,10.83,21.43,4.14,50,17,27.49,12.37,43.34,25.89,48,30,10.15,8.95,18.34,16.17,25,28,10.85,19.28,5.97,30.1,11,62,6.32,40.14,16.67,39.7,17,67,.35,29.27-11.28,52.02-16,61-21.22,40.39-46.6,40.39-51,68-4.87,30.57,21.32,61.32,22,61,.61-.28-12.16-28.65-14-28-2.07.73,18.56,34.95,8,67-8.33,25.28-32.6,38.7-44,45-6.34,3.5-29.37,15.86-59,14-21.35-1.34-22.86-8.6-42-8-13.43.42-17.31,4.14-50,16-28.83,10.46-43.39,15.66-51,14Z"/>
      <path class="cls-3" d="M1303,1314c-36.61-8.01-55.06-12-62-11-28.04,4.04-29.16,23.95-53,25-22.96,1.01-45.52-16.42-56-36-13.02-24.33-6.05-49.44-2-64,7.88-28.36,19.12-28.15,33-62,14.3-34.89,14.12-63.78,14-70-.36-18.76-4.04-31.64-11-56-16.32-57.14-30.25-63.52-25-86,5.72-24.48,29.36-47.46,33-51,12.08-11.74,19.39-14.23,23-25,5.82-17.37-8.24-25.71-6-45,2.53-21.81,24.04-41.59,45-47,18.24-4.71,20.49,5.47,53,6,30.45.5,36.53-8.31,59-3,5.41,1.28,15.61,6.52,36,17,26.47,13.61,39.81,20.54,45,27,13.48,16.78,6.14,28.04,19,42,12.28,13.33,27.71,12.55,45,17,37.87,9.74,61.67,38.61,76,56,43.15,52.36,13.23,88.44,56,129,18.64,17.67,35.18,21.13,50,47,4.35,7.6,14.76,26.3,14,51-1.29,42.15-34.12,69.46-48,81-15.17,12.62-38.09,31.68-67,30-10.24-.6-11.87-3.25-56-19-25.5-9.1-38.25-13.65-42-14-38.55-3.56-74.79,24.86-89,36-21.26,16.67-26.63,27.99-45,31-7.61,1.25-11.31.06-39-6Z"/>
      <path class="cls-7" d="M1963,1312c-39.51-6.77-47.66-27.93-87-28-30.29-.05-32.26,12.48-70,16-24.29,2.26-63.45,5.91-89-19-29.51-28.78-21.38-76.66-20-84,2.14-11.4,9.09-25.27,23-53,21.93-43.73,25.72-42.14,30-59,1.91-7.51,11.99-47.2-8-78-9.17-14.12-16.51-13.83-22-28-9.78-25.25,3.93-51.05,5-53,11.6-21.09,25.3-17.79,48-39,12.27-11.47,22.35-31.14,42-70,27.79-54.96,22.39-53.21,33-67,7.77-10.1,35.23-44.71,84-54,9.56-1.82,48.03-8.59,84,12,7.46,4.27,28.42,17.51,64,92,37.61,78.75,35.94,109.5,70,129,9.73,5.57,8.74,2.41,48,19,33.91,14.33,50.87,21.49,64,31,20.75,15.03,30.78,32.56,50,67,28.94,51.86,43.4,77.79,45,106,3.79,66.94-41.75,114.66-47,120-6.45,6.55-42.26,41.82-98,48-62.93,6.98-74.13-31.66-143-28-54.45,2.9-60.74,27.76-106,20Z"/>
      <path class="cls-10" d="M2461,1029c-36.42,45.5-53.1,42.48-65,67-17.13,35.3.38,76.72,6,90,8.06,19.07,23.04,35.05,53,67,26.14,27.89,39.22,41.83,53,47,26.56,9.97,37.21-3.32,90-8,57.3-5.08,101.37,5.56,111,8,45.72,11.59,41.77,22.76,76,28,9.65,1.48,22.82,2.56,120-19,52.32-11.6,65.19-15.62,81-23,29.01-13.54,52.67-24.59,62-47,18.25-43.83-31.04-100.66-34-104-52.83-59.51-129.42-56.33-137-100-.71-4.06-2.6-18.81,0-37,3.19-22.33,9.98-27.73,11-42,1.92-26.95-19.35-49.11-25-55-25.6-26.68-46.4-16.49-84-42-19.02-12.91-15.86-16.98-47-48-42.97-42.81-64.46-64.22-87-67-24.69-3.05-57.46,24.97-123,81-22.98,19.65-38.68,35.01-45,59-5.15,19.55-2.97,40.67-2,50,3.04,29.44,11.2,37.22,8,56-1.29,7.59-4.46,17.09-22,39Z"/>
      <path class="cls-28" d="M3092,1149c-11.09,39.04-17.13,60.28-16,90,.82,21.57,1.67,43.91,16,67,17.69,28.49,50.65,49.64,84,50,12.14.13,10.96-2.64,45-11,32.11-7.89,59.86-14.71,92-14,12.06.26,30.37,3.84,67,11,60.46,11.81,63.54,15.87,76,12,24.17-7.5,22.1-25.69,62-65,24.04-23.69,39.41-38.82,64-47,40.25-13.38,64.64,5.38,81-11,16.11-16.12,7.27-49.09,3-65-15.65-58.35-63.52-96.51-93-120-34.67-27.63-43.65-25.24-61-48-16.22-21.28-21.2-40.19-45-55-17.01-10.58-20.68-4.79-33-14-21.3-15.92-17.05-38.29-34-84-13.09-35.31-19.64-52.97-36-62-17.81-9.84-41.88-3.56-90,9-33.66,8.78-50.48,13.17-64,22-46.78,30.55-58.42,84.15-59,87-8.94,44.32,14.02,54.74,3,100-5.9,24.22-12.52,21.42-34,70-4.36,9.86-16.92,39-28,78Z"/>
    </g>
    <g id="Trees_4">
      <path class="cls-23" d="M243,2125c24.99-61.46,49.4-67.31,70-114,9.74-22.07,34.55-78.29,14-129-8.63-21.29-25.21-41.53-28-78-.79-10.28-.5-22.22,6-34,.7-1.28,14.32-25.16,36-25,2.47.02,11.78.4,28,14,24.78,20.79,34.68,46.45,36,50,10.51,28.24,3.26,39.4,6,84,2.28,37.16,7.34,29.92,14,84,6.51,52.91,2.51,66.66,14,98,4.09,11.14,11.8,32.18,25,47,33.12,37.19,95.3,29.14,162,23,226.3-20.83,251.01,3.68,294-37,36.5-34.54,45.52-77.61,59-142,3.25-15.55,33.95-168.72-26-204-20.77-12.22-45.4-6.17-50-20-4.58-13.78,14.87-34.77,34-45,23.48-12.56,46.44-8.9,86-2,51.47,8.97,78.07,13.61,87,33,9.6,20.85-11,37.5-20,75-9.25,38.54,2.78,61.52,26,138,42.72,140.7,29.7,154.09,56,176,21.26,17.71,39.05,16.69,165,17,179.01.44,195.76,2.63,220-17,58.54-47.42,60.08-140.62,51-187-4.65-23.77-10.37-53.02-34-76-17.15-16.68-29.55-16.28-36-31-11.65-26.61,12.51-65.36,36-86,25.01-21.98,71.87-43.31,115-23,36.91,17.38,48.73,54.74,50,59,8.53,28.53-1.19,48.09-11,92-8.42,37.69-17.93,80.2-14,120,5.29,53.58,36.4,117.27,89,149,46.75,28.2,69.4,6.38,213,5,135.76-1.3,167.84,17.7,215-14,49.78-33.46,66.46-89.88,73-112,4.03-13.64,28.95-97.91-11-173-19.9-37.41-47.04-55.88-42-89,3.23-21.22,17.62-35.04,28-45,43.17-41.43,126.26-65.67,168-28,15.67,14.14,24.6,36.18,25,56,.55,26.81-14.74,38.02-28,72-13.81,35.38-13.93,65.98-14,84-.24,62.44,24.87,108.96,36,129,10.6,19.09,35.77,64.42,84,95,43.58,27.63,69.06,19.82,207,28,150.56,8.93,173.56,21.41,215-3,64.98-38.27,83.07-112.9,84-117,8.84-38.93,1.76-72.21-5-104-9.6-45.15-28.21-85.34-37-103-17.97-36.11-31.13-50.82-28-76,2.93-23.58,18.06-39.63,25-47,28.73-30.49,67.34-35.45,95-39,31.35-4.03,58.23.98,112,11,58.83,10.96,65.43,18.92,67,25,3.46,13.41-15.9,24.31-39,53,0,0-25.85,32.11-44,81-28.76,77.48,3,157.17,5,162,34.14,82.44,131.2,164.51,229,143,101.1-22.23,152.13-143.96,151-229-1.21-91.19-62.36-137.35-36-176,25.53-37.43,113.89-39.57,151,0,30.37,32.39,15.86,81.47,7,159-20.89,182.83,22.24,238.98,4,291-60.42,172.32-705.32,45.9-1465,19-713.27-25.26-1069.91-37.89-1449,4,0,0-551.54,60.94-570-23-1.94-8.81,3.38-21.87,14-48Z"/>
      <path class="cls-11" d="M0,2120c0,13.33,0,26.67,0,40h3840v-40c-9.04-4.2-21.59-4.42-37-9-14.67-4.36-48.89-13.18-93-11-38.88,1.92-37.09,10-86,17-46.52,6.66-83.7,4.45-106,3-49.68-3.22-50-9.83-101-14-43.41-3.55-48.02.84-112,0-70.75-.93-73.45-6.4-123-6-49.48.4-61.29,5.98-134,14-47.18,5.2-106.45,11.74-174,11-58.35-.64-101.23-6.76-187-19-130.7-18.65-114.62-25.01-173-28-73.2-3.75-161.82,2.99-221,14-9.24,1.72-36,6.93-73,11-27.69,3.04-49.26,4.14-70,5-64.38,2.67-113.49,4.71-182,3-31.02-.78-8.96-.89-145-8-66.06-3.45-78.48-3.8-103-8-62.51-10.71-62.8-22.31-109-26-26.07-2.08-55.71,1.61-115,9-14.1,1.76-22.03,2.91-76,11-114.48,17.17-126.19,19.1-148,19-11.25-.05-16.97-.61-106-16-137.13-23.71-152.03-27.31-185-25-8.05.56-41.7,7.71-109,22-70.87,15.05-94.8,21.5-142,28-15.85,2.18-44.58,5.78-81,8-65.05,3.96-97.58,5.94-137-3-46.9-10.64-41.92-22.06-87-30-28.08-4.95-56.05-3.3-112,0-24.41,1.44-51.36,3.08-87,8-57.04,7.87-69.53,14.89-109,20C89.88,2123.51,50.08,2126.1,0,2120Z"/>
      <path class="cls-2" d="M347,1798c-49.7,6.7-53.28,10.67-81,11-26.53.32-58.25.36-93-16-18.04-8.49-47.62-22.42-64-56-3.05-6.25-17.95-36.8-8-70,9.91-33.09,33.11-30.77,56-73,3.69-6.82,3.42-7.48,22-64,14.13-42.97,21.19-64.45,23-69,24.33-61.17,42.19-55.31,58-102,17.43-51.47,2.3-77.99,25-95,12.98-9.73,23-4.85,65-8,49.99-3.75,53.59-11.99,86-14,19.55-1.21,85.73-5.33,126,33,29.48,28.06,11.64,47.03,50,115,17.34,30.73,23.5,31.3,53,81,35.95,60.57,35.77,74.82,34,84-6.39,33.22-40.49,36.19-43,68-2.05,25.98,20.1,31.39,23,63,2.97,32.46-17.43,58.86-33,79-16,20.7-43.31,56.04-84,61-41.44,5.05-48.11-27.34-109-36-22.69-3.23-50.46.52-106,8Z"/>
      <path class="cls-14" d="M1009,1739c-39.12,3.04-42.34-12.06-78-8-43.09,4.91-46.65,27.92-84,28-33.13.07-58.12-17.97-72-28-17.96-12.97-41.32-29.84-40-50,1.42-21.68,29.75-22.15,40-51,9.21-25.92-3.62-53.81-12-72-17.23-37.44-35.71-39.64-36-59-.35-23.39,26.46-30.88,73-73,35.66-32.28,67.75-61.32,84-106,15.21-41.81,2.13-57.65,22-81,14.34-16.85,38.76-22.8,87-34,49.62-11.52,74.42-17.28,106-11,20.25,4.03,63.11,12.55,75,42,11.39,28.22-16.92,47.81-6,88,4.03,14.85,12.41,25.44,29,46,37.89,46.97,50.63,42.18,67,67,25.59,38.8-1.07,57.26,20,158,2.7,12.89,7.22,32.13,11,61,5.13,39.19,7.7,58.79,2,72-15.18,35.2-72.51,56.88-117,45-46.01-12.29-48.02-52.37-90-56-30.83-2.66-35.52,18.46-81,22Z"/>
      <path class="cls-21" d="M1633,1826c-30.91,4.29-39.68-28.8-81-33-29.45-2.99-32.58,13.05-70,14-9.26.23-65.46.68-84-31-12.96-22.15,6.48-36.08-3-76-2.68-11.29-4.96-13.23-33-64-31.16-56.44-32.17-60.97-31-67,6.18-31.7,56.91-23.11,87-67,5.32-7.75,11.95-37.94,25-98,11.27-51.86,12.88-63.41,25-73,24.2-19.14,48.24,2.82,75-14,32.74-20.58,13.34-63.84,45-95,29.12-28.66,88.06-33.92,123-11,39.02,25.6,20.08,67.95,67,112,27.9,26.19,39.01,15.35,76,45,17.21,13.79,68.99,55.29,70,109,.8,42.56-31.18,44.75-39,100-6.75,47.75,15.47,57.91,8,112-3,21.76-7.67,55.53-34,81-34.62,33.49-85.59,32.23-95,32-39.23-.97-49.61-17.45-78-9-29.45,8.76-28.83,29.65-53,33Z"/>
      <path class="cls-22" d="M2318,1803c-44.25,9.42-60.52-32.85-109-30-40.57,2.39-48.73,33.14-84,27-14.44-2.52-12.41-7.56-56-35-40.97-25.79-56.35-29.89-59-45-2.09-11.91,5.88-18.4,17-39,14.9-27.6,19.48-50.93,25-79,12.35-62.83-8.3-77.38,9-100,19.59-25.62,47.63-9.02,72-39,16.01-19.69,19.89-46.51,23-68,3.71-25.62-.99-26.24,3-44,6.73-29.96,24.89-49.47,44-70,25.51-27.4,50.73-43.35,62-50,34.34-20.27,67.84-40.03,112-37,42.01,2.89,96.3,26.59,114,70,16.37,40.13-13.08,61.45,6,104,14.89,33.2,35.82,26.92,61,67,22.99,36.6,26.15,74.64,28,97,5.12,61.76-15.73,71.98-2,107,15.67,39.97,49.26,43.06,50,75,.54,23.39-17.01,41.54-31,56-9.95,10.29-38.01,39.3-75,39-32.25-.26-33.26-22.5-79-33-12.42-2.85-46.06-8.95-83,3-29.47,9.54-26.78,19.48-48,24Z"/>
      <path class="cls-25" d="M3079,1776c-19.56-9.48-18.8-23.47-34-34-20.74-14.37-48.62-6.65-92,6-67.33,19.63-75.45,37.65-107,33-31.29-4.61-52.19-26.58-64-39-10.31-10.84-42.13-44.29-39-86,1.54-20.51,17.71-41.95,50-84,39.05-50.85,47.91-52.35,56-76,12.75-37.27,4.08-72.47,0-89-9.21-37.34-22.1-41.42-37-80-8.74-22.65-35.83-92.79-10-119,24.63-24.99,71.82,15.91,162-5,21.38-4.96,25.72-8.88,42-9,47.01-.35,58.83,31.99,106,34,31.56,1.35,36.55-12.69,62-6,23.73,6.24,45.3,25.25,56,48,20.91,44.45-14.65,71.34,5,114,11.03,23.95,22.91,16.94,59,59,5.45,6.35,9.2,11.19,47,69,38.45,58.8,44.31,68.67,51,85,14.76,36.02,24.52,59.82,14,75-16.65,24.02-61.55-6.11-140,14-31.24,8.01-59.08,15.15-84,39-24.06,23.03-28.57,45.53-56,54-2.79.86-25.37,7.48-47-3Z"/>
      <path class="cls-15" d="M3607,1762c-40.87-6.23-45.63-22.58-78-23-10.18-.13-28.46,5.58-65,17-47.92,14.98-61.46,21.82-72,14-10.45-7.76-12.45-25.85-9-39,8.28-31.54,46.04-27.5,59-56,8.06-17.73-1.6-30.2-31-112-23.66-65.84-23.9-75.84-22-86,6.5-34.77,31.49-36.53,50-79,14.51-33.29,12.79-63.51,11-95-4.47-78.65-35.81-104.68-20-125,16.7-21.47,53.13,5.69,135-6,55.93-7.98,63.41-24.15,97-18,36.28,6.65,76.23,34.43,93,74,27.53,64.95-30.61,106.86,0,173,14.96,32.33,33.09,31.49,51,76,8.2,20.38,20.61,51.24,13,86-10.05,45.88-44.27,49.55-44,84,.21,26.52,20.49,26.48,39,78,6.54,18.2,14.4,40.87,11,70-3.42,29.31-16.35,49.07-19,53-2.97,4.41-34.9,50.91-62,45-38.2-8.33-23.99-111.48-76-131-18.96-7.12-22.98,5.79-61,0Z"/>
    </g>
    <g id="Trees_5">
      <path class="cls-8" d="M335,2328c-24.5,4.05-35.49-18.16-63-29-54.93-21.64-90.86,35.53-146,21-38.61-10.17-58.81-48.16-80-88-22.15-41.64-58.77-110.5-25-164,31.39-49.73,116.42-7.62,142-50,19.18-31.79-7.47-85.77-54-180-29.4-59.55-44.67-75.71-42-109,3.78-47.2,39.69-79.83,63-101,15.72-14.28,78.83-71.62,163-67,35.63,1.95,76.24,27.66,156,79,82.17,52.88,123.25,79.33,163,122,38.48,41.31,32.7,48.42,88,109,44.67,48.94,59.19,56.07,63,80,6.7,42.04-28.3,81.43-75,134-56.25,63.32-92.12,78.09-93,118-.24,11.08,6.84,28.05,21,62,28.15,67.48,42.29,76.71,38,97-6.81,32.23-53.96,63.24-88,54-45.91-12.46-31.85-88.35-92-117-24.74-11.78-66.25-17.58-97,0-20.05,11.47-23.36,25.92-42,29Z"/>
      <path class="cls-13" d="M889,2286c-9.22,11.66-24.35,29.1-46,47-30.39,25.14-57.13,44.59-92,46-24.09.98-42.47-12.7-59-25-13.04-9.7-52.66-42.65-59-97-7.78-66.74,47.9-119.42,63-134,33.89-32.72,55.19-31.16,76-67,17.17-29.58,19.67-59.92,21-76,.66-8.04,2.97-41.66-9-84-11.92-42.16-24.04-43.59-25-71-.94-26.84,9.37-62.66,34-75,16.51-8.27,24.19,1.66,50-5,25.21-6.5,26.98-18.32,54-33,10.46-5.69,52.95-27.15,97-17,22.8,5.25,18.16,12.56,54,25,36.63,12.72,48.52,7.53,63,21,11.52,10.71,10.44,19.97,21,55,12.08,40.07,17.09,39.88,30,79,13.5,40.92,20.34,61.65,21,88,1.42,56.44-27.39,63.02-34,130-3.63,36.75,5.21,33.09,4,97-.94,49.59-1.27,76.11-17,105-9.57,17.57-28.89,53.05-62,59-30.08,5.4-38.56-19.48-93-26-33.6-4.02-48.14,18.52-67,9-17.09-8.63-22.85-32.05-25-51Z"/>
      <path class="cls-29" d="M1279,2354c-34.15-.23-49.16,43.05-80,37-18.57-3.64-29.31-22.51-33-29-29.18-51.29,22.66-95.56,25-202,1.08-49.44-9.72-57.2,0-92,9.36-33.53,25.13-46.86,63-96,3.11-4.04,48.28-62.91,84-122,54.26-89.76,46.16-112.97,71-121,58.22-18.83,105.04,107.89,206,109,75.74.83,100.26-69.92,146-55,65.36,21.32,90.04,190.17,55,319-18.46,67.88-40.44,76.63-63,172-14.56,61.55-14.13,94.81-42,113-20.34,13.28-33.81,4.21-126-4-70.82-6.31-106.87-9.27-138,0-45.47,13.55-51.77,33.2-80,29-44.07-6.55-50.92-57.75-88-58Z"/>
      <path class="cls-9" d="M1938,2475c-18.95-9.16-35.08-16.97-55-21-32.06-6.49-43.62,2.93-80,4-30.9.91-72.72,2.14-96-21-32.92-32.71-26.44-111.79,12-151,32.38-33.03,71.47-21.49,89-58,5.74-11.97,6.5-30.31,8-67,.99-24.28-.46-30.59,0-59,.57-35.21.86-52.82,4-67,11.39-51.39,44.54-48.87,59-97,14.31-47.65-12.19-70.07,8-96,17.95-23.06,53.52-24.11,84-25,40.58-1.19,71.03,9.73,88,16,29.85,11.03,83.2,30.74,113,80,18.24,30.15,16.11,52.3,30,55,25.28,4.92,45.52-65.85,75-63,20.88,2.02,33.4,39.73,46,79,17.05,53.14,14.1,73.65,26,135,17.38,89.63,32.52,91.54,29,134-.86,10.38-7.36,88.65-59,117-34.02,18.68-50.73-4.57-142,0-46.31,2.32-100.96,5.69-118,38-8.4,15.93-.39,25.12-12,50-3.31,7.09-19.83,42.5-47,46-16.22,2.09-20.99-9.17-62-29Z"/>
      <path class="cls-17" d="M2680,2404c-65.02-22.97-66.14-43-105-46-7.11-.55-54.47-3.53-92,25-16.7,12.7-20.1,23-38,29-19.79,6.63-49.04,5.23-63-12-13.39-16.53-7-40.6,0-67,14.88-56.1,38.57-60.79,38-93-.57-32.06-24.15-33.25-38-80-3.99-13.47-13.47-51.94,0-96,2.21-7.22,19.76-61.86,71-92,31.92-18.78,44.29-8.86,68-30,19.21-17.12,39.73-49.17,33-79-5.82-25.78-27.7-30.85-25-46,4.43-24.85,67.08-32.44,80-34,22.09-2.68,69.5-8.42,117,17,36.72,19.65,28.4,33.78,71,63,53.34,36.58,76.84,21.6,105,54,25.53,29.37,9.92,45.95,38,84,26.47,35.87,45.16,27.68,75,63,5.57,6.59,54.2,64.15,38,113-13.76,41.49-62.23,40.36-67,80-2.66,22.11,9.44,47.27,17,63,11.44,23.79,20.65,29.35,21,46,.37,17.74-9.69,31.04-21,46-17.08,22.58-33.38,44.13-55,46-36.89,3.18-44.55-54.79-92-63-36.32-6.29-45.94,25.24-101,26-25.87.36-44.73-6.31-75-17Z"/>
      <path class="cls-12" d="M3267,2395c-15-7.14-45.5-21.64-80-16-27.05,4.43-51.69,20.44-71,33-21.68,14.09-29.89,23.52-42,21-19.5-4.06-28.12-34.71-29-38-9.17-34.11,13-46.8,8-88-3.43-28.23-15.14-33.01-12-50,5.37-29.06,49.62-20.86,71-54,20.74-32.16,5.53-75.8,4-80-14.48-39.81-44-38.64-54-76-5.44-20.33-4.69-50.55,12-71,19.19-23.51,41.09-11.62,84-42,15.34-10.86,30.73-22.06,38-42,7.64-20.96-1.83-29.28,4-50,9.84-34.96,48.31-52.16,55-55,24.08-10.23,31.35-2.24,88-4,58.54-1.82,64.93-10.8,96-4,11.48,2.51,41.71,9.13,67,33,32.63,30.81,19.56,54.97,55,101,22.75,29.55,49.13,46.86,54,50,39.66,25.57,56.97,17.25,72,38,18.29,25.26-3.72,42.63,12,88,13.38,38.61,35.24,43.09,34,71-1.14,25.62-19.82,28.42-21,55-.57,12.97,3.57,19.1,29,67,26.04,49.05,30,58.27,29,72-1.31,17.97-10.16,30.57-21,46-4.95,7.05-24.15,33.2-62,54-23.48,12.9-60.12,33.04-101,25-38.62-7.59-35.19-31.31-80-46-27.91-9.15-54.94-7.43-109-4-41.87,2.66-53,7.45-75,0-25.13-8.51-24.34-19.42-55-34Z"/>
    </g>
  </g>
</svg>