<?xml version="1.0" encoding="UTF-8"?>
<svg id="Mountains" xmlns="http://www.w3.org/2000/svg" viewBox="0 0 3840 2160">
  <defs>
    <style>
      .cls-1 {
        fill: #603813;
      }

      .cls-2 {
        fill: #a67c52;
      }

      .cls-3 {
        fill: #754c24;
      }
    </style>
  </defs>
  <path class="cls-1" d="M0,.5l3840.5-.5-.5,2160H0V.5Z"/>
  <path class="cls-2" d="M0,460S228.5,35.5,342.5-82.5l249-123c95,94.67,190,189.33,285,284,69,44.67,215,145.33,284,190,87.67-33,144.33-115,232-148,62.33-66.67,99.67-81.33,162-148,48-30.33,141-42.67,189-73,65.33-33,152.67-125,218-158,36.33,33,51.67,90,88,123,34,34,50,36,84,70,18.67,31.33,37.33,35.67,56,67,45.67,27,70.33,43,116,70,45.67,16.33,119.33,53.67,165,70,78.33-36.33,171.67-89.67,250-126,77.33-56,83.67-88,161-144,9.33-29.33,18.67-58.67,28-88l204-102c48,9.33,96,18.67,144,28,42.33,37.67,84.67,75.33,127,113,45.33,67.67,90.67,135.33,136,203,58.67,48,117.33,96,176,144,48,19,143.5,290.5,143.5,290.5v1700H0V460Z"/>
  <path class="cls-3" d="M567.5,967.5l137-232,158-130,238,59,369,334,349-358,298-42,184,167,227-139,228,179,183-260,116-95,175-24,291,126,142.62,363.25,176.88,164.25v1080.5H0v-1080.5s214.17-178.33,321.5-267.5c82,51.67,246,155,246,155Z"/>
  <path class="cls-1" d="M0,1719l233.5-170.5,176-123,155-104,196,192,288-163,179-69,179,109,264,274,316-333,165-32,133,105,130-126,225-110,207,219,239-219,257-88,175,258,140,182,182.5,198.5v441H0v-441Z"/>
  <path class="cls-2" d="M0,2620s228.5-424.5,342.5-542.5l249-123c95,94.67,190,189.33,285,284,69,44.67,215,145.33,284,190,87.67-33,144.33-115,232-148,62.33-66.67,99.67-81.33,162-148,48-30.33,141-42.67,189-73,65.33-33,152.67-125,218-158,36.33,33,51.67,90,88,123,34,34,50,36,84,70,18.67,31.33,37.33,35.67,56,67,45.67,27,70.33,43,116,70,45.67,16.33,119.33,53.67,165,70,78.33-36.33,171.67-89.67,250-126,77.33-56,83.67-88,161-144,9.33-29.33,18.67-58.67,28-88l204-102c48,9.33,96,18.67,144,28,42.33,37.67,84.67,75.33,127,113,45.33,67.67,90.67,135.33,136,203,58.67,48,117.33,96,176,144,48,19,143.5,290.5,143.5,290.5v1700H0v-1700Z"/>
</svg>