<?xml version="1.0" encoding="UTF-8"?>
<svg id="Ebene_2" xmlns="http://www.w3.org/2000/svg" viewBox="0 0 3840 2160">
  <defs>
    <style>
      .cls-1 {
        fill: #005437;
      }

      .cls-2 {
        fill: #006337;
      }

      .cls-3 {
        fill: #007a37;
      }
    </style>
  </defs>
  <polygon class="cls-1" points="0 627.5 141.21 1080 267.5 650.5 385.95 1080 549.5 557.5 707 1080 804.37 756.5 888.58 1080 938.5 865.5 985.95 1080 1135.5 557.5 1285.95 1080 1391.21 763.5 1488.5 1091.5 1664.89 584.5 1838.58 1091.5 1967.5 721.5 2083.32 1091.5 2254.5 591.5 2430.68 1091.5 2522.79 738.5 2620.16 1091.5 2828.5 542.5 3020.16 1091.5 3141.5 672.5 3259.63 1091.5 3367.53 636.5 3483.32 1091.5 3588.5 717.5 3691.21 1091.5 3840 627.5 3840 2160 0 2160 0 627.5"/>
  <path class="cls-2" d="M0,1565.11s162.5-417.61,162.5-425.61,155.03,425.61,155.03,425.61l123.97-316.61,104.97,316.61,81.58-211.61,73.68,211.61,208.26-432.61,207.5,433,124-346,89.18,346,202.82-433,162.97,433,100-265s100.71,260,97.37,265,120.66-391,120.66-391l139.87,391.06,171.13-447.06,176,436,150-435,129.18,446.06,97.37-363.06,84.21,363.06,152.24-447.06,147.76,447.06,94.74-313.06,89.47,313.06,139.03-426.06,108.34,426.06,76.66-209.06,69.5,209.06v594.44H0v-594.89Z"/>
  <polygon class="cls-3" points="0 1757.5 154.37 2160 278.5 1701.5 391.21 2160 596.5 1599.5 775.42 2160 875.42 1809.5 962.26 2160 1125.5 1672.5 1267.53 2160 1454.5 1560.5 1649.11 2160 1762.26 1742.5 1867.53 2160 2038.5 1665.5 2191.21 2160 2370.5 1560.5 2538.58 2160 2685.5 1736.5 2809.63 2160 2956.5 1639.5 3088.58 2160 3304.5 1560.5 3491.21 2160 3588.58 1775.5 3683.32 2160 3840 1757.5 3840 2160 0 2160 0 1757.5"/>
</svg>