<?xml version="1.0" encoding="UTF-8"?>
<svg xmlns="http://www.w3.org/2000/svg" version="1.1" viewBox="0 0 3840 2160">
  <defs>
    <style>
      .cls-1, .cls-2 {
        fill: #006337;
      }

      .cls-3 {
        fill: #007a37;
      }

      .cls-3, .cls-2 {
        stroke: #000;
        stroke-miterlimit: 10;
      }
    </style>
  </defs>
  <!-- Generator: Adobe Illustrator 28.7.1, SVG Export Plug-In . SVG Version: 1.2.0 Build 142)  -->
  <g>
    <g id="Background">
      <rect class="cls-1" width="3840" height="2160"/>
    </g>
    <g id="Ebene_2">
      <polygon class="cls-3" points="0 715.11 141.21 1080 267.5 786.5 385.95 1080 549.5 675.5 707 1080 804.37 877.75 888.58 1080 938.5 975.5 985.95 1080 1135.5 730.5 1285.95 1080 1391.21 877.75 1488.5 1091.5 1664.89 675.5 1838.58 1091.5 1967.5 841.5 2083.32 1091.5 2254.5 725.5 2430.68 1091.5 2522.79 883.5 2620.16 1091.5 2828.5 623.5 3020.16 1091.5 3141.5 823.5 3259.63 1091.5 3367.53 857.5 3483.32 1091.5 3588.5 830.5 3691.21 1091.5 3840 715.11 3840 2160 0 2160 0 715.11"/>
      <polygon class="cls-3" points="3840 557.21 3840 0 0 0 0 557.21 146.5 254.5 257 557.21 356.5 333.5 443.84 557.21 651.5 173.5 801.74 557.21 930.68 278.61 1043.5 557.5 1233.5 159.5 1391.21 557.5 1504.5 317.5 1599.11 557.5 1749.5 223.5 1885.95 557.5 2080.5 115.5 2280.68 557.5 2425.42 278.75 2541.21 557.5 2725.5 186.5 2893.84 557.5 3009.5 304.5 3133.32 557.5 3256.5 259.5 3385.95 557.5 3528.5 183.5 3688.58 557.5 3767.5 396.5 3840 557.21"/>
      <path class="cls-2" d="M0,1565.11s162.5-283.61,162.5-291.61,155.03,291.61,155.03,291.61l123.97-207.61,104.97,207.61,81.58-145.88,73.68,145.88,208.26-376.11,207.5,376.5,124-227,89.18,227,202.82-348,162.97,348,100-182s100.71,177,97.37,182,120.66-303,120.66-303l139.87,303.06,171.13-345.06,176,334,150-416,129.18,427.06,97.37-173.81,84.21,173.81,152.24-319.06,147.76,319.06,94.74-213.53,89.47,213.53,139.03-303.06,108.34,303.06,76.66-127.06,69.5,127.06v594.44H0v-594.89Z"/>
      <polygon class="cls-3" points="0 1833.53 154.37 2160 278.5 1923.5 391.21 2160 596.5 1773.5 775.42 2160 875.42 1966.75 962.26 2160 1125.5 1844.5 1267.53 2160 1454.5 1709.5 1649.11 2160 1762.26 1934.75 1867.53 2160 2038.5 1820.5 2191.21 2160 2370.5 1741.5 2538.58 2160 2685.5 1867.5 2809.63 2160 2956.5 1788.5 3088.58 2160 3304.5 1686.5 3491.21 2160 3588.58 1923.25 3683.32 2160 3840 1833.53 3840 2160 0 2160 0 1833.53"/>
    </g>
  </g>
</svg>