<?xml version="1.0" encoding="UTF-8"?>
<svg xmlns="http://www.w3.org/2000/svg" version="1.1" viewBox="0 0 3840 2160">
  <defs>
    <style>
      .cls-1 {
        fill: #6f6f89;
      }
    </style>
  </defs>
  <!-- Generator: Adobe Illustrator 28.7.1, SVG Export Plug-In . SVG Version: 1.2.0 Build 142)  -->
  <g>
    <g id="Clouds">
      <path class="cls-1" d="M139.5,497.29c-9.22-8.11,5.62-37.09,33-53.45,33.44-19.98,62.31-7.22,80-25.56,16.26-16.87-3.4-32.56,15-53.45,11.88-13.49,33.72-22.44,54-24.01,28.05-2.18,41.7,10.64,54,3.87,11.28-6.2,2.92-18.7,13-37.96.79-1.52,12.12-22.37,38-33.31,31.3-13.23,73.65-7.62,100,7.75,26.7,15.57,20.25,31.4,49,43.38,19.36,8.06,40.14,8.32,56,8.52,36.64.46,43.73-8.63,62-2.32,14.19,4.9,23.89,15.21,38,30.21,12.23,13,10.54,15.14,18,19.37,14.63,8.28,24.94,2.22,54,7.75,17.11,3.25,32.71,6.21,41,16.27,8.34,10.11.31,16.5,10,27.89,6.72,7.9,11.74,6.17,26,17.82,8.84,7.21,9.11,9.67,18,17.82,5.86,5.37,14.85,12.65,28,20.14-253,3.1-506,6.2-759,9.3-9.89,2.45-22.78,4.59-28,0Z"/>
      <path class="cls-1" d="M1674.5,953.5c17.12-30.39,39.99-41.88,59-46.43,33.41-7.99,64.02,3.27,84-9.29,14.38-9.04,2.44-17.33,16-30.33,22.67-21.74,71.57-13.46,84-31.57,8.38-12.21-11.79-18.96-5-34.66,7.85-18.16,44.44-31.42,77-32.19,29.27-.69,50.19,8.84,77,21.05,59.32,27.01,54.5,46.62,95,53.85,30.82,5.51,45.71-3.68,79,6.19,4.44,1.32,12.78,4.03,41,20.43,55.43,32.2,50.55,37.59,72,43.33,31.21,8.35,45.34-2.04,87,6.19,24.96,4.93,43,13.23,54,19.19-258,4.13-516,8.25-774,12.38-15.33.62-30.67,1.24-46,1.86Z"/>
      <path class="cls-1" d="M2240.5,348.5c10.68-19.83,24.77-27.9,36-31.55,26.55-8.63,45.24,4.81,87-1.43,13.21-1.98,43.36-6.49,51-20.79,9.41-17.62-24.02-33.81-15-45.89,10.74-14.38,60.59,5.21,97-14.34,18.06-9.7,11.14-17.4,41-45.89,18.86-18,28.76-27.45,47-32.98,31.06-9.43,74.98-4.06,89,12.91,10.88,13.17-5.38,22.29,5,41.59,10.96,20.39,40.05,30.57,49,33.7,32.15,11.25,44.05,2.01,69,14.34,4.83,2.39,31.14,15.39,34,35.14,1.87,12.89-7.43,20.62,0,27.25,5.89,5.26,14.73,3.05,30,7.89,12.54,3.97,20.96,10.01,26,14.34-189.67,1.91-379.33,3.82-569,5.74h-77Z"/>
      <path class="cls-1" d="M2872.5,1341.72c23.29-43.71,49.69-55.35,70-57.58,19-2.09,30.27,4.3,64,1.19,16.72-1.55,41.44-3.83,56-14.84,15.8-11.95,3.01-21.61,18-30.87,17.66-10.9,41.08-.99,62-11.87,13.75-7.15,6.64-13,25-33.84,10.63-12.06,17.07-19.38,31-24.34,17.22-6.13,44.27-8.11,64-1.19,32.54,11.41,14.9,36.37,49,51.65,21.73,9.74,32.45,1.19,67,13.65,8.6,3.1,30.59,11.03,48,26.12,12.84,11.13,12.34,16.76,26,22.56,13.14,5.58,22.23,4.04,41,7.72,22.68,4.44,37.01,12.33,49,18.4,17.72,8.98,29.93,18.27,38,25.53-219.67,3.17-439.33,6.33-659,9.5-16.33-.59-32.67-1.19-49-1.78Z"/>
      <path class="cls-1" d="M542.5,1504.5c3.75-35.72,20.12-48.76,36-53.51,19.87-5.95,36.14,1.92,59-6.77,10.39-3.95,19.07-12.53,36-29.53,21.25-21.34,19.14-23.62,28-27.07,22.96-8.93,41.35,4.79,75-1.85,32.11-6.33,49.41-25.54,53-29.53,17.49-19.42,4.89-28.94,21-39.37,20.96-13.57,64.06-11.54,92-3.69,3.55,1,45.27,13.15,52,36.29,4.28,14.71-9.89,19.04-3,28.91,5.22,7.48,16.35,9.29,87,25.22,28.59,6.45,36.86,8.43,46,14.15,15.98,10.01,10.01,16.07,26,26.45,10.25,6.65,13.22,4.5,54,19.07,13.9,4.97,22.39,8.02,33,12.92,14.99,6.92,25.94,13.68,33,18.45-223.67,2.67-447.33,5.33-671,8-19,.62-38,1.23-57,1.85Z"/>
      <path class="cls-1" d="M1281.5,2114.85c35.37-43.29,66.74-54.41,89-56.47,24.03-2.22,39.66,5.91,57-4.41,19.73-11.74,11.01-29.11,33-52.06,3.19-3.33,26.06-26.53,59-29.12,28.79-2.26,34.48,13.65,64,11.47,20.91-1.55,46.5-11.63,57-30,9.8-17.13-3.07-24.81,5-45,7.49-18.74,25.33-28.38,61-47.65,26.47-14.3,39.93-21.37,51-17.65,18.63,6.26,11.05,30.46,34,45,20.63,13.07,36.92-.05,56,13.23,19.43,13.54,8.05,30.99,28,47.65,18.54,15.47,33.39,4.59,57,20.29,21.44,14.26,13.94,26.38,38,45.88,18.84,15.27,40.06,21.31,52,24.7,32.39,9.22,42.91,2.53,61,11.47,12.12,5.99,27.14,18.76,36,49.41-245.33,5.29-490.67,10.59-736,15.88-34-.88-68-1.76-102-2.65Z"/>
    </g>
  </g>
</svg>