<?xml version="1.0" encoding="UTF-8"?>
<svg xmlns="http://www.w3.org/2000/svg" version="1.1" viewBox="0 0 3840 2160">
  <defs>
    <style>
      .cls-1 {
        fill: #666582;
      }
    </style>
  </defs>
  <!-- Generator: Adobe Illustrator 28.7.1, SVG Export Plug-In . SVG Version: 1.2.0 Build 142)  -->
  <g>
    <g id="Clouds">
      <path class="cls-1" d="M3019.5,1781.44c-25.76-36.27-92.99-43.58-204-91.41-107.75-46.42-41.68-49.56-92-62.54-108.79-28.07-100.4,26.94-253,9.62-117-13.27-171.3,105.74-172.57,126.91-20.11,17.3-34.05,38.03-36.43,59.92-3.48,32.06,20.92,56.81,26,61.74,54.52,52.91,171.83,43.49,244,16.84,47.66-17.6,70-38.49,70-38.49,16.08,10.8,40.68,36.43,93,43.3,16.24,2.13,56.96,5.82,104-7.22,6.34-1.76,13.24-3.67,20.3-5.91.24.1.46.19.7.3,18.82,8.08,61.69,13.82,105,12.03,52.23-2.16,113.34-16.08,130-29.67,29.73-24.26-11.04-61.68-35-95.42Z"/>
      <path class="cls-1" d="M3083.8,387.43c-26.46,3.36-35.88-43.44-86.05-59.45-34.46-11-69.6-1.56-107.93,8.74-34.71,9.33-62.19,16.71-76.57,37.3-4.8,6.88-9.04,24.01-17.5,58.29-4.63,18.74-5.66,25.73-13.13,34.97-11.4,14.12-20.81,12.43-35,26.23-4.15,4.03-22.5,22.8-21.15,47.8,1.16,21.57,16.38,36.51,23.34,43.13,26.86,25.61,64.46,31.51,97.72,36.72,22.18,3.48,67.65,10.18,119.59-2.91,25.3-6.38,62-15.63,94.07-40.22,11.91-9.13,21.87-19.38,40.11-21.57,3.95-.47,15.63-1.45,48.13,9.33,21.31,7.06,23.17,9.76,42.3,16.9,46.6,17.4,83.9,19.42,94.07,19.82,4.58.18,10.11.12,21.15,0,30.79-.33,62.92-.68,91.88-5.83,34.03-6.05,25.95-12.02,59.8-18.65,46.45-9.1,65.41,1.42,102.09-12.24,11.31-4.21,34.95-13.02,34.27-23.32-1.21-18.23-78.09-32.19-121.05-36.72-28.12-2.97-46.47-2.41-78.76-10.49-21.72-5.44-39.15-7.5-51.78-19.82-16.05-15.67-25.52-6.99-42.3-7.58-33.72-1.26-45.52-23.24,6.56-39.05,8.75-3.04,5.78-3.63,32.09-8.74,12.22-2.37,14.9-.01,48.13-3.5,9.53-1,16.43-2.01,22.61-2.91,33.31-4.88,57.18-11,61.98-12.24,26.23-6.8,46.54-12.07,45.94-16.9-.79-6.39-37.71-8.58-50.32-9.33-46.41-2.75-51.76,5.17-72.92-1.17-23.43-7.02-21.56-18.14-53.96-30.89-16.43-6.46-30.24-8.85-40.11-10.49-30.83-5.15-54.33-2.76-90.42,1.17-47.31,5.15-70.96,7.72-88.24,18.65-25.6,16.2-22.84,32.97-38.65,34.97Z"/>
      <path class="cls-1" d="M1991.5,854.5c-50.03-2.88-52.42-18.09-98-18-22.88.04-43.25,5.36-84,16-51.82,13.53-77.81,20.56-82,34-7.29,23.37,27.16,60.76,64,74,23.73,8.53,48.48,4.8,97-3,59.5-9.57,52.3-15.5,76-16,67.37-1.41,84.23,47.44,156,45,21.04-.71,38.43-5.55,58-11,38.51-10.72,57.88-16.11,68-34,10.18-17.99,7.13-41.8-2-58-16.77-29.75-54.79-35.14-82-39-8.23-1.17-19.14-2.19-74,2-77.33,5.91-73.87,9.33-97,8Z"/>
      <path class="cls-1" d="M3014.97,1084.5c48.65-2.24,49.82-34.73,114.42-50.53,7.89-1.93,47.21-11.07,91.87-3.53,41.32,6.98,45.15,21.12,88.53,38.78,87.85,35.76,191.72,26.44,211.31,24.68,43.1-3.87,45.36-9.98,72.66-7.64,76.94,6.59,120.54,60.35,125.28,66.4,13.16,16.79,31.02,39.57,19.21,60.52-6.94,12.32-19.36,15.5-83.52,40.54-76.28,29.77-75.86,31.96-94.38,35.26-12.41,2.21-25.86,3.59-114.42-2.94-80.94-5.96-94.54-8.94-138.65-9.4-68.53-.72-92.54,5.88-103.57,9.4-29.68,9.48-28.43,16.9-63.48,31.14-30.58,12.43-55.74,16.51-106.07,24.68-50.6,8.21-78.73,12.78-118.6,10.58-24.12-1.33-53.29-5.18-83.52-15.28-18.21-6.08-32.09-10.86-44.27-21.74-3.49-3.12-27.06-24.9-17.54-51.12,4.66-12.82,15.14-20.96,20.05-24.68,6.04-4.58,20.89-14.5,68.49-23.5,46.56-8.81,59.54-4.47,94.38-15.28,19.62-6.09,36.16-11.41,39.25-21.74,3.95-13.21-15.72-29.17-32.57-37.02-16.97-7.9-27.39-5.85-37.58-15.28-1.66-1.54-12.12-11.51-8.35-23.5,3.86-12.28,20.04-18.4,24.22-19.98,26.73-10.1,45.36,2.63,76.84,1.18Z"/>
      <path class="cls-1" d="M896.69,1303.45c35.02-19.26,71.81-23.22,145.4-31.13,41.61-4.48,63-6.63,92.02-2.39,29.76,4.34,46.4,12.22,92.02,31.93,89.21,38.55,134.4,57.93,162.88,63.07,52.56,9.47,105.9,6.7,111.35,6.39,38.21-2.17,53.91-7.7,89.26-4.79,31.58,2.6,73.63,6.06,84.66,27.94,12.63,25.07-21.08,63.14-53.37,81.43-13.73,7.78-26.11,11.36-50.61,16.76-60.64,13.38-90.96,20.07-133.43,21.55-82.68,2.89-151.69-15.57-164.72-19.16-19.88-5.48-56.3-16.84-106.75-20.76-24.23-1.88-41.43-1.25-57.97,6.39-24.31,11.22-20.24,25.11-41.41,39.92-18.97,13.27-54.01,13.82-123.31,14.37-50.71.41-62.22-2.38-68.1-3.99-36.37-10-60.14-31.1-68.1-38.32-11.79-10.7-19.03-20.46-23.93-27.14-14.34-19.56-22.4-30.55-22.09-42.31.52-19.3,23.29-29.05,58.89-54.28,56.65-40.16,42.64-46.4,77.3-65.46Z"/>
      <path class="cls-1" d="M181.5,1885.2c60.45-46.17,90.67-69.25,124-83.73,28.27-12.28,61.42-26.31,108-28.84,21.75-1.18,67.19-3.13,113,19.54,26.02,12.88,20.04,17.8,50,34.42,14.17,7.86,60.85,33.05,121,31.63,27.09-.64,22.26-5.86,66-10.23,51.67-5.17,77.5-7.76,103,5.58,25.38,13.27,50.13,41.36,50,66.05-.02,4.39-.86,13.73,0,28.84.3,5.21.89,15.67,3,26.98,5.63,30.15,16.38,36.03,13,46.52-2.12,6.58-9.27,13.29-48,22.33-31.99,7.47-68.29,15.62-121,12.09-11.67-.78-34.58-2.83-63-9.3-52.06-11.86-57.41-23.71-95-31.63-30.71-6.47-56.47-3.69-108,1.86-27.47,2.96-52.31,7.87-102,17.68-44.17,8.72-60.57,12.86-106,21.4-70.17,13.19-81.92,12.87-95,10.23-10.6-2.14-56.54-11.42-76-49.31-13.55-26.38-6.81-52.12-5-58.61,6.29-22.59,20.53-37.24,68-73.49Z"/>
      <path class="cls-1" d="M547.5,270.89c64.8,4.79,94.66-35.19,202-51.31,26.55-3.99,86.79-13.03,114,2.79,13.7,7.97,9.35,16.61,31,32.35,19.07,13.86,40.8,20.5,45,21.75,26.83,7.99,51.83,8.52,79,8.92,35.63.53,40.38-2.8,66-2.79,11.83,0,72.39.76,116,23.42,28.47,14.8,35.76,31.68,50,64.69,10.93,25.32,17.76,42.18,5,61.9-4.18,6.46-16.47,24.6-50,35.13-6.33,1.99-23.23,7.16-45,7.25-42.31.18-53.69-19.01-116-38.48-44.82-14-82.64-17.72-102-18.96-19.65-1.26-45.43-2.74-74,3.35-17.31,3.69-16.07,5.99-42,12.83-24.76,6.53-33.16,6.35-66,13.38-35.69,7.64-29.56,8.67-48,11.71-20.05,3.31-27.96,2.21-100,1.67-43.71-.32-49.44.02-58-3.35-23.36-9.18-27.7-30.21-21-45.17,7.69-17.16,30.43-27.46,40-31.23,41.23-16.26,75.4-5.03,97-20.08,14.91-10.39,16-27.84,3-35.69-10.53-6.36-25.11-3.29-74-5.58-26-1.22-19.58-1.98-58-4.46-65.08-4.21-85.45-2.15-95-10.6-6.75-5.98-4.5-14.04,0-18.96,8.12-8.88,27.07-11.4,43-13.38,28.86-3.59,52.32-1.54,58-1.12Z"/>
      <path class="cls-1" d="M1761.5,160.25c52.01-21.14,78.01-31.72,95-36.28,46.74-12.55,101.57-27.26,172-20.73,29.2,2.71,50.76,8.11,77,14.68,76.72,19.22,86.17,35.75,137,39.73,46.8,3.66,57.63-8.88,81,2.59,34.7,17.03,54.83,66.27,35,97.6-15.89,25.09-52.23,30.5-91,36.28-76.45,11.38-93.79-13.01-148,2.59-34.27,9.86-27.18,19.56-95,49.23-38.2,16.71-57.83,25.1-84,26.78-29.31,1.88-29.54-6.15-98-18.14-54.03-9.46-69.18-7.15-88-21.59-13.32-10.22-30.98-30.77-25-48.37,6.43-18.95,33.97-15.97,46-38.87,8.26-15.72,6.11-37.74-7-49.23-15.32-13.44-40.36-7.9-42-14.68-1.58-6.55,20.78-15.81,35-21.59Z"/>
      <path class="cls-1" d="M250.5,768.5c34.91-26.48,20.49-58.3,59-95,25.79-24.58,55.16-32.13,78-38,20.33-5.23,85.83-22.06,140,10,29.23,17.3,21.52,28.93,74,74,29.45,25.29,44.17,37.94,67,46,38.07,13.44,47.58-2.31,98,10,23.93,5.84,55.96,14.14,74,42,3.52,5.44,16.59,25.61,10,46-6.72,20.8-29.92,29.55-45,35-32.48,11.73-56.63,8.23-109,4-54.36-4.4-13.83.55-116-7-85.69-6.33-89.74-8-106-4-35.32,8.69-37.05,21.72-94,42-22.45,8-42.71,15.06-71,18-25.73,2.67-57.62,5.98-91-11-24.68-12.55-38.45-30.24-42-35-20.91-28.04-37.87-77.64-18-105,19.65-27.07,54.27-3.38,92-32Z"/>
    </g>
  </g>
</svg>