<?xml version="1.0" encoding="UTF-8"?>
<svg xmlns="http://www.w3.org/2000/svg" version="1.1" viewBox="0 0 3840 2160">
  <defs>
    <style>
      .cls-1 {
        fill: #51505e;
      }

      .cls-2 {
        fill: #1f1e26;
      }

      .cls-3 {
        fill: #6d6b7c;
      }

      .cls-4 {
        fill: #2a2a35;
      }

      .cls-5 {
        fill: #403f4f;
      }
    </style>
  </defs>
  <!-- Generator: Adobe Illustrator 28.7.1, SVG Export Plug-In . SVG Version: 1.2.0 Build 142)  -->
  <g>
    <g id="Background">
      <path class="cls-3" d="M3840,2160H0V0h3840v2160Z"/>
    </g>
    <g id="Mountains">
      <path class="cls-1" d="M0,433c5.3-.8,13.2-1.4,22,1,32.5,8.7,31.8,44.5,56,54,38.9,15.3,101-53.4,118-76,9.2-12.2,14.4-19.8,19.9-31.5,10.8-22.9,9.2-36.4,29.1-57.5,39.5-41.9,111-57.6,167-41,30.1,8.9,60.1,37.6,120,95,53.7,51.4,48.9,55.2,75,74,73.1,52.8,153.3,54,164,54,28.1,0,106.7-4.2,169-57,36.3-30.8,34.5-50.5,82-89,24.2-19.7,56.3-45.7,95-54,79.9-17.2,170.7,44.6,220,110,71.6,94.9,39.9,176.2,108,213,49.2,26.6,109.5,7.7,134,0,61.5-19.3,71.4-51,143-98,40.3-26.5,35.3-15.2,174-77,109.7-48.9,165.1-73.9,193-102,39.8-40.1,46.3-69,90-87,7.6-3.1,68.4-28.2,115,0,59.5,36,37.4,123.4,102,156,15.1,7.6,27.6,8.6,49,10,124.7,8.3,163.6-79.4,241-64,57,11.4,51.5,61.9,169,121,27.6,13.9,41.4,20.8,59,25,127.7,30.4,256.3-84,265-92,51.6-47.1,57.5-78.9,94-82,34.8-3,45.6,24.5,118,69,39.3,24.2,28.3,11.3,159,72,71.2,33.1,90.7,44.4,121,39,4.2-.8,16.9-5,27-8.2,30.8-9.8,46.2-14.7,53-18.8,26.8-16.3,22.8-35.1,48-49,15-10,41-9,41-9,0,0-.7,1151.3-1,1727H0V433Z"/>
      <path class="cls-5" d="M64,1068c90-41.5,80.6-167,135.5-181.5,63.9-16.8,134.2,160.9,184,126,73.2-51.3,71.5-340.6,136-308,62,0,26,133,118,87,48.5-42.3,138-212,190-210,78.3,3.7,25.9,121.2,120,203,20.5,17.8,30.4,27.4,37.9,36.3,22,26,35.6,47.1,39.1,52.7,29.1,46.7,144.9,152.7,221,129,71.6-22.3,71-147.8,115-147,33.5.6,36,73.6,113,131,25.1,18.7,66,49.2,105,39,46.7-12.3,48.6-72.1,113-190,41.8-76.5,81.5-149,125-146,35.1,2.5,70.1,57,106,113,25,39,33.4,62.3,53,64,31.4,2.7,40-54.2,77-59,35.9-4.6,53.4,45.6,141,120,44.1,37.4,66.1,56.2,93,59,55.4,5.8,101.4-43.5,169-118,33.4-36.8,78.9-92,169-218,61.1-85.4,74.1-107.6,98-107,28.8.7,47.6,33.8,135,197,66,123.3,76.7,144.4,108,167,4.5,3.2,96.1,67.4,187,38,126.8-41,149.7-231.3,203-223,46.1,7.2,53.8,153.8,95,154,24.7.1,34.3-52.7,61-51,17,1.1,23.8,23.1,72,92,25.9,37.1,34.8,46.2,46,46,24.5-.5,32.8-44.9,57-46,16.6-.7,30.7,20.2,46,46,42.2,71.4,56.3,114.7,80.5,116.5,0,0,0,0,27,0h0s-.5,694.5-.5,1079.5H-.5c1.7-398.7.5-1079.5.5-1079.5,14.8.6,38.9-.4,64-12Z"/>
      <path class="cls-4" d="M0,1202.5s83.5-10.2,105-21.5c29.9-15.6,79.5-52.4,119.5-60.5,4.8-1,12.1-2.8,22-2.1,22.5,1.5,35.6,14.8,81,14.1,73-1.2,126.6-37.1,143-49,45.5-33.1,68.9-75.2,77-90,30.7-56.1,27.6-95.3,48-99,16.6-3,33.9,20,65,62,42.4,57.3,51.7,90.4,68,89,23.7-2,24.8-73.8,48.5-76.5,24.7-2.9,28.2,74.6,89.5,112.5,42.9,26.5,107.3,29.6,153,6,32.1-16.6,35.2-35.4,53-34,36.2,2.8,36,81.2,96,160,18,23.6,76.8,101,134,92,38.1-6,40.9-45.1,137-145,45.6-47.4,68.6-63.2,93-60,33.1,4.4,38.2,39.7,70,42,41.8,3,79.6-54.6,93-75,32.9-50.1,28.4-81.2,47-85,31.6-6.5,47.4,82.5,121,105,49.7,15.2,104.7-20.6,107-22,37-22.9,43.3-50.2,69.5-51.5,24.7-1.3,41.2,21.9,65.5,47.5,34.2,36.2,97.7,104.1,153,107,81,4.3,115.7-126.8,186-117,37,5.1,43.2,43.6,97,109,28.1,34.2,136.8,166.4,224,153,104.5-16.1,135.9-234.9,194-226,35.8,5.5,34.5,90.3,81,103,40.8,11.1,103-39.7,131-92,14.4-26.9,17.3-50,30-51,15.2-1.2,24.2,30.6,49,69,22.1,34.3,55.1,85.6,99,97,63.6,16.6,96.7-64.4,171-51,55.6,10,90.5,64.9,93,69,31.5,51.1,11,91.4,40,109,30,18.2,79.8-8.3,103-26,10.8-8.3,38.2-16.8,43-53,3-22.7,40.5-59,40.5-59,0,0-.2,638-.5,957H-.5c.2-319,.5-957,.5-957Z"/>
      <path class="cls-2" d="M0,1379c13.3-.3,36.3,1.3,60,14,53.4,28.7,63.7,88.7,65,97,7.7,21.2,20,50.2,40,82,13.3,21.2,25.9,41,49,61,16.5,14.4,53.2,46.2,88.5,36,2.4-.7,6.4-1.7,12.8-5.8,17.5-11.1,25.2-32.3,64.2-76.2,42.4-47.8,45.6-36.6,100-93,55.4-57.5,61.3-79,98-92,10.2-3.6,46.5-16.5,82-2,44.8,18.4,39.3,61.3,87,125,36.1,48.2,77.2,74.4,133,110,47.9,30.5,87.7,47.8,121,62,28.8,12.3,73.3,30.3,133,46,16.3,4.3,84.7,21.7,177,23,121.9,1.7,183.5,5.1,231-36,9.8-8.5,29.5-45,69-118,36.2-66.9,47.2-93.5,79-130,32.4-37.1,48.5-55.7,75-62,27.9-6.7,52.5,3.1,179,85,82,53.1,87,58.9,118,74,42.3,20.6,62.6,24.1,139,49,7,2.3,100.8,33,171,61,157.1,62.8,137,88.8,200,98,118.8,17.3,286.1-61.2,372-172,20.3-26.1,49.2-71.1,92-72,26.7-.5,33.8,16.7,90,46,28.5,14.9,71.5,36.3,126,44,53.6,7.5,54.8-9.7,95,0,25.4,6.1,33.9,15.9,115,72,56.9,39.4,63.8,42.4,74,41,19.6-2.7,26.5-18.7,90-116,29.5-45.2,41.1-61.5,53.7-71.8,1.6-1.3,5.5-3.4,10.3-7.2,16.5-13.3,24.1-28.5,30.5-41,7.9-15.3,17.7-33.9,31.5-59,2.1-7.5,13-43.7,48.5-62,15.6-8.1,30.5-9.8,40-10,0,0-1.2,522.3-2.5,781H-1.5c.5-260.3,1.5-781,1.5-781Z"/>
      <path class="cls-3" d="M0,1879c15-2.5,37.9-3.9,60,7,45.9,22.6,29.1,69.2,83,112,8.4,6.7,52.4,40.2,60.9,58.7.5,1.1,4.1,8.9,9.8,19,2.1,3.7,4.6,7.9,8.3,13.2,15.5,22.7,51.3,75,84,69,36.1-6.6,25.1-83.1,67-102,56.6-25.5,116.2,97.9,213,91,86.4-6.2,110-109.6,190-101,50.9,5.5,54.6,50.4,113,56,21.4,2,48.7-.6,151-59,114.6-65.4,115.1-81.9,172-100,32.5-10.4,96.8-30.9,164-8,47.4,16.1,47.9,37.4,110,67,24,11.4,79.4,37.9,139,36,95.2-3,115.8-93.7,192-92,46.1,1,51.5,32.7,126,80,15.7,10,199.1,123.4,351,63,53-21.1,39.2-38.3,98-65,119-54.1,181.7,13.7,292-21,127.9-40.3,124.8-157.1,214-155,86.7,2.1,174.9,114.5,211,175,27.4,45.9,27,64.3,54,82,61.2,40.1,159.8-1.4,223-28,90.2-37.9,103.9-69,162-67,51.8,1.8,74.9,29.4,107,13,28.7-14.7,17.5-39.9,61-89,15.6-17.6,47.4-53.5,85-55,7.9-.3,38.9,0,39,0h0v281H0v-281Z"/>
    </g>
  </g>
</svg>