<?xml version="1.0" encoding="UTF-8"?>
<svg xmlns="http://www.w3.org/2000/svg" version="1.1" viewBox="0 0 3840 2160">
  <defs>
    <style>
      .cls-1 {
        fill: #252530;
      }

      .cls-2 {
        fill: #6c6b82;
      }

      .cls-3 {
        fill: #363644;
      }
    </style>
  </defs>
  <!-- Generator: Adobe Illustrator 28.7.1, SVG Export Plug-In . SVG Version: 1.2.0 Build 142)  -->
  <g>
    <g id="Mountains">
      <path class="cls-1" d="M0,.5l3840.5-.5-.5,2160H0V.5Z"/>
      <path class="cls-2" d="M0,460S228.5,35.5,342.5-82.5l249-123c95,94.7,190,189.3,285,284,69,44.7,215,145.3,284,190,87.7-33,144.3-115,232-148,62.3-66.7,99.7-81.3,162-148,48-30.3,141-42.7,189-73,65.3-33,152.7-125,218-158,36.3,33,51.7,90,88,123,34,34,50,36,84,70,18.7,31.3,37.3,35.7,56,67,45.7,27,70.3,43,116,70,45.7,16.3,119.3,53.7,165,70,78.3-36.3,171.7-89.7,250-126,77.3-56,83.7-88,161-144,9.3-29.3,18.7-58.7,28-88l204-102c48,9.3,96,18.7,144,28,42.3,37.7,84.7,75.3,127,113,45.3,67.7,90.7,135.3,136,203,58.7,48,117.3,96,176,144,48,19,143.5,290.5,143.5,290.5v1700H0V460Z"/>
      <path class="cls-3" d="M567.5,967.5l137-232,158-130,238,59,369,334,349-358,298-42,184,167,227-139,228,179,183-260,116-95,175-24,291,126,142.6,363.2,176.9,164.2v1080.5H0v-1080.5s214.2-178.3,321.5-267.5c82,51.7,246,155,246,155Z"/>
      <path class="cls-1" d="M0,1719l233.5-170.5,176-123,155-104,196,192,288-163,179-69,179,109,264,274,316-333,165-32,133,105,130-126,225-110,207,219,239-219,257-88,175,258,140,182,182.5,198.5v441H0v-441Z"/>
      <path class="cls-2" d="M0,2620s228.5-424.5,342.5-542.5l249-123c95,94.7,190,189.3,285,284,69,44.7,215,145.3,284,190,87.7-33,144.3-115,232-148,62.3-66.7,99.7-81.3,162-148,48-30.3,141-42.7,189-73,65.3-33,152.7-125,218-158,36.3,33,51.7,90,88,123,34,34,50,36,84,70,18.7,31.3,37.3,35.7,56,67,45.7,27,70.3,43,116,70,45.7,16.3,119.3,53.7,165,70,78.3-36.3,171.7-89.7,250-126,77.3-56,83.7-88,161-144,9.3-29.3,18.7-58.7,28-88l204-102c48,9.3,96,18.7,144,28,42.3,37.7,84.7,75.3,127,113,45.3,67.7,90.7,135.3,136,203,58.7,48,117.3,96,176,144,48,19,143.5,290.5,143.5,290.5v1700H0v-1700Z"/>
    </g>
  </g>
</svg>