<?xml version="1.0" encoding="UTF-8"?>
<svg xmlns="http://www.w3.org/2000/svg" version="1.1" xmlns:xlink="http://www.w3.org/1999/xlink" viewBox="0 0 3840 2160">
  <defs>
    <style>
      .cls-1 {
        fill: #fff;
      }

      .cls-2 {
        fill: url(#radial-gradient);
      }

      .cls-3 {
        fill: url(#radial-gradient-2);
      }

      .cls-4 {
        fill: #363651;
      }
    </style>
    <radialGradient id="radial-gradient" cx="1453.5" cy="297.5" fx="1453.5" fy="297.5" r="7.5" gradientUnits="userSpaceOnUse">
      <stop offset="0" stop-color="#fff"/>
      <stop offset=".2" stop-color="#fff"/>
      <stop offset=".3" stop-color="#fff" stop-opacity=".9"/>
      <stop offset=".6" stop-color="#fff" stop-opacity=".6"/>
      <stop offset=".9" stop-color="#fff" stop-opacity="0"/>
      <stop offset="1" stop-color="#fff" stop-opacity="0"/>
    </radialGradient>
    <radialGradient id="radial-gradient-2" cx="2946" cy="404" fx="2757.7" fy="299.6" r="215.3" gradientUnits="userSpaceOnUse">
      <stop offset=".7" stop-color="#cfe1e2" stop-opacity="0"/>
      <stop offset=".8" stop-color="#cfe1e1" stop-opacity=".3"/>
      <stop offset=".8" stop-color="#cfe1e1" stop-opacity=".6"/>
      <stop offset=".8" stop-color="#cfe1e1" stop-opacity=".8"/>
      <stop offset=".9" stop-color="#cfe1e1" stop-opacity=".9"/>
      <stop offset=".9" stop-color="#cfe2e1"/>
      <stop offset="1" stop-color="#b0c8ca"/>
      <stop offset="1" stop-color="#a7c0c4"/>
    </radialGradient>
  </defs>
  <!-- Generator: Adobe Illustrator 28.7.1, SVG Export Plug-In . SVG Version: 1.2.0 Build 142)  -->
  <g>
    <g id="NightSky">
      <rect class="cls-4" width="3840" height="2160"/>
      <circle class="cls-2" cx="1453.5" cy="297.5" r="7.5"/>
      <g>
        <circle class="cls-1" cx="1526.5" cy="194.5" r="4.5"/>
        <circle class="cls-1" cx="1504.7" cy="183.6" r="2.7"/>
      </g>
      <g>
        <circle class="cls-1" cx="1588.4" cy="510.1" r="2.7"/>
        <circle class="cls-1" cx="1337.6" cy="378.8" r="2.4"/>
        <circle class="cls-1" cx="1259.7" cy="369.1" r="2.6"/>
        <circle class="cls-1" cx="1017.5" cy="338.2" r="1.9"/>
        <circle class="cls-1" cx="679.4" cy="340.9" r="2.7"/>
      </g>
      <g>
        <circle class="cls-1" cx="1777.4" cy="957.4" r="2.1"/>
        <circle class="cls-1" cx="1906.5" cy="923" r="2.4"/>
        <circle class="cls-1" cx="2138.4" cy="762.8" r="3"/>
      </g>
      <circle class="cls-1" cx="1617.1" cy="986.7" r="2.1"/>
      <circle class="cls-1" cx="1310.2" cy="1059.9" r="3"/>
      <g>
        <circle class="cls-1" cx="3116.5" cy="2000.3" r="2.6"/>
        <circle class="cls-1" cx="2967" cy="2004.6" r="2.4"/>
        <circle class="cls-1" cx="2899.4" cy="1944.3" r="2.4"/>
        <circle class="cls-1" cx="2668.9" cy="1955.7" r="2"/>
        <circle class="cls-1" cx="2570" cy="1966.5" r="2.3"/>
        <circle class="cls-1" cx="2217.6" cy="1938.8" r="2.1"/>
        <circle class="cls-1" cx="2138.3" cy="1989.8" r="2.1"/>
        <circle class="cls-1" cx="1805.1" cy="1934.7" r="2.8"/>
        <circle class="cls-1" cx="1644.1" cy="1908.9" r="2.5"/>
        <circle class="cls-1" cx="1508.6" cy="1949.8" r="2.4"/>
        <circle class="cls-1" cx="1484.5" cy="1965.6" r="2.7"/>
        <circle class="cls-1" cx="1322.9" cy="1948.6" r="2.9"/>
        <circle class="cls-1" cx="1281.4" cy="1909.6" r="2.3"/>
        <circle class="cls-1" cx="1221.6" cy="1928.8" r="1.9"/>
        <circle class="cls-1" cx="1173" cy="1882.4" r="2.7"/>
        <circle class="cls-1" cx="963.5" cy="1948" r="2.3"/>
        <circle class="cls-1" cx="795.9" cy="1926.3" r="1.8"/>
        <circle class="cls-1" cx="936.5" cy="1837.2" r="2.7"/>
        <circle class="cls-1" cx="1125.4" cy="1852.7" r="2.6"/>
        <circle class="cls-1" cx="1444.5" cy="1799.8" r="2.7"/>
        <circle class="cls-1" cx="1715" cy="1868.3" r="3"/>
        <circle class="cls-1" cx="1737.5" cy="1781.7" r="2.4"/>
        <circle class="cls-1" cx="2022.3" cy="1801.5" r="1.9"/>
        <circle class="cls-1" cx="2231.4" cy="1831" r="2.5"/>
        <circle class="cls-1" cx="2448.9" cy="1791.2" r="2.8"/>
        <circle class="cls-1" cx="2580.1" cy="1842" r="2.3"/>
        <circle class="cls-1" cx="2627.3" cy="1817.5" r="3.1"/>
        <circle class="cls-1" cx="2827.3" cy="1862.4" r="2"/>
        <circle class="cls-1" cx="3163.2" cy="1821.7" r="2.3"/>
        <circle class="cls-1" cx="3264.8" cy="1836.8" r="2.8"/>
        <circle class="cls-1" cx="3178.7" cy="1776.1" r="2.6"/>
        <circle class="cls-1" cx="2919" cy="1769.7" r="3"/>
        <circle class="cls-1" cx="2688.6" cy="1782.8" r="2.8"/>
        <circle class="cls-1" cx="2393" cy="1742" r="2"/>
        <circle class="cls-1" cx="2226.6" cy="1715.1" r="2.3"/>
        <circle class="cls-1" cx="1876.2" cy="1700.7" r="2.2"/>
        <circle class="cls-1" cx="1544.4" cy="1697.7" r="2"/>
        <circle class="cls-1" cx="1344.7" cy="1677.5" r="2.6"/>
        <circle class="cls-1" cx="1014.2" cy="1676.7" r="3"/>
        <circle class="cls-1" cx="911.8" cy="1671.8" r="2.1"/>
        <circle class="cls-1" cx="680.1" cy="1626.6" r="2.6"/>
        <circle class="cls-1" cx="584.5" cy="1684.2" r="2.6"/>
        <circle class="cls-1" cx="560.2" cy="1646.1" r="2.8"/>
        <circle class="cls-1" cx="480.9" cy="1641.9" r="2.2"/>
        <circle class="cls-1" cx="559.1" cy="1614.3" r="2.8"/>
        <circle class="cls-1" cx="835.1" cy="1608.1" r="2.4"/>
        <circle class="cls-1" cx="950.7" cy="1582.4" r="3"/>
        <circle class="cls-1" cx="1137.3" cy="1600.6" r="3"/>
        <circle class="cls-1" cx="1190.8" cy="1577.4" r="2.8"/>
        <circle class="cls-1" cx="1341.4" cy="1544.6" r="1.8"/>
        <circle class="cls-1" cx="1579.9" cy="1593.5" r="2.1"/>
        <circle class="cls-1" cx="1878.1" cy="1574.2" r="2.1"/>
        <circle class="cls-1" cx="2110.1" cy="1578.5" r="3.1"/>
        <circle class="cls-1" cx="2374.5" cy="1501.3" r="1.9"/>
        <circle class="cls-1" cx="2735.2" cy="1519.3" r="2.1"/>
        <circle class="cls-1" cx="2979" cy="1470.2" r="2.9"/>
        <circle class="cls-1" cx="3225.5" cy="1507.2" r="2.3"/>
        <circle class="cls-1" cx="2988.5" cy="1513.9" r="2.5"/>
        <circle class="cls-1" cx="2911.8" cy="1492.9" r="2.3"/>
        <circle class="cls-1" cx="2829.8" cy="1470.3" r="1.9"/>
        <circle class="cls-1" cx="2768.1" cy="1454.8" r="2.8"/>
        <circle class="cls-1" cx="2498.6" cy="1422" r="2.9"/>
        <circle class="cls-1" cx="2157.4" cy="1443.7" r="3"/>
        <circle class="cls-1" cx="2021" cy="1421.4" r="2.4"/>
        <circle class="cls-1" cx="1694.7" cy="1407.4" r="2.5"/>
        <circle class="cls-1" cx="1429.4" cy="1376.2" r="2"/>
        <circle class="cls-1" cx="1379.5" cy="1405.1" r="1.9"/>
        <circle class="cls-1" cx="1152.2" cy="1368" r="2.9"/>
        <circle class="cls-1" cx="1077.5" cy="1362.7" r="2.6"/>
        <circle class="cls-1" cx="1024.6" cy="1366.2" r="2"/>
        <circle class="cls-1" cx="808.6" cy="1355.8" r="3.1"/>
        <circle class="cls-1" cx="843.2" cy="1205.7" r="3"/>
        <circle class="cls-1" cx="1111.9" cy="1120.7" r="1.9"/>
        <circle class="cls-1" cx="1172.1" cy="1132.1" r="2.8"/>
        <circle class="cls-1" cx="1512.3" cy="1134.1" r="2.6"/>
        <circle class="cls-1" cx="1670.1" cy="1145.6" r="2.9"/>
        <circle class="cls-1" cx="2029.7" cy="1141.3" r="2.5"/>
        <circle class="cls-1" cx="2064.6" cy="1091.3" r="2.5"/>
        <circle class="cls-1" cx="2401.2" cy="1047.6" r="2.6"/>
        <circle class="cls-1" cx="2565.8" cy="1061.2" r="2"/>
        <circle class="cls-1" cx="2813.8" cy="1096.7" r="2.1"/>
        <circle class="cls-1" cx="2857.4" cy="1093.7" r="2.9"/>
        <circle class="cls-1" cx="2973.8" cy="1047.2" r="2.4"/>
        <circle class="cls-1" cx="3131.2" cy="1080.8" r="2.3"/>
        <circle class="cls-1" cx="3015.2" cy="1085.3" r="2.2"/>
        <circle class="cls-1" cx="2939" cy="1055.9" r="2.2"/>
        <circle class="cls-1" cx="2796.2" cy="1008.2" r="2.3"/>
        <circle class="cls-1" cx="2524.1" cy="964" r="2.3"/>
        <circle class="cls-1" cx="2370.1" cy="1013.7" r="2.4"/>
        <circle class="cls-1" cx="2164.5" cy="953" r="2.7"/>
        <circle class="cls-1" cx="2104.4" cy="988.5" r="2.5"/>
        <circle class="cls-1" cx="2090.3" cy="992" r="2.7"/>
        <circle class="cls-1" cx="1992.9" cy="925.8" r="2.3"/>
        <circle class="cls-1" cx="1788.1" cy="973.6" r="3"/>
        <circle class="cls-1" cx="1700.7" cy="1005.3" r="2"/>
        <circle class="cls-1" cx="1569.5" cy="972.2" r="2.2"/>
        <circle class="cls-1" cx="1471.3" cy="937.2" r="1.8"/>
        <circle class="cls-1" cx="1367.1" cy="1004.2" r="2.4"/>
        <circle class="cls-1" cx="1178.1" cy="965.6" r="2.8"/>
        <circle class="cls-1" cx="959.8" cy="936.7" r="2.3"/>
        <circle class="cls-1" cx="797.2" cy="834.4" r="2.7"/>
        <circle class="cls-1" cx="888.4" cy="816.3" r="2.3"/>
        <circle class="cls-1" cx="977.3" cy="764.7" r="1.9"/>
        <circle class="cls-1" cx="1068.1" cy="704.5" r="2.6"/>
        <circle class="cls-1" cx="1172.1" cy="708.4" r="2.7"/>
        <circle class="cls-1" cx="1347.2" cy="788" r="2.1"/>
        <circle class="cls-1" cx="1545.6" cy="724.4" r="2.9"/>
        <circle class="cls-1" cx="1615.1" cy="760.4" r="2.1"/>
        <circle class="cls-1" cx="1815.1" cy="763" r="2.4"/>
        <circle class="cls-1" cx="1928.6" cy="752.9" r="2.4"/>
        <circle class="cls-1" cx="2092.2" cy="761.3" r="2.4"/>
        <circle class="cls-1" cx="2172.2" cy="808.2" r="2.1"/>
        <circle class="cls-1" cx="2410.3" cy="802.6" r="3"/>
        <circle class="cls-1" cx="2635.1" cy="840.9" r="3"/>
        <circle class="cls-1" cx="2862" cy="784.9" r="2.6"/>
        <circle class="cls-1" cx="2997.4" cy="816.8" r="2.1"/>
        <circle class="cls-1" cx="3039.6" cy="827.4" r="2.4"/>
        <circle class="cls-1" cx="3203.5" cy="794.8" r="2.2"/>
        <circle class="cls-1" cx="3223.3" cy="803.7" r="2.2"/>
        <circle class="cls-1" cx="2912.3" cy="735.4" r="2.9"/>
        <circle class="cls-1" cx="2572.4" cy="754.4" r="2.1"/>
        <circle class="cls-1" cx="2373.9" cy="768.8" r="2.9"/>
        <circle class="cls-1" cx="2116.3" cy="711.4" r="2.2"/>
        <circle class="cls-1" cx="1799.1" cy="688.8" r="2.4"/>
        <circle class="cls-1" cx="1785.9" cy="722.6" r="2.2"/>
        <circle class="cls-1" cx="1682.8" cy="670.9" r="2.8"/>
        <circle class="cls-1" cx="1645.8" cy="718.5" r="2.5"/>
        <circle class="cls-1" cx="1390.1" cy="638" r="2.4"/>
        <circle class="cls-1" cx="1201.6" cy="636.9" r="1.9"/>
        <circle class="cls-1" cx="985.6" cy="646.2" r="2.1"/>
        <circle class="cls-1" cx="905.7" cy="617.6" r="2.7"/>
        <circle class="cls-1" cx="855.6" cy="623.3" r="2.4"/>
        <circle class="cls-1" cx="602.8" cy="500.8" r="2.9"/>
        <circle class="cls-1" cx="387.4" cy="405.4" r="3.1"/>
        <circle class="cls-1" cx="504.1" cy="400" r="2.8"/>
        <circle class="cls-1" cx="530.5" cy="312.9" r="2.8"/>
        <circle class="cls-1" cx="668" cy="290.8" r="2.5"/>
        <circle class="cls-1" cx="1028.9" cy="264.6" r="2.8"/>
        <circle class="cls-1" cx="1310.5" cy="243.7" r="2.6"/>
        <circle class="cls-1" cx="1354.1" cy="279.5" r="2"/>
        <circle class="cls-1" cx="1424.8" cy="221.5" r="2.6"/>
        <circle class="cls-1" cx="1764" cy="258.8" r="2.8"/>
        <circle class="cls-1" cx="2019.6" cy="228.8" r="2.2"/>
        <circle class="cls-1" cx="2163" cy="240.7" r="2.3"/>
        <circle class="cls-1" cx="2355.2" cy="242.3" r="3"/>
        <circle class="cls-1" cx="2546.6" cy="215" r="2.4"/>
        <circle class="cls-1" cx="2604.7" cy="192.1" r="2.1"/>
        <circle class="cls-1" cx="2849.4" cy="165.3" r="1.9"/>
        <circle class="cls-1" cx="2894.5" cy="234.1" r="3.1"/>
        <circle class="cls-1" cx="3181.6" cy="158.4" r="3"/>
        <circle class="cls-1" cx="3397.7" cy="192.5" r="2.6"/>
        <circle class="cls-1" cx="3248.6" cy="165.3" r="2.7"/>
        <circle class="cls-1" cx="3222.2" cy="126.4" r="2.3"/>
        <circle class="cls-1" cx="3123.8" cy="149.9" r="2.7"/>
        <circle class="cls-1" cx="2956.4" cy="189.6" r="2.3"/>
        <circle class="cls-1" cx="2648.2" cy="179.7" r="2.1"/>
        <circle class="cls-1" cx="2493.7" cy="146.5" r="2.9"/>
        <circle class="cls-1" cx="2160.5" cy="186.4" r="3"/>
        <circle class="cls-1" cx="1974.1" cy="148.2" r="2.5"/>
        <circle class="cls-1" cx="1633.5" cy="179.1" r="2.9"/>
        <circle class="cls-1" cx="1570.5" cy="230.1" r="1.9"/>
        <circle class="cls-1" cx="1301.2" cy="205.8" r="2.4"/>
        <circle class="cls-1" cx="1251.6" cy="148.8" r="2.3"/>
        <circle class="cls-1" cx="1012.5" cy="157.7" r="1.8"/>
        <circle class="cls-1" cx="816.7" cy="124.3" r="2"/>
        <circle class="cls-1" cx="510.8" cy="160.3" r="2.4"/>
        <circle class="cls-1" cx="245.1" cy="142.1" r="2.8"/>
      </g>
      <g>
        <circle class="cls-1" cx="3526.7" cy="433.2" r="2.9"/>
        <circle class="cls-1" cx="3552.4" cy="579.9" r="2.8"/>
        <circle class="cls-1" cx="3526.7" cy="902.6" r="2.6"/>
        <circle class="cls-1" cx="3540.7" cy="1040.7" r="1.9"/>
        <circle class="cls-1" cx="3552.1" cy="1323" r="2.2"/>
        <circle class="cls-1" cx="3572.7" cy="1428.8" r="1.8"/>
        <circle class="cls-1" cx="3569.3" cy="1615" r="2.9"/>
        <circle class="cls-1" cx="3582.6" cy="1653.4" r="2.8"/>
        <circle class="cls-1" cx="3469.5" cy="1892.1" r="2.7"/>
        <circle class="cls-1" cx="3271.5" cy="1782" r="2.3"/>
        <circle class="cls-1" cx="3031.7" cy="1605.7" r="2.5"/>
        <circle class="cls-1" cx="3035.3" cy="1526" r="2.1"/>
        <circle class="cls-1" cx="2927.5" cy="1283.4" r="2.1"/>
        <circle class="cls-1" cx="2872.3" cy="1050.6" r="2.5"/>
        <circle class="cls-1" cx="2789.5" cy="946.8" r="2.5"/>
        <circle class="cls-1" cx="2752.8" cy="631.8" r="2"/>
        <circle class="cls-1" cx="2777.7" cy="605.7" r="1.8"/>
        <circle class="cls-1" cx="2759.8" cy="559.7" r="2.4"/>
        <circle class="cls-1" cx="2556.4" cy="374.6" r="2.5"/>
        <circle class="cls-1" cx="2532.1" cy="274.7" r="2.8"/>
        <circle class="cls-1" cx="2373" cy="308.1" r="2.1"/>
        <circle class="cls-1" cx="2240.5" cy="217.1" r="2.7"/>
        <circle class="cls-1" cx="2067.3" cy="298" r="2.5"/>
        <circle class="cls-1" cx="2009.2" cy="303.6" r="2"/>
        <circle class="cls-1" cx="1799.1" cy="588.7" r="2.8"/>
        <circle class="cls-1" cx="1718.2" cy="743.5" r="2.4"/>
        <circle class="cls-1" cx="1543.3" cy="926" r="2"/>
        <circle class="cls-1" cx="1411.4" cy="1113" r="2.2"/>
        <circle class="cls-1" cx="1393.1" cy="1201.4" r="2.8"/>
        <circle class="cls-1" cx="1280" cy="1332.5" r="2.4"/>
        <circle class="cls-1" cx="1208.4" cy="1357.5" r="2.8"/>
        <circle class="cls-1" cx="1064.3" cy="1437.2" r="2.1"/>
        <circle class="cls-1" cx="878.4" cy="1651" r="2.3"/>
        <circle class="cls-1" cx="772.5" cy="1802.3" r="3"/>
        <circle class="cls-1" cx="753.1" cy="1821.1" r="3.1"/>
        <circle class="cls-1" cx="603.8" cy="1731.4" r="2.2"/>
        <circle class="cls-1" cx="561.9" cy="1544.3" r="2.3"/>
        <circle class="cls-1" cx="619" cy="1295.3" r="2.9"/>
        <circle class="cls-1" cx="645.7" cy="1211" r="1.9"/>
        <circle class="cls-1" cx="625.1" cy="1009.3" r="2.5"/>
        <circle class="cls-1" cx="625.1" cy="795.8" r="3"/>
        <circle class="cls-1" cx="549.9" cy="472.3" r="2.8"/>
        <circle class="cls-1" cx="559.9" cy="322.2" r="3"/>
        <circle class="cls-1" cx="531.2" cy="372.9" r="2.2"/>
        <circle class="cls-1" cx="508.1" cy="563.8" r="3"/>
        <circle class="cls-1" cx="486.4" cy="785.7" r="1.8"/>
        <circle class="cls-1" cx="571.2" cy="976.6" r="3.1"/>
        <circle class="cls-1" cx="598.7" cy="1313.1" r="2.3"/>
        <circle class="cls-1" cx="599.1" cy="1335.7" r="2.4"/>
        <circle class="cls-1" cx="447.4" cy="1608.2" r="1.9"/>
        <circle class="cls-1" cx="370.3" cy="1901.7" r="2.8"/>
        <circle class="cls-1" cx="169.2" cy="1853" r="2.1"/>
        <circle class="cls-1" cx="127.9" cy="1799.5" r="2.9"/>
        <circle class="cls-1" cx="101.7" cy="1610" r="2.9"/>
        <circle class="cls-1" cx="171" cy="1569.5" r="2"/>
        <circle class="cls-1" cx="119.2" cy="1377.3" r="2.6"/>
        <circle class="cls-1" cx="143.1" cy="1083.5" r="2.6"/>
        <circle class="cls-1" cx="144.3" cy="737.3" r="2.6"/>
        <circle class="cls-1" cx="179.2" cy="641.1" r="2.6"/>
        <circle class="cls-1" cx="208.8" cy="507.6" r="2.2"/>
        <circle class="cls-1" cx="198.4" cy="302.2" r="2.6"/>
        <circle class="cls-1" cx="154.9" cy="178.9" r="3"/>
        <circle class="cls-1" cx="181.4" cy="163.3" r="2.7"/>
      </g>
      <g>
        <circle class="cls-1" cx="2116.8" cy="571.1" r="3"/>
        <circle class="cls-1" cx="2048.7" cy="637.2" r="2.4"/>
        <circle class="cls-1" cx="1808.2" cy="558.1" r="1.8"/>
        <circle class="cls-1" cx="1474" cy="606.4" r="2.4"/>
        <circle class="cls-1" cx="1339.5" cy="588.1" r="1.9"/>
        <circle class="cls-1" cx="1286.4" cy="589.2" r="2.1"/>
        <circle class="cls-1" cx="1166.8" cy="594" r="2.6"/>
        <circle class="cls-1" cx="1113.8" cy="616.3" r="2.6"/>
        <circle class="cls-1" cx="1383.9" cy="635" r="2.6"/>
        <circle class="cls-1" cx="1715" cy="615.2" r="3"/>
        <circle class="cls-1" cx="1909.8" cy="604.5" r="1.9"/>
        <circle class="cls-1" cx="2145.1" cy="621.6" r="2.8"/>
        <circle class="cls-1" cx="2421.5" cy="644.8" r="2.9"/>
        <circle class="cls-1" cx="2687.4" cy="592.7" r="2.8"/>
        <circle class="cls-1" cx="2399.2" cy="638.3" r="2.4"/>
        <circle class="cls-1" cx="2142.5" cy="598.6" r="2.6"/>
        <circle class="cls-1" cx="1914.9" cy="616.7" r="2"/>
        <circle class="cls-1" cx="1630.9" cy="616.2" r="1.9"/>
        <circle class="cls-1" cx="1332.1" cy="588.3" r="2.1"/>
        <circle class="cls-1" cx="1261.4" cy="565.2" r="3"/>
        <circle class="cls-1" cx="1380.6" cy="603.6" r="2.3"/>
        <circle class="cls-1" cx="1737.2" cy="550.9" r="2.1"/>
        <circle class="cls-1" cx="1806.1" cy="569.2" r="2.3"/>
        <circle class="cls-1" cx="1886.4" cy="501" r="2.9"/>
        <circle class="cls-1" cx="2183.7" cy="516.4" r="2.5"/>
        <circle class="cls-1" cx="2529.4" cy="506.8" r="2.3"/>
        <circle class="cls-1" cx="2741.2" cy="528.9" r="2.2"/>
        <circle class="cls-1" cx="2945.7" cy="478.1" r="2.7"/>
        <circle class="cls-1" cx="3035.6" cy="480.9" r="2.2"/>
        <circle class="cls-1" cx="2940.5" cy="448.8" r="2.1"/>
        <circle class="cls-1" cx="2786.6" cy="469.5" r="1.8"/>
        <circle class="cls-1" cx="2521.5" cy="482.8" r="2.3"/>
        <circle class="cls-1" cx="2396" cy="436.8" r="1.9"/>
        <circle class="cls-1" cx="2114.8" cy="469.7" r="2"/>
        <circle class="cls-1" cx="1836.6" cy="435.9" r="2.4"/>
        <circle class="cls-1" cx="1763.9" cy="377.4" r="2.6"/>
        <circle class="cls-1" cx="1508" cy="440.2" r="2.3"/>
        <circle class="cls-1" cx="1259.8" cy="373.1" r="2.8"/>
        <circle class="cls-1" cx="985" cy="387.4" r="2.2"/>
        <circle class="cls-1" cx="941.4" cy="302.5" r="1.9"/>
        <circle class="cls-1" cx="1133" cy="302.9" r="2.7"/>
        <circle class="cls-1" cx="1414.7" cy="377.3" r="1.8"/>
        <circle class="cls-1" cx="1516.1" cy="327" r="2.4"/>
        <circle class="cls-1" cx="1715.9" cy="281.3" r="3"/>
        <circle class="cls-1" cx="1890.9" cy="322.4" r="2.6"/>
        <circle class="cls-1" cx="2172.4" cy="324.8" r="3"/>
        <circle class="cls-1" cx="2460.1" cy="292.8" r="2.6"/>
        <circle class="cls-1" cx="2582.5" cy="322.2" r="2.7"/>
        <circle class="cls-1" cx="2765.7" cy="247.3" r="1.8"/>
        <circle class="cls-1" cx="3109.2" cy="272.5" r="1.8"/>
      </g>
      <g>
        <circle class="cls-1" cx="921.6" cy="1046.9" r="2.8"/>
        <circle class="cls-1" cx="948.2" cy="1007.2" r="1.9"/>
        <circle class="cls-1" cx="1160.3" cy="982.1" r="2.1"/>
        <circle class="cls-1" cx="1286.7" cy="1048.3" r="2.7"/>
        <circle class="cls-1" cx="1635.9" cy="978" r="2.2"/>
        <circle class="cls-1" cx="1762.7" cy="1017.4" r="2.6"/>
        <circle class="cls-1" cx="1791.4" cy="956.6" r="2.7"/>
        <circle class="cls-1" cx="1824.8" cy="1040.3" r="2.2"/>
        <circle class="cls-1" cx="2046.6" cy="955.9" r="3"/>
        <circle class="cls-1" cx="2091.6" cy="964.1" r="1.8"/>
        <circle class="cls-1" cx="1944.3" cy="1042.4" r="1.9"/>
        <circle class="cls-1" cx="1674.1" cy="1066.2" r="2.2"/>
        <circle class="cls-1" cx="1538.7" cy="1108.4" r="2.1"/>
        <circle class="cls-1" cx="1522.3" cy="1148" r="2"/>
        <circle class="cls-1" cx="1174.1" cy="1158.5" r="3"/>
        <circle class="cls-1" cx="1017.6" cy="1212.6" r="2.8"/>
        <circle class="cls-1" cx="1013.6" cy="1180.2" r="2.5"/>
        <circle class="cls-1" cx="1077.5" cy="1169.3" r="2.1"/>
        <circle class="cls-1" cx="1311.8" cy="1147.8" r="3"/>
        <circle class="cls-1" cx="1435.4" cy="1151.5" r="2.5"/>
        <circle class="cls-1" cx="1606.4" cy="1185.2" r="3"/>
        <circle class="cls-1" cx="1960" cy="1137.6" r="2.4"/>
        <circle class="cls-1" cx="2205.2" cy="1170.6" r="2.4"/>
        <circle class="cls-1" cx="2376.6" cy="1132.9" r="2.9"/>
        <circle class="cls-1" cx="2393.6" cy="1153.2" r="1.9"/>
        <circle class="cls-1" cx="2360.3" cy="1142.3" r="3.1"/>
        <circle class="cls-1" cx="2156.2" cy="1211.7" r="2.6"/>
        <circle class="cls-1" cx="2077.5" cy="1210.8" r="2.6"/>
        <circle class="cls-1" cx="2060.1" cy="1190.9" r="2.5"/>
        <circle class="cls-1" cx="1972.5" cy="1233" r="3.1"/>
        <circle class="cls-1" cx="1950.9" cy="1247.7" r="2.3"/>
        <circle class="cls-1" cx="1725" cy="1229.9" r="2.3"/>
        <circle class="cls-1" cx="1381.7" cy="1206.1" r="2.6"/>
        <circle class="cls-1" cx="1336.8" cy="1241.8" r="3.1"/>
        <circle class="cls-1" cx="1367.6" cy="1284" r="2.9"/>
        <circle class="cls-1" cx="1528.9" cy="1285.9" r="2.2"/>
        <circle class="cls-1" cx="1573.6" cy="1242.1" r="2.2"/>
        <circle class="cls-1" cx="1728.2" cy="1291" r="3.1"/>
        <circle class="cls-1" cx="2044" cy="1224.4" r="2.2"/>
        <circle class="cls-1" cx="2187.2" cy="1223.1" r="2.4"/>
        <circle class="cls-1" cx="2303.2" cy="1253.4" r="2.7"/>
        <circle class="cls-1" cx="2315.9" cy="1246.3" r="2"/>
        <circle class="cls-1" cx="2506.7" cy="1217.4" r="2.2"/>
        <circle class="cls-1" cx="2557.6" cy="1219.3" r="2.9"/>
        <circle class="cls-1" cx="2741.7" cy="1207.1" r="3.1"/>
      </g>
      <g>
        <circle class="cls-1" cx="111.8" cy="1991.3" r="2.6"/>
        <circle class="cls-1" cx="144.4" cy="1905" r="2"/>
        <circle class="cls-1" cx="220.5" cy="1825.7" r="2.2"/>
        <circle class="cls-1" cx="198.7" cy="1742.1" r="2.6"/>
        <circle class="cls-1" cx="150" cy="1690.8" r="2.4"/>
        <circle class="cls-1" cx="200.5" cy="1586.5" r="1.8"/>
        <circle class="cls-1" cx="258" cy="1431.1" r="3"/>
        <circle class="cls-1" cx="382.6" cy="1295" r="2.3"/>
        <circle class="cls-1" cx="242.6" cy="1263.4" r="2.5"/>
        <circle class="cls-1" cx="249.9" cy="1046.5" r="2.1"/>
        <circle class="cls-1" cx="280.3" cy="1053.5" r="2.7"/>
        <circle class="cls-1" cx="165.8" cy="949.3" r="3"/>
        <circle class="cls-1" cx="234.4" cy="939.7" r="2.8"/>
        <circle class="cls-1" cx="294" cy="744" r="2.5"/>
        <circle class="cls-1" cx="430.2" cy="674.8" r="2.9"/>
        <circle class="cls-1" cx="451.9" cy="642.4" r="3.1"/>
        <circle class="cls-1" cx="341.4" cy="687.5" r="3"/>
        <circle class="cls-1" cx="223.1" cy="607" r="2.6"/>
        <circle class="cls-1" cx="341.5" cy="620.5" r="2.8"/>
        <circle class="cls-1" cx="449.2" cy="592.3" r="3"/>
        <circle class="cls-1" cx="369.3" cy="571.5" r="2.7"/>
        <circle class="cls-1" cx="353.7" cy="580" r="1.9"/>
        <circle class="cls-1" cx="161.9" cy="525.3" r="3"/>
        <circle class="cls-1" cx="438.9" cy="425.9" r="2.6"/>
        <circle class="cls-1" cx="472.2" cy="449.1" r="2"/>
        <circle class="cls-1" cx="423.5" cy="382.6" r="2.5"/>
        <circle class="cls-1" cx="300.2" cy="391" r="3"/>
        <circle class="cls-1" cx="226.8" cy="426" r="1.9"/>
        <circle class="cls-1" cx="276" cy="350.3" r="2.9"/>
        <circle class="cls-1" cx="323" cy="323.2" r="2.1"/>
        <circle class="cls-1" cx="335.5" cy="331.3" r="2.1"/>
        <circle class="cls-1" cx="343.1" cy="243.4" r="2.7"/>
        <circle class="cls-1" cx="266.8" cy="235.3" r="2"/>
        <circle class="cls-1" cx="389.2" cy="256.6" r="2"/>
        <circle class="cls-1" cx="653.7" cy="253.6" r="2.8"/>
        <circle class="cls-1" cx="748.6" cy="238.3" r="2.8"/>
        <circle class="cls-1" cx="820.7" cy="239.6" r="3"/>
        <circle class="cls-1" cx="799.9" cy="174.7" r="3"/>
        <circle class="cls-1" cx="603.7" cy="177.8" r="2.6"/>
        <circle class="cls-1" cx="418.6" cy="180.9" r="1.9"/>
        <circle class="cls-1" cx="435.9" cy="110.2" r="2.5"/>
        <circle class="cls-1" cx="633.9" cy="53.6" r="2.6"/>
        <circle class="cls-1" cx="821.4" cy="103.8" r="2.6"/>
        <circle class="cls-1" cx="827.7" cy="63.6" r="2.5"/>
        <circle class="cls-1" cx="572" cy="107" r="2"/>
        <circle class="cls-1" cx="350.2" cy="59.1" r="3"/>
        <circle class="cls-1" cx="128.2" cy="94.3" r="2"/>
      </g>
      <g>
        <circle class="cls-1" cx="722.4" cy="589.1" r="2.3"/>
        <circle class="cls-1" cx="819.1" cy="556.4" r="1.9"/>
        <circle class="cls-1" cx="759.8" cy="468.7" r="2.3"/>
        <circle class="cls-1" cx="646.5" cy="278.4" r="2.4"/>
        <circle class="cls-1" cx="822.7" cy="270.1" r="2.7"/>
        <circle class="cls-1" cx="810.8" cy="283.9" r="1.9"/>
        <circle class="cls-1" cx="698.1" cy="231.9" r="1.9"/>
        <circle class="cls-1" cx="912.7" cy="161.6" r="2.7"/>
        <circle class="cls-1" cx="1050.5" cy="168.2" r="1.9"/>
        <circle class="cls-1" cx="1166.4" cy="116.7" r="2.9"/>
        <circle class="cls-1" cx="1220.7" cy="88" r="2.5"/>
        <circle class="cls-1" cx="1503.6" cy="79.9" r="2.8"/>
        <circle class="cls-1" cx="1704.3" cy="68.4" r="2.1"/>
        <circle class="cls-1" cx="1859.2" cy="126.7" r="2.7"/>
        <circle class="cls-1" cx="1961.7" cy="121.3" r="2"/>
        <circle class="cls-1" cx="2019.7" cy="58" r="2.7"/>
        <circle class="cls-1" cx="2182.8" cy="131.6" r="3"/>
        <circle class="cls-1" cx="2364.7" cy="115.4" r="2.6"/>
        <circle class="cls-1" cx="2618.9" cy="65.9" r="2"/>
        <circle class="cls-1" cx="2914" cy="110.7" r="3"/>
        <circle class="cls-1" cx="3261.7" cy="110.9" r="3.1"/>
        <circle class="cls-1" cx="3341.1" cy="105.2" r="2.3"/>
        <circle class="cls-1" cx="3503.7" cy="97.1" r="2.5"/>
        <circle class="cls-1" cx="3623" cy="179" r="2.7"/>
        <circle class="cls-1" cx="3688.9" cy="208.2" r="2.7"/>
        <circle class="cls-1" cx="3722.1" cy="195.9" r="2.8"/>
        <circle class="cls-1" cx="3661.8" cy="410.8" r="2.8"/>
        <circle class="cls-1" cx="3630.5" cy="628.6" r="2.8"/>
        <circle class="cls-1" cx="3649.3" cy="828.4" r="2.7"/>
        <circle class="cls-1" cx="3671" cy="1059.9" r="2"/>
        <circle class="cls-1" cx="3699.9" cy="1145.9" r="2"/>
        <circle class="cls-1" cx="3722.9" cy="1177.7" r="1.9"/>
        <circle class="cls-1" cx="3717.2" cy="1398.1" r="2"/>
        <circle class="cls-1" cx="3688.9" cy="1416.4" r="2.5"/>
        <circle class="cls-1" cx="3760.3" cy="1445.4" r="1.9"/>
        <circle class="cls-1" cx="3722.5" cy="1613.4" r="1.8"/>
        <circle class="cls-1" cx="3685.2" cy="1792.4" r="2.9"/>
        <circle class="cls-1" cx="3679.9" cy="1838.5" r="2.5"/>
        <circle class="cls-1" cx="3638.1" cy="1935.6" r="2.8"/>
        <circle class="cls-1" cx="3565.9" cy="1988.1" r="2.8"/>
        <circle class="cls-1" cx="3506.4" cy="2034.9" r="2.1"/>
        <circle class="cls-1" cx="3318.2" cy="2041.7" r="2.2"/>
        <circle class="cls-1" cx="3247.5" cy="2074.9" r="2.9"/>
        <circle class="cls-1" cx="2916.1" cy="2029.3" r="2"/>
        <circle class="cls-1" cx="2849.6" cy="2073.4" r="2.6"/>
        <circle class="cls-1" cx="2599.3" cy="2039.3" r="2.6"/>
        <circle class="cls-1" cx="2437.8" cy="2107.5" r="2.5"/>
        <circle class="cls-1" cx="2578.6" cy="2067.5" r="2"/>
        <circle class="cls-1" cx="2220.8" cy="2101.3" r="1.9"/>
        <circle class="cls-1" cx="1977.4" cy="2074.3" r="2.8"/>
        <circle class="cls-1" cx="1959.5" cy="2090.2" r="2.9"/>
        <circle class="cls-1" cx="1858.3" cy="2096.7" r="2.2"/>
        <circle class="cls-1" cx="1682.1" cy="2099.3" r="3"/>
        <circle class="cls-1" cx="1625.1" cy="2068.3" r="2.9"/>
        <circle class="cls-1" cx="1661" cy="2009.6" r="2.5"/>
        <circle class="cls-1" cx="1741" cy="2048.5" r="2.3"/>
        <circle class="cls-1" cx="1566.6" cy="2009.9" r="2.2"/>
        <circle class="cls-1" cx="1420.4" cy="2050" r="2.1"/>
        <circle class="cls-1" cx="1269.5" cy="2080.2" r="1.9"/>
        <circle class="cls-1" cx="1164.7" cy="2058.8" r="1.9"/>
        <circle class="cls-1" cx="1301.7" cy="2050.8" r="3"/>
        <circle class="cls-1" cx="1297.8" cy="2068.6" r="1.9"/>
        <circle class="cls-1" cx="1089.3" cy="2028.5" r="1.8"/>
        <circle class="cls-1" cx="737.9" cy="2098.7" r="2.8"/>
        <circle class="cls-1" cx="786.8" cy="2048.1" r="2.2"/>
        <circle class="cls-1" cx="588.5" cy="2069" r="1.9"/>
        <circle class="cls-1" cx="432.3" cy="2096.7" r="3.1"/>
      </g>
      <g>
        <circle class="cls-1" cx="1189.1" cy="1694.9" r="3"/>
        <circle class="cls-1" cx="1280.4" cy="1595.6" r="3"/>
        <circle class="cls-1" cx="1508.1" cy="1611.4" r="2.9"/>
        <circle class="cls-1" cx="1844.1" cy="1507.2" r="2.9"/>
        <circle class="cls-1" cx="2068.6" cy="1438.1" r="3"/>
        <circle class="cls-1" cx="2106.9" cy="1411.4" r="2.9"/>
        <circle class="cls-1" cx="2238" cy="1358.1" r="2.4"/>
        <circle class="cls-1" cx="2203" cy="1293.4" r="3.1"/>
        <circle class="cls-1" cx="2341.7" cy="1284.8" r="2.7"/>
        <circle class="cls-1" cx="2545.6" cy="1250.8" r="1.9"/>
        <circle class="cls-1" cx="2721.2" cy="1272.1" r="2.5"/>
        <circle class="cls-1" cx="2892.4" cy="1255.6" r="2.1"/>
        <circle class="cls-1" cx="3006.6" cy="1296.3" r="3.1"/>
        <circle class="cls-1" cx="3169.3" cy="1239.8" r="1.9"/>
        <circle class="cls-1" cx="3190.1" cy="1211.5" r="2.8"/>
        <circle class="cls-1" cx="3166.1" cy="1045.3" r="1.9"/>
        <circle class="cls-1" cx="3032.5" cy="887" r="2.4"/>
        <circle class="cls-1" cx="3004.1" cy="809.1" r="2.9"/>
        <circle class="cls-1" cx="3100.6" cy="731.9" r="2.4"/>
        <circle class="cls-1" cx="3329.9" cy="613.5" r="2.2"/>
        <circle class="cls-1" cx="3224.4" cy="610.8" r="2.7"/>
        <circle class="cls-1" cx="3426.5" cy="374.1" r="2"/>
      </g>
      <g>
        <circle class="cls-1" cx="2992.8" cy="1753.2" r="3"/>
        <circle class="cls-1" cx="3204.5" cy="1587.9" r="1.8"/>
        <circle class="cls-1" cx="3252.3" cy="1413.7" r="1.8"/>
        <circle class="cls-1" cx="3181.5" cy="1286.9" r="2.3"/>
        <circle class="cls-1" cx="3114.3" cy="1037.6" r="2.4"/>
        <circle class="cls-1" cx="3128.9" cy="932.8" r="2.1"/>
        <circle class="cls-1" cx="2926.1" cy="730.3" r="2.7"/>
        <circle class="cls-1" cx="2661.7" cy="542.4" r="2.8"/>
        <circle class="cls-1" cx="2478.9" cy="623" r="3.1"/>
        <circle class="cls-1" cx="2341.6" cy="752.9" r="2.7"/>
        <circle class="cls-1" cx="2292.6" cy="748.2" r="2.8"/>
        <circle class="cls-1" cx="2213.5" cy="908.2" r="2.1"/>
        <circle class="cls-1" cx="2074.7" cy="1049.3" r="2"/>
        <circle class="cls-1" cx="2040.9" cy="1109" r="3"/>
        <circle class="cls-1" cx="2017.4" cy="1324.1" r="2.2"/>
        <circle class="cls-1" cx="2102.3" cy="1480.5" r="3.1"/>
        <circle class="cls-1" cx="2190" cy="1546.9" r="2"/>
        <circle class="cls-1" cx="2274.2" cy="1592.3" r="2"/>
        <circle class="cls-1" cx="2458" cy="1387.9" r="2.2"/>
        <circle class="cls-1" cx="2478" cy="1090.8" r="2.7"/>
        <circle class="cls-1" cx="2383.6" cy="839" r="3"/>
        <circle class="cls-1" cx="2367.3" cy="734.4" r="2.9"/>
        <circle class="cls-1" cx="2259.9" cy="523.6" r="2.9"/>
        <circle class="cls-1" cx="2186.5" cy="450" r="2.6"/>
        <circle class="cls-1" cx="1850.2" cy="428.5" r="2.2"/>
        <circle class="cls-1" cx="1610.1" cy="475" r="2.6"/>
        <circle class="cls-1" cx="1355.3" cy="576.5" r="3"/>
        <circle class="cls-1" cx="1210.5" cy="757.4" r="2.6"/>
        <circle class="cls-1" cx="1107.7" cy="827.5" r="1.9"/>
        <circle class="cls-1" cx="1024.2" cy="1007.5" r="1.9"/>
        <circle class="cls-1" cx="1155.8" cy="1281.9" r="2.5"/>
        <circle class="cls-1" cx="1387.7" cy="1250.5" r="2.1"/>
        <circle class="cls-1" cx="1504.7" cy="1301.4" r="2.4"/>
        <circle class="cls-1" cx="1682.7" cy="1099.6" r="2.4"/>
        <circle class="cls-1" cx="1790.2" cy="923.5" r="1.9"/>
        <circle class="cls-1" cx="1753.4" cy="737.1" r="1.8"/>
        <circle class="cls-1" cx="1710.3" cy="698.1" r="2.1"/>
        <circle class="cls-1" cx="1582.8" cy="582.7" r="2"/>
        <circle class="cls-1" cx="1347.4" cy="540" r="2.7"/>
        <circle class="cls-1" cx="1041.5" cy="534.5" r="3"/>
        <circle class="cls-1" cx="923.1" cy="577.5" r="2.5"/>
        <circle class="cls-1" cx="921.1" cy="678" r="1.9"/>
        <circle class="cls-1" cx="808.7" cy="671.8" r="3"/>
        <circle class="cls-1" cx="770.7" cy="750.3" r="3"/>
        <circle class="cls-1" cx="760.1" cy="859.3" r="3"/>
        <circle class="cls-1" cx="615.2" cy="1084.8" r="1.8"/>
        <circle class="cls-1" cx="596" cy="1122.2" r="2.3"/>
        <circle class="cls-1" cx="616.2" cy="1459.8" r="1.9"/>
        <circle class="cls-1" cx="839.3" cy="1599.8" r="2.2"/>
      </g>
      <g>
        <circle class="cls-1" cx="2080.5" cy="427.3" r="2.9"/>
        <circle class="cls-1" cx="2018.8" cy="441.5" r="2.8"/>
        <circle class="cls-1" cx="1934.2" cy="532.8" r="3"/>
        <circle class="cls-1" cx="1837.6" cy="765.2" r="2.6"/>
        <circle class="cls-1" cx="1892.2" cy="960.4" r="2.7"/>
        <circle class="cls-1" cx="2014.7" cy="927.4" r="2.8"/>
        <circle class="cls-1" cx="2271.4" cy="957.2" r="2.7"/>
        <circle class="cls-1" cx="2296.4" cy="949.2" r="2.9"/>
        <circle class="cls-1" cx="2388.6" cy="934.6" r="3"/>
        <circle class="cls-1" cx="2480.1" cy="1108.3" r="2.9"/>
        <circle class="cls-1" cx="2424.3" cy="1381.7" r="2.1"/>
        <circle class="cls-1" cx="2428.1" cy="1621.8" r="2.8"/>
        <circle class="cls-1" cx="2170.6" cy="1623.3" r="2.7"/>
        <circle class="cls-1" cx="2063" cy="1600.8" r="2.8"/>
        <circle class="cls-1" cx="1857.3" cy="1470.4" r="3"/>
        <circle class="cls-1" cx="1829.5" cy="1283.1" r="2.3"/>
        <circle class="cls-1" cx="1858.9" cy="997.9" r="2.4"/>
      </g>
    </g>
    <g id="Moon3">
      <circle class="cls-4" cx="2946" cy="404" r="197"/>
      <circle class="cls-3" cx="2946" cy="404" r="197"/>
    </g>
  </g>
</svg>