<?xml version="1.0" encoding="UTF-8"?>
<svg xmlns="http://www.w3.org/2000/svg" version="1.1" viewBox="0 0 3840 2160">
  <defs>
    <style>
      .cls-1 {
        fill: #3b3b5e;
      }

      .cls-2 {
        fill: #2a2a49;
      }

      .cls-3 {
        fill: #20223f;
      }

      .cls-4 {
        fill: #2f2f42;
      }
    </style>
  </defs>
  <!-- Generator: Adobe Illustrator 28.7.1, SVG Export Plug-In . SVG Version: 1.2.0 Build 142)  -->
  <g>
    <g id="Background">
      <rect class="cls-1" width="3840" height="2160"/>
    </g>
    <g id="Trees">
      <polygon class="cls-4" points="0 627.5 141.2 1080 267.5 650.5 385.9 1080 549.5 557.5 707 1080 804.4 756.5 888.6 1080 938.5 865.5 985.9 1080 1135.5 557.5 1285.9 1080 1391.2 763.5 1488.5 1091.5 1664.9 584.5 1838.6 1091.5 1967.5 721.5 2083.3 1091.5 2254.5 591.5 2430.7 1091.5 2522.8 738.5 2620.2 1091.5 2828.5 542.5 3020.2 1091.5 3141.5 672.5 3259.6 1091.5 3367.5 636.5 3483.3 1091.5 3588.5 717.5 3691.2 1091.5 3840 627.5 3840 2160 0 2160 0 627.5"/>
      <polygon class="cls-3" points="3840 557.2 3840 0 0 0 0 557.2 146.5 43.5 257 557.2 356.5 113.5 443.8 557.2 651.5 15.5 801.7 557.2 930.7 124.5 1043.5 557.5 1233.5 -.5 1391.2 557.5 1504.5 215.5 1599.1 557.5 1749.5 138.5 1885.9 557.5 2080.5 .5 2280.7 557.5 2410 115 2541.2 557.5 2725.5 -.5 2893.8 557.5 3009.5 183.5 3133.3 557.5 3256.5 141.5 3385.9 557.5 3528.5 92.5 3688.6 557.5 3767.5 299.5 3840 557.2"/>
      <path class="cls-2" d="M0,1565.1s162.5-417.6,162.5-425.6,155,425.6,155,425.6l124-316.6,105,316.6,81.6-211.6,73.7,211.6,208.3-432.6,207.5,433,124-346,89.2,346,202.8-433,163,433,100-265s100.7,260,97.4,265,120.7-391,120.7-391l139.9,391.1,171.1-447.1,176,436,150-435,129.2,446.1,97.4-363.1,84.2,363.1,152.2-447.1,147.8,447.1,94.7-313.1,89.5,313.1,139-426.1,108.3,426.1,76.7-209.1,69.5,209.1v594.4H0v-594.9Z"/>
      <polygon class="cls-3" points="0 1757.5 154.4 2160 278.5 1701.5 391.2 2160 596.5 1599.5 775.4 2160 875.4 1809.5 962.3 2160 1125.5 1672.5 1267.5 2160 1454.5 1560.5 1649.1 2160 1762.3 1742.5 1867.5 2160 2038.5 1665.5 2191.2 2160 2370.5 1560.5 2538.6 2160 2685.5 1736.5 2809.6 2160 2956.5 1639.5 3088.6 2160 3304.5 1560.5 3491.2 2160 3588.6 1775.5 3683.3 2160 3840 1757.5 3840 2160 0 2160 0 1757.5"/>
    </g>
  </g>
</svg>