<?xml version="1.0" encoding="UTF-8"?>
<svg xmlns="http://www.w3.org/2000/svg" version="1.1" viewBox="0 0 3840 2160">
  <defs>
    <style>
      .cls-1 {
        fill: #ff792b;
      }
    </style>
  </defs>
  <!-- Generator: Adobe Illustrator 28.7.1, SVG Export Plug-In . SVG Version: 1.2.0 Build 142)  -->
  <g>
    <g id="Clouds">
      <path class="cls-1" d="M3019.5,1781.4c-25.8-36.3-93-43.6-204-91.4-107.7-46.4-41.7-49.6-92-62.5-108.8-28.1-100.4,26.9-253,9.6-117-13.3-171.3,105.7-172.6,126.9-20.1,17.3-34.1,38-36.4,59.9-3.5,32.1,20.9,56.8,26,61.7,54.5,52.9,171.8,43.5,244,16.8,47.7-17.6,70-38.5,70-38.5,16.1,10.8,40.7,36.4,93,43.3,16.2,2.1,57,5.8,104-7.2,6.3-1.8,13.2-3.7,20.3-5.9.2.1.5.2.7.3,18.8,8.1,61.7,13.8,105,12,52.2-2.2,113.3-16.1,130-29.7,29.7-24.3-11-61.7-35-95.4Z"/>
      <path class="cls-1" d="M3083.8,387.4c-26.5,3.4-35.9-43.4-86-59.5-34.5-11-69.6-1.6-107.9,8.7-34.7,9.3-62.2,16.7-76.6,37.3-4.8,6.9-9,24-17.5,58.3-4.6,18.7-5.7,25.7-13.1,35-11.4,14.1-20.8,12.4-35,26.2-4.1,4-22.5,22.8-21.1,47.8,1.2,21.6,16.4,36.5,23.3,43.1,26.9,25.6,64.5,31.5,97.7,36.7,22.2,3.5,67.7,10.2,119.6-2.9,25.3-6.4,62-15.6,94.1-40.2,11.9-9.1,21.9-19.4,40.1-21.6,4-.5,15.6-1.4,48.1,9.3,21.3,7.1,23.2,9.8,42.3,16.9,46.6,17.4,83.9,19.4,94.1,19.8,4.6.2,10.1.1,21.1,0,30.8-.3,62.9-.7,91.9-5.8,34-6.1,25.9-12,59.8-18.7,46.5-9.1,65.4,1.4,102.1-12.2,11.3-4.2,35-13,34.3-23.3-1.2-18.2-78.1-32.2-121.1-36.7-28.1-3-46.5-2.4-78.8-10.5-21.7-5.4-39.2-7.5-51.8-19.8-16.1-15.7-25.5-7-42.3-7.6-33.7-1.3-45.5-23.2,6.6-39.1,8.7-3,5.8-3.6,32.1-8.7,12.2-2.4,14.9,0,48.1-3.5,9.5-1,16.4-2,22.6-2.9,33.3-4.9,57.2-11,62-12.2,26.2-6.8,46.5-12.1,45.9-16.9-.8-6.4-37.7-8.6-50.3-9.3-46.4-2.8-51.8,5.2-72.9-1.2-23.4-7-21.6-18.1-54-30.9-16.4-6.5-30.2-8.8-40.1-10.5-30.8-5.1-54.3-2.8-90.4,1.2-47.3,5.1-71,7.7-88.2,18.7-25.6,16.2-22.8,33-38.6,35Z"/>
      <path class="cls-1" d="M1991.5,854.5c-50-2.9-52.4-18.1-98-18-22.9,0-43.3,5.4-84,16-51.8,13.5-77.8,20.6-82,34-7.3,23.4,27.2,60.8,64,74,23.7,8.5,48.5,4.8,97-3,59.5-9.6,52.3-15.5,76-16,67.4-1.4,84.2,47.4,156,45,21-.7,38.4-5.6,58-11,38.5-10.7,57.9-16.1,68-34,10.2-18,7.1-41.8-2-58-16.8-29.8-54.8-35.1-82-39-8.2-1.2-19.1-2.2-74,2-77.3,5.9-73.9,9.3-97,8Z"/>
      <path class="cls-1" d="M3015,1084.5c48.7-2.2,49.8-34.7,114.4-50.5,7.9-1.9,47.2-11.1,91.9-3.5,41.3,7,45.2,21.1,88.5,38.8,87.8,35.8,191.7,26.4,211.3,24.7,43.1-3.9,45.4-10,72.7-7.6,76.9,6.6,120.5,60.3,125.3,66.4,13.2,16.8,31,39.6,19.2,60.5-6.9,12.3-19.4,15.5-83.5,40.5-76.3,29.8-75.9,32-94.4,35.3-12.4,2.2-25.9,3.6-114.4-2.9-80.9-6-94.5-8.9-138.6-9.4-68.5-.7-92.5,5.9-103.6,9.4-29.7,9.5-28.4,16.9-63.5,31.1-30.6,12.4-55.7,16.5-106.1,24.7-50.6,8.2-78.7,12.8-118.6,10.6-24.1-1.3-53.3-5.2-83.5-15.3-18.2-6.1-32.1-10.9-44.3-21.7-3.5-3.1-27.1-24.9-17.5-51.1,4.7-12.8,15.1-21,20-24.7,6-4.6,20.9-14.5,68.5-23.5,46.6-8.8,59.5-4.5,94.4-15.3,19.6-6.1,36.2-11.4,39.3-21.7,4-13.2-15.7-29.2-32.6-37-17-7.9-27.4-5.9-37.6-15.3-1.7-1.5-12.1-11.5-8.4-23.5,3.9-12.3,20-18.4,24.2-20,26.7-10.1,45.4,2.6,76.8,1.2Z"/>
      <path class="cls-1" d="M896.7,1303.5c35-19.3,71.8-23.2,145.4-31.1,41.6-4.5,63-6.6,92-2.4,29.8,4.3,46.4,12.2,92,31.9,89.2,38.6,134.4,57.9,162.9,63.1,52.6,9.5,105.9,6.7,111.3,6.4,38.2-2.2,53.9-7.7,89.3-4.8,31.6,2.6,73.6,6.1,84.7,27.9,12.6,25.1-21.1,63.1-53.4,81.4-13.7,7.8-26.1,11.4-50.6,16.8-60.6,13.4-91,20.1-133.4,21.6-82.7,2.9-151.7-15.6-164.7-19.2-19.9-5.5-56.3-16.8-106.7-20.8-24.2-1.9-41.4-1.2-58,6.4-24.3,11.2-20.2,25.1-41.4,39.9-19,13.3-54,13.8-123.3,14.4-50.7.4-62.2-2.4-68.1-4-36.4-10-60.1-31.1-68.1-38.3-11.8-10.7-19-20.5-23.9-27.1-14.3-19.6-22.4-30.6-22.1-42.3.5-19.3,23.3-29,58.9-54.3,56.7-40.2,42.6-46.4,77.3-65.5Z"/>
      <path class="cls-1" d="M181.5,1885.2c60.4-46.2,90.7-69.3,124-83.7,28.3-12.3,61.4-26.3,108-28.8,21.8-1.2,67.2-3.1,113,19.5,26,12.9,20,17.8,50,34.4,14.2,7.9,60.8,33,121,31.6,27.1-.6,22.3-5.9,66-10.2,51.7-5.2,77.5-7.8,103,5.6,25.4,13.3,50.1,41.4,50,66.1,0,4.4-.9,13.7,0,28.8.3,5.2.9,15.7,3,27,5.6,30.2,16.4,36,13,46.5-2.1,6.6-9.3,13.3-48,22.3-32,7.5-68.3,15.6-121,12.1-11.7-.8-34.6-2.8-63-9.3-52.1-11.9-57.4-23.7-95-31.6-30.7-6.5-56.5-3.7-108,1.9-27.5,3-52.3,7.9-102,17.7-44.2,8.7-60.6,12.9-106,21.4-70.2,13.2-81.9,12.9-95,10.2-10.6-2.1-56.5-11.4-76-49.3-13.5-26.4-6.8-52.1-5-58.6,6.3-22.6,20.5-37.2,68-73.5Z"/>
      <path class="cls-1" d="M547.5,270.9c64.8,4.8,94.7-35.2,202-51.3,26.5-4,86.8-13,114,2.8,13.7,8,9.4,16.6,31,32.3,19.1,13.9,40.8,20.5,45,21.7,26.8,8,51.8,8.5,79,8.9,35.6.5,40.4-2.8,66-2.8,11.8,0,72.4.8,116,23.4,28.5,14.8,35.8,31.7,50,64.7,10.9,25.3,17.8,42.2,5,61.9-4.2,6.5-16.5,24.6-50,35.1-6.3,2-23.2,7.2-45,7.2-42.3.2-53.7-19-116-38.5-44.8-14-82.6-17.7-102-19-19.6-1.3-45.4-2.7-74,3.3-17.3,3.7-16.1,6-42,12.8-24.8,6.5-33.2,6.4-66,13.4-35.7,7.6-29.6,8.7-48,11.7-20,3.3-28,2.2-100,1.7-43.7-.3-49.4,0-58-3.3-23.4-9.2-27.7-30.2-21-45.2,7.7-17.2,30.4-27.5,40-31.2,41.2-16.3,75.4-5,97-20.1,14.9-10.4,16-27.8,3-35.7-10.5-6.4-25.1-3.3-74-5.6-26-1.2-19.6-2-58-4.5-65.1-4.2-85.5-2.1-95-10.6-6.8-6-4.5-14,0-19,8.1-8.9,27.1-11.4,43-13.4,28.9-3.6,52.3-1.5,58-1.1Z"/>
      <path class="cls-1" d="M1761.5,160.3c52-21.1,78-31.7,95-36.3,46.7-12.5,101.6-27.3,172-20.7,29.2,2.7,50.8,8.1,77,14.7,76.7,19.2,86.2,35.8,137,39.7,46.8,3.7,57.6-8.9,81,2.6,34.7,17,54.8,66.3,35,97.6-15.9,25.1-52.2,30.5-91,36.3-76.5,11.4-93.8-13-148,2.6-34.3,9.9-27.2,19.6-95,49.2-38.2,16.7-57.8,25.1-84,26.8-29.3,1.9-29.5-6.1-98-18.1-54-9.5-69.2-7.1-88-21.6-13.3-10.2-31-30.8-25-48.4,6.4-18.9,34-16,46-38.9,8.3-15.7,6.1-37.7-7-49.2-15.3-13.4-40.4-7.9-42-14.7-1.6-6.6,20.8-15.8,35-21.6Z"/>
      <path class="cls-1" d="M250.5,768.5c34.9-26.5,20.5-58.3,59-95,25.8-24.6,55.2-32.1,78-38,20.3-5.2,85.8-22.1,140,10,29.2,17.3,21.5,28.9,74,74,29.4,25.3,44.2,37.9,67,46,38.1,13.4,47.6-2.3,98,10,23.9,5.8,56,14.1,74,42,3.5,5.4,16.6,25.6,10,46-6.7,20.8-29.9,29.6-45,35-32.5,11.7-56.6,8.2-109,4-54.4-4.4-13.8.5-116-7-85.7-6.3-89.7-8-106-4-35.3,8.7-37,21.7-94,42-22.5,8-42.7,15.1-71,18-25.7,2.7-57.6,6-91-11-24.7-12.6-38.4-30.2-42-35-20.9-28-37.9-77.6-18-105,19.6-27.1,54.3-3.4,92-32Z"/>
    </g>
  </g>
</svg>