<?xml version="1.0" encoding="UTF-8"?>
<svg xmlns="http://www.w3.org/2000/svg" viewBox="0 0 3840.1 2160.5">
  <defs>
    <style>
      .cls-1 {
        fill: #975900;
      }

      .cls-2 {
        fill: #7f5200;
      }

      .cls-3 {
        fill: #e7b600;
      }

      .cls-4 {
        fill: #bb7900;
      }
    </style>
  </defs>
  <g id="Background">
    <rect class="cls-2" x=".5" width="3839" height="2160"/>
  </g>
  <g id="Ground">
    <g>
      <path class="cls-1" d="M3804.59,493.1c.99-1.64,1.99-3.28,2.98-4.91-1.66,1.85-3.65,3.8-5.85,4.76-1.82-.1-3.61-.22-5.4-.34-1.44-1.39-1.68-4.09-.78-5.58-3.68,1.49-7.36,2.98-11.05,4.46.75-1.49,1.5-2.97,2.25-4.46-1.12,1.67-2.54,3.02-4.47,3.48-2.93.69-5.93-2.93-5-5.19-1.66,1.87-3.49,3.59-5.47,5.12-2.35-.24-4.76-.49-7.22-.74,1.38-2.08,2.75-4.16,4.13-6.24-2.89,1.92-5.77,3.85-8.66,5.77-3.46-.36-7.06-.72-10.83-1.1.66-1.06,1.32-2.13,1.98-3.19-1.61,1.04-3.26,2-4.95,2.9-4.48-.44-9.2-.88-14.25-1.32-3.68-.32-8.54-.75-14.33-1.26,1.61-2.53,3.45-4.93,5.51-7.11-3.52,2.54-7.27,4.75-11.19,6.61-3.22-.28-6.68-.58-10.32-.9,1.83-2.5,3.65-5,5.48-7.5-3.43,2.54-7,4.88-10.67,7.05-3.67-.32-7.51-.65-11.5-.99.23-.24.45-.48.68-.72-.49.22-.97.44-1.46.65-6.06-.52-12.44-1.06-19.08-1.62,1.63-2.16,3.43-4.18,5.42-6.02-3.46,2.07-7.04,3.93-10.72,5.57-4.04-.34-8.17-.68-12.35-1.03,1.06-1.63,2.12-3.27,3.18-4.9-4.4,1.36-8.8,2.72-13.2,4.08-3.91-.32-7.86-.64-11.83-.96,2.47-3.41,4.93-6.83,7.4-10.24-9.14,2.88-18.27,5.76-27.41,8.65-1.72-.14-3.45-.27-5.17-.41,2.52-4.1,5.05-8.19,7.57-12.29-5.55,4.39-11.52,8.23-17.79,11.5-3.14-.24-6.26-.48-9.37-.71,2.12-2.95,4.25-5.9,6.37-8.85-3.75,3.09-7.73,5.91-11.88,8.44-4.97-.37-9.89-.73-14.73-1.08,2.88-3.07,5.91-5.98,9.11-8.71-4.97,2.77-9.94,5.53-14.91,8.3-4.09-.29-8.11-.57-12.04-.84,1.41-1.76,2.91-3.43,4.52-5.01-2.76,1.58-5.53,3.17-8.29,4.75-4.43-.3-8.75-.58-12.92-.84.95-1.58,1.98-3.11,3.11-4.57-3.08,1.4-6.17,2.8-9.25,4.2-6.97-.42-13.45-.77-19.32-1.05,1.31-1.72,2.71-3.38,4.21-4.93-3.58,1.55-7.16,3.1-10.74,4.65-6.58-.27-12.94-.45-19.1-.55,1.03-2.53,2.28-4.97,3.74-7.27-3.06,2.65-6.34,5.06-9.78,7.2-5.99-.05-11.81-.03-17.45.07,2.64-4.33,5.29-8.66,7.93-12.99-8.65,5.29-17.75,9.84-27.17,13.61-1.94.09-3.86.19-5.77.3.97-5.14,1.95-10.28,2.92-15.42-9.87,5.86-19.75,11.72-29.62,17.58-1.51.16-3.01.32-4.5.49,1.5-7.3,4.84-14.21,9.66-19.89-10.52,7.58-21.05,15.16-31.57,22.74-.21.03-.43.06-.64.09,3.33-3.9,6.66-7.81,9.98-11.71-5.91,4.3-11.82,8.6-17.74,12.9-3.11.49-6.2,1.01-9.3,1.53,1.64-3.31,3.61-6.46,5.89-9.37-5.49,3.75-10.98,7.49-16.46,11.24-4.53.82-9.07,1.67-13.65,2.55,2.78-5.44,5.57-10.89,8.35-16.33-13.43,6.9-26.85,13.8-40.28,20.7,3.45-7.34,6.89-14.68,10.34-22.02-9.06,9.59-19.49,17.88-30.87,24.54,3.3-8.13,6.61-16.26,9.91-24.39-10.37,11.05-21.96,20.97-34.48,29.51,1.58-3.96,3.16-7.92,4.75-11.88-5.7,4.91-11.4,9.82-17.1,14.74.98-4.94,1.96-9.88,2.94-14.82-4.79,6.83-10.21,13.21-16.17,19.06-.62.1-1.25.2-1.87.29.31-2.87.62-5.74.93-8.61-2.32,3.18-4.64,6.37-6.95,9.55-12.74,1.95-26.31,3.85-40.93,5.65-12.24,1.51-23.32,2.72-33.64,3.66,2-2.55,4-5.1,6-7.65-5.47,2.84-10.95,5.69-16.42,8.53-2.78.22-5.51.41-8.19.59,2.03-3.28,4.07-6.56,6.1-9.85-5.6,3.49-11.19,6.97-16.79,10.46-1.15.06-2.29.11-3.42.15,1.77-3.18,3.55-6.37,5.32-9.55-4.26,3.4-8.63,6.68-13.08,9.83-4.4.13-8.76.21-13.13.24,2.33-3.23,4.65-6.46,6.98-9.69-4.2,3.23-8.4,6.47-12.6,9.7-3.03,0-6.07-.03-9.13-.08,3.79-4.8,7.89-9.36,12.26-13.65-5.96,4.51-11.92,9.02-17.89,13.54-2.67-.06-5.38-.14-8.12-.23.64-1.28,1.24-2.58,1.77-3.91-1.17,1.3-2.37,2.58-3.58,3.85-15.2-.53-31.63-1.47-50.97-2.66.56-.88,1.12-1.76,1.69-2.64-1.49.82-2.98,1.65-4.47,2.47-8.07-.5-16.64-1.04-25.84-1.62,2.16-2.97,4.32-5.95,6.48-8.92-4.64,2.82-9.29,5.64-13.93,8.46-7.95-.49-16.35-1.01-25.28-1.54,3.66-4.88,7.32-9.77,10.98-14.65-7.76,4.64-15.53,9.29-23.29,13.93-6.22-.36-12.69-.72-19.42-1.09l13.35-14.97c-8.5,4.77-17,9.55-25.5,14.32-2.63-.14-5.31-.28-8.02-.42,6.45-5.76,12.89-11.53,19.34-17.29-11.02,5.53-22.05,11.07-33.07,16.6-2.58-.13-5.19-.25-7.83-.38,8.14-8.09,16.27-16.19,24.41-24.28-13.73,7.83-27.46,15.67-41.18,23.5-1.04-.05-2.09-.09-3.13-.14,7.17-8.07,14.35-16.14,21.52-24.2-13.15,7.81-26.3,15.62-39.45,23.43-1.55-.07-3.11-.13-4.69-.2,7.19-7.48,14.38-14.95,21.57-22.43-13.09,7.24-26.18,14.48-39.26,21.71-2.64-.1-5.32-.21-8.02-.31,4.02-6.84,9.14-13.03,15.14-18.22-9.81,5.9-19.63,11.79-29.44,17.69-.84-.03-1.68-.06-2.53-.09,4.91-6.19,9.82-12.38,14.73-18.57-10.16,6.01-20.31,12.01-30.47,18.02-1.62-.05-3.25-.11-4.89-.16,5.75-6.52,11.5-13.04,17.25-19.55-12.37,6.3-24.75,12.61-37.12,18.91-1.64-.05-3.28-.1-4.94-.15,3.51-5.02,7.02-10.04,10.53-15.05-7.35,5.41-15.08,10.3-23.09,14.68-2.33-.07-4.67-.14-7.03-.2,4.06-5.43,8.13-10.85,12.19-16.28-9.52,5.28-19.03,10.55-28.55,15.83-2.66-.07-5.35-.14-8.05-.21,2.43-4.08,4.87-8.16,7.3-12.24-8.01,3.94-16.03,7.88-24.04,11.81-1.07-.03-2.13-.05-3.2-.08,4.37-6.32,8.74-12.64,13.11-18.96-11.89,6.15-23.77,12.29-35.66,18.44-1.86-.04-3.72-.08-5.58-.12,3.32-4.2,6.64-8.39,9.96-12.59-6.87,2.95-13.74,5.9-20.61,8.84,6.23-7.1,12.46-14.19,18.69-21.29-5.18,1.71-10.36,3.41-15.54,5.12,3.92-5.71,7.84-11.41,11.77-17.12-7.47,3.33-14.93,6.66-22.4,9.98,2.89-5.77,5.77-11.53,8.66-17.3-8.79,5.67-17.58,11.34-26.37,17.01,3.53-6.27,7.06-12.53,10.59-18.8-9.42,7.8-19.94,14.26-31.16,19.14,4.28-6.4,8.56-12.79,12.83-19.19-10.82,6.23-21.64,12.46-32.45,18.69,2.24-5.47,4.48-10.94,6.72-16.41-8.32,8-17.58,15.01-27.55,20.84,4-6.1,7.99-12.2,11.99-18.3-13.18,8.53-26.35,17.05-39.53,25.58,3.01-4.82,6.02-9.64,9.03-14.45-14.04,9.18-28.09,18.36-42.13,27.54,3.67-6.68,7.34-13.35,11.02-20.03-11.14,7.76-22.94,14.57-35.22,20.35-2,0-4-.02-5.98-.03,2.98-4.66,5.97-9.33,8.95-13.99-9.43,4.64-18.86,9.28-28.3,13.93-.71,0-1.42,0-2.13,0,3.12-4,5.34-8.7,6.42-13.66-7.96,4.54-15.91,9.09-23.87,13.63-1.21,0-2.41,0-3.6,0,1.96-4.79,3.92-9.58,5.87-14.37-11.7,3.83-23.07,8.65-33.96,14.39-.92,0-1.85,0-2.76,0,1.9-3.98,3.79-7.96,5.69-11.93-7.11,4.52-14.54,8.52-22.22,11.98-2.35,0-4.66.02-6.96.02,2.17-3.99,4.34-7.98,6.5-11.96-7.88,4.01-15.77,8.03-23.65,12.04-1.26,0-2.52.01-3.77.02,5.08-6.93,10.17-13.86,15.25-20.79-10.61,5.64-21.22,11.29-31.83,16.93,2.77-4.45,5.54-8.91,8.32-13.36-7.51,5.8-15.01,11.6-22.52,17.4-.28,0-.56,0-.84,0,3.29-5.61,6.59-11.23,9.88-16.84-8.28,5.65-16.55,11.3-24.83,16.94-.82,0-1.64.01-2.45.02,5-6.83,9.99-13.66,14.99-20.49-12.22,6.77-24.45,13.54-36.67,20.31,7.81-10.89,15.62-21.79,23.42-32.68-14.72,10.28-29.43,20.56-44.15,30.84,6.24-10.36,12.47-20.72,18.71-31.08-11.37,10.37-23.73,19.65-36.86,27.67,8.06-10.86,16.12-21.72,24.18-32.57-13.29,12.01-26.57,24.02-39.86,36.03,6.99-8.71,13.98-17.43,20.97-26.14-11.58,9.38-23.16,18.77-34.73,28.15,2.86-8.9,7.56-17.21,13.71-24.26-9.16,6.82-18.32,13.65-27.48,20.47,3.28-7.6,6.56-15.19,9.84-22.79-12.23,8.4-24.46,16.81-36.69,25.21,3.29-8.3,6.57-16.6,9.86-24.91-9.35,7.3-18.69,14.59-28.04,21.89,1.19-4.96,2.38-9.91,3.58-14.87-6.74,7.77-13.98,15.11-21.66,21.96-1.52.04-3.03.08-4.54.12l7.04-17.08c-4.35,6.68-9.91,12.57-16.3,17.33-2.1.06-4.18.12-6.26.18,4.7-11.53,9.4-23.07,14.1-34.6-8.83,12.6-18.88,24.35-29.92,35.06-.39.01-.78.02-1.17.03.9-4.65,1.8-9.29,2.7-13.94l-9.54,14.14c-12.25.37-24.35.75-36.52,1.14.16-.26.32-.53.48-.79-.28.27-.57.53-.86.8-4.41.14-8.83.28-13.27.42.56-.82,1.11-1.64,1.69-2.45-1.06.87-2.15,1.7-3.27,2.5-5.58.18-11.2.35-16.87.53,2.31-4.25,4.93-8.34,7.82-12.22-4.83,4.75-10.21,8.95-16,12.48-3.63.11-7.28.22-10.97.34,3.68-5.25,7.82-10.17,12.37-14.69-6.13,5.39-12.63,10.38-19.43,14.9-5.49.16-11.05.33-16.71.49,2.27-5.01,4.88-9.87,7.8-14.54-4.47,5.26-9.33,10.19-14.53,14.73-5.45.15-11,.3-16.65.46,1.42-2.1,2.93-4.14,4.5-6.12-2.63,2.17-5.34,4.24-8.12,6.21-4.89.13-9.85.26-14.91.38,2.57-4.3,5.46-8.41,8.63-12.28-5.53,4.45-11.29,8.61-17.24,12.49-2.93.07-5.9.14-8.9.21,2.41-4.23,5.16-8.26,8.2-12.06-6.78,5.07-14.22,9.25-22.1,12.38-.58.01-1.16.03-1.74.04,3.8-7.47,9.58-13.93,16.63-18.48-10.07,7.13-20.73,13.41-31.83,18.8-4.27.09-8.6.17-13.01.26-.02,0-.03,0-.05,0,2.31-6.14,5.86-11.81,10.36-16.58-7.14,5.17-15.17,9.12-23.64,11.55,3.41-10.04,8.56-19.49,15.1-27.83-12.58,13.38-27.28,24.77-43.39,33.57-1.03.02-2.06.03-3.08.05,5.04-9.28,11.11-18,18.09-25.92-9.69,7.72-18.55,16.46-26.41,26.04-21.96.31-43.29.53-64.23.68,3.91-3.69,7.6-7.63,11.01-11.79-4.83,3.59-9.39,7.55-13.65,11.81-3.5.02-7,.05-10.48.07,5.47-6.06,11.5-11.62,17.98-16.59-7.19,5.54-14.38,11.07-21.57,16.61-1.86.01-3.72.02-5.58.03,4.08-5.21,8.16-10.42,12.24-15.63-5.71,5.78-11.97,11.02-18.63,15.66-3.26.01-6.51.02-9.76.03,5.68-5.54,11.37-11.07,17.05-16.61-6.66,6.04-13.77,11.58-21.22,16.62-3.56,0-7.11.02-10.66.02,1.25-1.55,2.56-3.04,3.95-4.46-1.8,1.51-3.63,3-5.48,4.46-3.3,0-6.6,0-9.9,0,4.72-5.95,10.05-11.42,15.91-16.25-6.94,5.42-13.88,10.83-20.82,16.25-.7,0-1.4,0-2.1,0,1.78-3.93,3.54-7.87,5.26-11.82-2.45,4.1-5.16,8.05-8.09,11.82-1.74,0-3.48,0-5.23,0,3.94-6.04,8.5-11.68,13.63-16.75-6.71,6.06-13.85,11.64-21.32,16.74-1.1,0-2.19,0-3.29,0,4.8-9.17,9.59-18.34,14.39-27.51-4.21,5.63-8.65,11.08-13.31,16.34-4.74,3.85-9.59,7.57-14.54,11.14-3.29-.01-6.58-.03-9.87-.04,6.51-11.93,14.09-23.28,22.65-33.84-5.37,5.82-10.74,11.64-16.11,17.46-6.89,5.43-13.77,10.87-20.66,16.3-.71,0-1.43,0-2.14-.01,2.26-5.12,4.83-10.1,7.69-14.92-3.55,5.12-7.32,10.09-11.28,14.89-2.05-.01-4.09-.03-6.14-.04,1.56-3.54,3.41-6.94,5.56-10.16-2.76,3.46-5.62,6.84-8.59,10.13-1.44-.01-2.89-.02-4.33-.03,4.14-10.27,8.57-20.42,13.31-30.43-6.85,9.16-14.09,18.03-21.67,26.59,3.15-4.37,6.4-8.66,9.75-12.87-4.8,5.71-9.83,11.23-15.01,16.59-5.52-.05-11.07-.1-16.63-.16,1.04-2.16,2.11-4.3,3.2-6.43,3.83-4.62,7.6-9.28,11.27-14.03-3.89,4.21-7.53,8.67-10.9,13.31,7.2-13.99,15.41-27.46,24.6-40.24-13.24,15.76-26.47,31.51-39.71,47.27-2.89-.03-5.79-.07-8.69-.1,8.63-10.45,16.73-21.35,24.24-32.64-9.17,10.2-17.53,21.13-25.01,32.63-1.69-.02-3.38-.04-5.07-.06,6.41-14.62,13.83-28.8,22.22-42.38-8.26,11.32-17.28,22.09-26.96,32.22,3.14-4.2,6.17-8.48,9.1-12.84-3.49,4.49-6.83,9.1-10.03,13.8-2.95,3.06-5.95,6.06-9.01,9-4.75-.06-9.52-.13-14.32-.19.87-1.31,1.76-2.61,2.67-3.89-1.24,1.3-2.48,2.6-3.74,3.88-.98-.01-1.97-.03-2.96-.04,6.88-15.59,15.94-30.22,26.86-43.31-11.75,13.58-24.2,26.55-37.28,38.85,4.96-10.12,11.04-19.7,18.11-28.48-9.38,11.63-19.66,22.54-30.7,32.6-.48,0-.96-.01-1.44-.02,7.54-13.97,16.7-27.06,27.26-38.92-12.53,12.92-25.05,25.84-37.58,38.76-1.41-.02-2.83-.04-4.25-.07,11.17-17.13,22.35-34.27,33.52-51.4-11.44,13.7-22.88,27.4-34.31,41.1-3.61,2.67-7.37,5.14-11.24,7.42,11.17-18.58,22.34-37.16,33.51-55.74-13.49,21.08-29.63,40.47-47.95,57.52,2.69-5.37,5.59-10.63,8.66-15.79-3.72,4.22-7.59,8.31-11.61,12.24,3.23-5.75,7.41-10.98,12.34-15.37-5.91,5.07-12.24,9.65-18.91,13.68,5.6-13.18,12.6-25.77,20.85-37.47-10.26,13.34-19.74,27.28-28.38,41.72-.86.45-1.71.9-2.58,1.33-1.39-.02-2.79-.05-4.19-.07,3.09-5.45,6.63-10.64,10.56-15.51-6.74,6.11-14.32,11.29-22.48,15.3-.61-.01-1.22-.02-1.82-.03,8.63-10.11,17.26-20.22,25.89-30.33-12.01,12.2-26.06,22.4-41.37,30.05-.46,0-.91-.02-1.37-.02,7.85-7.43,15.71-14.86,23.56-22.29-7.94,7.43-15.88,14.86-23.82,22.28-22.63-.41-46.09-.85-70.6-1.3,2.34-4.68,4.68-9.36,7.02-14.03-8.26,5.64-17.57,9.74-27.31,12.01,5.99-6.46,11.99-12.92,17.98-19.38-10.2,5.96-21.11,10.73-32.42,14.16,4.41-4.72,8.82-9.44,13.23-14.17-10.93,4.62-21.86,9.24-32.79,13.85,4.08-4.49,8.16-8.98,12.24-13.47-10.43,5.76-21.48,10.39-32.89,13.8,3.1-4.07,6.21-8.15,9.31-12.22-13.06,7.08-27.38,11.82-42.08,13.94,6.11-5.68,12.23-11.36,18.34-17.04-13.44,5.69-26.88,11.38-40.32,17.07l11.37-16.14c-12.73,7.71-26.43,13.81-40.67,18.12,6.03-6.03,12.06-12.07,18.09-18.1-10.59,6.36-21.45,12.27-32.54,17.71-3.45-.09-6.86-.19-10.25-.29,4.02-6.43,8.9-12.32,14.47-17.47-10.16,5.67-20.32,11.34-30.48,17.01-2.82-.08-5.63-.17-8.41-.25,6.73-8.82,14.28-17.02,22.54-24.43-13.64,10.82-29.5,18.84-46.31,23.39,6.39-10.03,15.03-18.62,25.1-24.95-13.08,5.5-26.15,11-39.23,16.51,8.65-9.46,17.3-18.92,25.95-28.38-13.51,7.64-26.57,16.08-39.1,25.25,2.53-2.52,5.06-5.04,7.59-7.56-9.32,5.13-18.16,11.14-26.39,17.9-39.07-1.37-73.16-2.75-104.65-4.08l1.05-1.47c-1.72.43-3.44.86-5.16,1.3-.3-.01-.6-.03-.9-.04,3.33-4.28,6.66-8.55,9.99-12.83-6.47,5.09-13.67,9.25-21.3,12.35-1.02-.04-2.04-.09-3.05-.13,1.66-2.26,3.77-4.18,6.17-5.64-3.36,1.83-6.72,3.65-10.08,5.48-1.53-.07-3.05-.13-4.57-.2,4.81-5.41,10.06-10.43,15.68-14.99-6.95,3.3-14.21,5.94-21.65,7.87,6.54-8.89,13.08-17.77,19.62-26.66-12.48,8.24-25.14,16.2-37.96,23.89,2.18-4.78,4.37-9.56,6.55-14.34-6.64,8.3-14.84,15.35-24.05,20.66,2.73-3.33,5.46-6.66,8.19-9.98-4.25,3.79-8.43,7.65-12.58,11.55-14.86-.63-29.56-1.23-44.41-1.8.27-.61.54-1.23.81-1.84-2.54.53-5.07,1.06-7.61,1.58-6.18-.23-12.41-.46-18.69-.68,5.03-4.95,10.05-9.9,15.08-14.86-12.13,3.99-24.26,7.98-36.4,11.96,2.19-3.61,4.37-7.21,6.56-10.82-6.42,2.59-12.85,5.17-19.27,7.76-1.97.79-4.5,1.49-5.99-.02-.55-.55-.48-1.32-.15-1.97-5.31,1.43-10.62,2.86-15.93,4.28.8-1.14,1.02-2.99-.08-4-1.95-1.8-5.03-1.24-7.59-.56-7.29,1.92-14.58,3.84-21.87,5.75l7.79-10.3c-5.05,1.61-10.1,3.23-15.14,4.85,1.58-2.96,3.16-5.92,4.75-8.87-2.27,2.87-5.35,6.05-8.94,5.32-2.29-.47-2.89-3.56-2.14-5.39-9.47,4.54-18.95,9.07-28.42,13.61-.11,0-.21,0-.32,0,3.92-3.84,7.83-7.67,11.75-11.51-7.34,3.78-14.69,7.57-22.03,11.35-.46,0-.92-.01-1.37-.02,1.46-2.35,2.91-4.71,4.37-7.06-4.5,2.31-9.01,4.62-13.51,6.93-.34,0-.68,0-1.02-.01,1.96-2.92,3.92-5.85,5.89-8.77-5.12,2.88-10.25,5.76-15.37,8.65-.94-.01-1.88-.02-2.82-.03,3.5-4.27,7-8.54,10.5-12.82-7.22,4.23-14.43,8.46-21.65,12.69-1.37-.01-2.73-.03-4.11-.04.47-.53.95-1.06,1.42-1.59-.52.54-1.06,1.06-1.6,1.59-2.83-.03-5.7-.06-8.59-.08,7.46-8.38,14.91-16.76,22.37-25.14-13.76,8.35-27.53,16.7-41.29,25.04-4.32,0-8.8.01-13.43.04,7.67-9.47,15.33-18.94,23-28.41-12.76,10.32-26.15,19.85-40.06,28.55-4.62.05-9.37.11-14.22.18,9.43-10.74,19.48-20.95,30.1-30.51-14.47,11.3-29.73,21.56-45.63,30.75-4.33.07-8.74.15-13.21.24,7.66-10.26,15.33-20.52,22.99-30.78-14.62,11.52-30.07,21.97-46.2,31.26-2.97.07-5.96.13-8.97.2,9.59-11.43,19.18-22.86,28.77-34.29-17.73,11.63-35.46,23.26-53.18,34.89-4.69.12-9.42.24-14.2.37,5.21-7.48,10.42-14.96,15.63-22.45-11.51,7.65-23.03,15.31-34.54,22.96-4.05.11-8.13.23-12.22.34,6.23-8.83,12.47-17.67,18.7-26.5-11.68,8.99-23.35,17.98-35.03,26.97-2.33.07-4.67.14-7.01.21,3.45-5.38,6.9-10.76,10.35-16.13-8.05,5.51-16.1,11.03-24.15,16.54-2.02.06-4.05.12-6.08.18,6.23-7.83,12.45-15.66,18.68-23.49-9.94,8.36-20.22,16.31-30.8,23.86-3.55.11-7.11.22-10.67.33,3.18-6.74,6.36-13.48,9.54-20.22-10.61,6.97-21.22,13.94-31.82,20.91-5.71.18-11.43.36-17.14.54,3.38-6.5,7.39-12.67,12.01-18.35-9.25,6.28-18.51,12.57-27.76,18.85-1.35.04-2.7.09-4.05.13,5.68-8.1,11.35-16.21,17.03-24.31-9.21,8.82-18.97,17.05-29.18,24.69-4.46.14-8.91.28-13.35.42,5.99-8.44,11.97-16.89,17.96-25.33-11.24,8.61-22.48,17.22-33.72,25.83-3.62.11-7.23.23-10.82.34,5.09-7.94,10.98-15.37,17.56-22.12-7.98,8.01-16.48,15.49-25.45,22.37-2.36.07-4.72.15-7.07.22l17.2-26.45c-9.63,9.38-19.67,18.33-30.07,26.85-1.97.06-3.94.12-5.9.18,6.05-7.75,12.1-15.49,18.15-23.24-7.45,9.16-16.36,17.12-26.29,23.49-1.63.05-3.25.1-4.88.15,9.01-11.97,18.03-23.95,27.04-35.92-14.83,12.15-29.66,24.3-44.49,36.45-1.65.05-3.29.1-4.93.15,4.58-8.85,9.17-17.7,13.75-26.55-9.08,9.62-18.8,18.64-29.06,27-1.99.06-3.97.11-5.94.17,6.54-9.54,13.07-19.08,19.61-28.62-8.63,10.96-18.79,20.71-30.07,28.92-1.74.05-3.48.1-5.21.14,6.44-10.3,12.88-20.6,19.33-30.9-11.71,10.44-23.43,20.88-35.14,31.32-1.77.05-3.52.09-5.27.14,6.82-11.74,13.63-23.47,20.45-35.21-10.92,12.48-22.53,24.35-34.74,35.57-2.09.05-4.15.1-6.2.15,5.12-9.74,10.25-19.49,15.37-29.23-12.2,9.9-24.4,19.8-36.6,29.69-.8.02-1.61.03-2.4.05,5.67-8.67,11.34-17.34,17.01-26.01-9.97,8.75-19.94,17.5-29.91,26.25-.36,0-.71.01-1.07.02,3.89-7.08,7.77-14.17,11.66-21.25-6.39,7.12-12.78,14.24-19.17,21.37-1.81.03-3.6.05-5.36.07,4.26-9.34,8.52-18.68,12.78-28.03-8.46,9.39-16.92,18.77-25.39,28.16-13.4.11-24.93.09-34.19-.09v1667h3840V493.5c-13.66.32-24.92.13-35.41-.4Z"/>
      <path class="cls-1" d="M703.37,466.65c.84-.4,1.67-.8,2.51-1.2-1.23-.48-2.09.16-2.51,1.2Z"/>
      <path class="cls-1" d="M762.53,475.58c.84-.23,1.67-.45,2.51-.68-.52-1.24-1.93-.45-2.51.68Z"/>
      <path class="cls-1" d="M262.45,466.13c.76-.76,1.53-1.52,2.28-2.29-.77.75-1.53,1.52-2.28,2.29Z"/>
      <path class="cls-1" d="M229.31,466.07c1.01-1.25,2.01-2.51,2.97-3.8l-2.97,3.8Z"/>
      <path class="cls-1" d="M933.44,482.97c.69-.38,1.39-.75,2.08-1.13-.72.33-1.4.72-2.08,1.13Z"/>
      <path class="cls-1" d="M1622.24,494.88c1.74-2.18,3.44-4.4,5.09-6.65-1.84,2.1-3.54,4.33-5.09,6.65Z"/>
      <path class="cls-1" d="M1610.71,488.27c2.06-2.45,4.09-4.93,6.08-7.44-2.06,2.45-4.08,4.93-6.08,7.44Z"/>
      <path class="cls-1" d="M1707.42,500.83c2.64-2.22,5.25-4.48,7.81-6.8-2.79,2.04-5.39,4.33-7.81,6.8Z"/>
      <path class="cls-1" d="M1526.67,500.14c6.38-6.7,12.48-13.68,18.21-20.94-6.74,6.36-12.84,13.39-18.21,20.94Z"/>
      <path class="cls-1" d="M1452.67,474.71c-4.11,3.82-7.92,7.95-11.44,12.32,4.16-3.77,8-7.89,11.44-12.32Z"/>
      <path class="cls-1" d="M1463.88,483.37c.68-.58,1.37-1.15,2.03-1.74-.69.56-1.37,1.15-2.03,1.74Z"/>
      <path class="cls-1" d="M1463.15,486.49c9.91-11.26,18.72-23.49,26.21-36.48-9.8,11.35-18.56,23.58-26.21,36.48Z"/>
      <path class="cls-1" d="M1634.1,490.18c2.38-3.43,4.67-6.93,6.86-10.49-2.45,3.39-4.73,6.9-6.86,10.49Z"/>
      <path class="cls-1" d="M1546.83,460.67c1.44-1.66,2.89-3.31,4.3-4.99-1.47,1.63-2.9,3.31-4.3,4.99Z"/>
      <path class="cls-1" d="M1502.44,444.76c3.01-4.7,5.89-9.48,8.62-14.35-2.87,4.78-5.75,9.56-8.62,14.35Z"/>
      <path class="cls-1" d="M1985.05,486.49c4.18-4.91,8.02-10.1,11.47-15.54-4.22,4.87-8.06,10.07-11.47,15.54Z"/>
      <path class="cls-1" d="M2013.39,485.64c2.11-1.85,4.18-3.75,6.2-5.7-2.14,1.81-4.2,3.72-6.2,5.7Z"/>
      <path class="cls-1" d="M2073.24,473.96c-8.07,6.81-15,14.96-20.49,23.97,7.65-7.25,14.54-15.29,20.49-23.97Z"/>
      <path class="cls-1" d="M2037.49,476.49c-3.43,3.44-6.6,7.13-9.5,11.02,3.46-3.41,6.66-7.09,9.5-11.02Z"/>
      <path class="cls-1" d="M1975.63,478.55c-6.42,4.93-12.21,10.67-17.25,17,6.24-5.15,12.02-10.83,17.25-17Z"/>
      <path class="cls-1" d="M1964.73,470.79c-7.77,5.34-14.77,11.8-20.75,19.09,7.33-5.89,14.27-12.27,20.75-19.09Z"/>
      <path class="cls-1" d="M1943.35,473.84c-6.47,4.77-12.29,10.4-17.31,16.67,6.43-4.81,12.28-10.41,17.31-16.67Z"/>
      <path class="cls-1" d="M1884.31,486.92c3.03-2.2,5.91-4.61,8.58-7.24-3.13,2.06-6.01,4.51-8.58,7.24Z"/>
      <path class="cls-1" d="M1875.77,470.64c2.52-2.68,4.96-5.42,7.29-8.25-2.59,2.6-5.03,5.36-7.29,8.25Z"/>
      <path class="cls-1" d="M2054.57,480.01c-5.23,5.14-10,10.74-14.27,16.7,5.69-4.67,10.57-10.33,14.27-16.7Z"/>
      <path class="cls-1" d="M3795.54,487.03c.79-.32,1.59-.64,2.38-.96-1.11-.29-1.91.17-2.38.96Z"/>
      <path class="cls-1" d="M3786.74,487.03c.91-1.36,1.62-2.93,2.23-4.42-.74,1.47-1.48,2.95-2.23,4.42Z"/>
      <path class="cls-1" d="M3777.27,485.31c.33-.37.67-.74.99-1.12-.5.29-.81.69-.99,1.12Z"/>
    </g>
    <g>
      <path class="cls-4" d="M1530.85,1056.91c1.03-.61,2.07-1.21,3.1-1.82-1.77-.81-2.77.27-3.1,1.82Z"/>
      <path class="cls-4" d="M1603.84,1050.67c.28-.72.54-1.43.79-2.13-.48.67-.73,1.39-.79,2.13Z"/>
      <path class="cls-4" d="M1333.76,1057.17c.65-1.03,1.24-2.1,1.78-3.14-2.15.21-2.48,1.61-1.78,3.14Z"/>
      <path class="cls-4" d="M1289.76,1048.49c1.25-1.66,2.4-3.38,3.44-5.18-1.36,1.58-2.5,3.33-3.44,5.18Z"/>
      <path class="cls-4" d="M1389.62,1051.63c2.26-1.81,4.52-3.63,6.79-5.44-2.55,1.41-4.84,3.27-6.79,5.44Z"/>
      <path class="cls-4" d="M1319.98,1055.87c.61-.43,1.21-.86,1.82-1.29-.87.22-1.46.69-1.82,1.29Z"/>
      <path class="cls-4" d="M1586.8,1056.06c.65-1.21,1.08-2.54,1.17-3.95-1.28,1.09-1.56,2.53-1.17,3.95Z"/>
      <path class="cls-4" d="M2229.69,1058.51c1.4-1.5,2.78-3.02,4.09-4.6-1.52,1.38-2.88,2.93-4.09,4.6Z"/>
      <path class="cls-4" d="M2192.06,1056.7c1.01-.89,2.02-1.8,2.99-2.73-1.12.76-2.12,1.69-2.99,2.73Z"/>
      <path class="cls-4" d="M2223.64,1056.62c-2.65,2.28-4.96,4.95-6.86,7.89,3.07-1.79,5.56-4.58,6.86-7.89Z"/>
      <path class="cls-4" d="M2116.2,1059.74c1.19-1.8,2.24-3.69,3.11-5.67-1.04,1.89-2.08,3.78-3.11,5.67Z"/>
      <path class="cls-4" d="M2165.54,1057.32c1.59-1.07,3.15-2.19,4.66-3.38-1.75.83-3.32,1.99-4.66,3.38Z"/>
      <path class="cls-4" d="M2187.67,1048.77c-2.89,2.68-5.43,5.72-7.57,9.03,2.92-2.65,5.49-5.68,7.57-9.03Z"/>
      <path class="cls-4" d="M3489.12,1069.51c-1.91,1.11-2.33,2.94-1.82,4.78,1.62-.96,2.55-2.56,1.82-4.78Z"/>
      <path class="cls-4" d="M3346.75,1071.48c.67-.02,1.35-.04,2.02-.06-.12-1.76-1.25-1.16-2.02.06Z"/>
      <path class="cls-4" d="M3524.26,1068.6c1-.66,2-1.32,3-1.98-1.46-.5-2.56.55-3,1.98Z"/>
      <path class="cls-4" d="M3312.82,1062.67c.83-.36,1.65-.72,2.48-1.08-1.34.04-2.12.45-2.48,1.08Z"/>
      <path class="cls-4" d="M3644.3,1066.44c.58-1.2,1.04-2.46,1.33-3.77-1.4,1.16-1.72,2.47-1.33,3.77Z"/>
      <path class="cls-4" d="M2868.7,1067.33c.3-.68.58-1.36.82-2.06-.44.67-.7,1.36-.82,2.06Z"/>
      <path class="cls-4" d="M3631.98,1065.7c.96-1.35,1.71-2.85,2.18-4.44-.92,1.38-1.63,2.88-2.18,4.44Z"/>
      <path class="cls-4" d="M3049.44,1064.39c1.91-1.12,3.83-2.25,5.74-3.37-2.45-1.99-4.96.42-5.74,3.37Z"/>
      <path class="cls-4" d="M2604.77,1060.99c.47-.47.93-.95,1.37-1.45-.62.41-1.07.91-1.37,1.45Z"/>
      <path class="cls-4" d="M2569.34,1054.79c1-1.03,1.97-2.09,2.89-3.19-1.1.93-2.06,2.01-2.89,3.19Z"/>
      <path class="cls-4" d="M2663.67,1062.89c1.57-1.19,3.14-2.38,4.7-3.57-1.62-2.38-5.47.89-4.7,3.57Z"/>
      <path class="cls-4" d="M2801.64,1056.54c.29-.33.58-.67.87-1.01-.37.3-.64.65-.87,1.01Z"/>
      <path class="cls-4" d="M2482.94,1061.3c.96-.7,1.92-1.4,2.89-2.11-1.84-1.05-2.8.28-2.89,2.11Z"/>
      <path class="cls-4" d="M2725.3,1060.08c1.25-1.27,2.37-2.68,3.31-4.21-2.24.41-3.25,2.16-3.31,4.21Z"/>
      <path class="cls-4" d="M2758.09,1062.34c.31-.77.57-1.57.76-2.39-.5.78-.73,1.59-.76,2.39Z"/>
      <path class="cls-4" d="M443.3,1060.35c1.62-1.13,3.22-2.26,4.81-3.42-1.77.88-3.39,2.05-4.81,3.42Z"/>
      <path class="cls-4" d="M702.13,1036.74c1.35-1.23,2.72-2.46,4.05-3.71-1.5,1.06-2.85,2.32-4.05,3.71Z"/>
      <path class="cls-4" d="M624.98,1058.3l13.49-6.92c-4.81,1.67-9.77,3.46-13.49,6.92Z"/>
      <path class="cls-4" d="M735.69,1053.72c.48-.48.95-.99,1.35-1.55-.89-.08-1.34.68-1.35,1.55Z"/>
      <path class="cls-4" d="M751.19,1044.58c.82-1.04,1.62-2.1,2.38-3.19-.94.94-1.72,2.03-2.38,3.19Z"/>
      <path class="cls-4" d="M3840,1080.5c-20.5.5-30.26-5.95-45.32-5.93.32-1.71.64-3.41.97-5.12-5.06,4.3-14.27-2.44-11.71-8.56-5.79,5.17-12.09,9.77-18.77,13.72-8.91.01-17.81.02-26.68.03-2.52-3.64-5.05-7.27-7.57-10.91-.83,6.18-12.76.17-8.29-4.17-7.27,5.04-14.53,10.07-21.8,15.11-.97,0-1.94,0-2.91,0-.17-4.3-.34-8.6-.51-12.9-8.76,3.95-17.53,7.9-26.29,11.85-4.88-.08-9.76-.15-14.63-.23-4.87-.08-11.13-3.47-12.18-6.96-1.7,3.49-4.55,6.42-7.97,8.26-1.81,0-3.62,0-5.43,0-.32-3.03.07-6.12,1.08-9-2.83,3.99-7.52,6.7-12.43,6.88-27.86-6.88-57.44-6.67-85.2.6-3.03.79-6.55,1.58-9.04-.31-1.26-.96-1.5-2.81-1.04-4.28-3.06,2.02-6.12,4.03-9.19,6.05-2.29,0-4.58,0-6.86,0-.47-3.46-.94-6.93-1.41-10.39-.84,3.51-1.93,7.32-3.78,10.39-5.22,0-10.42-.01-15.62-.02-.04-.11-.07-.22-.11-.34-.21.12-.42.23-.65.34-2.52,0-5.02,0-7.54,0-1.89-.88-3.08-2.52-2.36-4.95-.49,1.63-1.07,3.35-1.82,4.94-3.95,0-7.9,0-11.84-.01.24-.65.47-1.29.68-1.93-.94.43-1.43,1.13-1.61,1.93-15.39-.02-30.72-.04-45.98-.07.93-3.53,1.85-7.06,2.78-10.59-5.51,4.14-11.33,8.4-17.76,10.56-5.1,0-10.2-.02-15.29-.03-5.9-2.37-10.6-7.43-10.32-13.66-4.5,4.54-8.99,9.07-13.49,13.61-.92,0-1.84,0-2.76,0-.3-.29-.69-.49-1.19-.56-1.36-.18-2.71.14-4.05.55-2.64,0-5.29-.01-7.93-.02-.32-.86.04-2.04.58-2.9-7.73.21-15.45.42-23.18.64-5.76.16-12.28-6.73-10.75-9.45-8.87,3.85-17.73,7.71-26.6,11.56-16.48-.05-32.86-.1-49.17-.15-6.07-1.25-12.15-2.49-18.22-3.74-7.54.68-15.08,1.36-22.61,2.04l-9.81,1.52c-9.98-.04-19.93-.07-29.84-.11-12.36-2.18-25.11-2.21-37.5-.15-11.47-.05-22.89-.1-34.28-.15-2.16-1.19-4.97-1.12-7.23-.03-.42,0-.84,0-1.26,0l5.14-8.6c-4.82-2.45-10.51.45-15.2,3.14-4.69,2.69-10.72,5.2-15.19,2.16-1.86-1.27-2.18-3.66-1.62-5.77-5.03,2.96-10.07,5.92-15.1,8.87-5.24-.03-10.47-.05-15.68-.08-2.08-3.47-4.16-6.95-6.24-10.42.71,8.42-14.03,11.88-17.14,4.02-2.12,2.11-4.28,4.24-6.54,6.24-13.16-.07-26.25-.14-39.28-.21,0-.03-.02-.05-.03-.07,0,.03-.01.05-.01.07-6.69-.04-13.37-.08-20.02-.11-.2-.84-.25-1.75-.11-2.73-.89.91-1.78,1.81-2.66,2.72-11.27-.07-22.49-.13-33.66-.2.08-4.06.16-8.12.24-12.17-1.8,4.31-3.91,8.92-7.13,12.13-5.27-.03-10.53-.07-15.78-.1-1.21-1.49-1.86-3.26-1.57-5.02-.78,1.76-1.75,3.44-2.9,4.99-2.86-.02-5.72-.04-8.57-.05,1.83-3.86,3.66-7.72,5.49-11.57-3,4.55-6.41,9.39-11.27,11.54-2.85-.02-5.71-.04-8.56-.06-3.64-1.71-6.26-5.33-4.82-9.01-1.19,3.56-3.54,6.66-6.52,8.94-4.1-.03-8.2-.05-12.28-.08.38-5.52.76-11.04,1.14-16.57-2.86,4.41-6.37,9.25-11.58,9.94-4.74.63-9.43-5.26-7.2-8.84-6.18,7.09-14.35,12.4-23.33,15.19-.92,0-1.83-.01-2.75-.02,1.31-5.72,2.61-11.45,3.92-17.17-2.02,5.75-4.62,12.14-10.26,14.45-4.78,1.97-11.28-2.21-11.15-6.66-1.56,3.89-4.56,7.18-8.24,9.19-1.76-.01-3.52-.03-5.27-.04.6-4.1,1.2-8.21,1.8-12.31-3.98,4.55-8.94,9.52-14.96,8.91-3.75-.38-6.22-4.61-6.11-8.01-5.8,5.89-14.57,8.87-22.72,7.32-10.32.8-20.71.68-31.01-.37-3-.31-6.49-1.03-7.78-3.76-.06-.12-.09-.25-.13-.38-2.69,2.04-5.37,4.07-8.06,6.11-6.51-.82-13.03-1.64-19.54-2.45,1.36-5.89,2.72-11.78,4.08-17.67-5.96-.89-10.91,4.41-14.21,9.45-3.3,5.04-6.87,10.88-12.79,12.02-.33.06-.65.09-.98.1-.1,0-.2,0-.3,0-4.73-.15-9.07-5.9-7.11-9.45-4.37,4.4-9.93,7.62-15.91,9.26-2.09-.02-4.17-.04-6.24-.05,1.5-6.38,3-12.76,4.5-19.14-5.33,6.96-12.72,12.32-20.99,15.23-.32-4.05.88-8.17,3.21-11.49-6.8,6.98-15.38,12.21-24.69,15.07-2.16-.02-4.33-.04-6.48-.06.87-4.17,3.19-8.04,6.49-10.74-6.61,3.54-13.22,7.08-19.83,10.62-1.97-.02-3.93-.04-5.88-.05-.32-2.49-1.97-5.1-4.54-5.56-3.73-.67-7.16,1.3-10.16,3.84-.09-2.18-1.29-4.71-3.68-4.83-4.8-.22-8.97,3.9-13.77,3.75-2.68-.08-3.97-3.2-3.86-5.52-3.59,2.62-7.19,5.25-10.78,7.87-.9,0-1.79-.02-2.69-.03-.29-3.31-4.46-6.32-8.13-5.67-3.32.59-5.93,2.88-8.17,5.51-.09,0-.18,0-.27,0,.89-2.42.52-5.3-1.43-6.96-1.94-1.65-5.07-1.18-6.85.45,1.68-3.8,3.36-7.6,5.04-11.4-5.42,3.86-10.84,7.73-16.26,11.59.56,2.05,1.14,4.1,1.74,6.14-.21,0-.41,0-.61,0-.75-1.78-1.5-3.55-2.25-5.33.38-.27.75-.53,1.13-.8-.01-.04-.02-.09-.04-.13l-1.14.82c-1.83-4.32-3.65-8.64-5.48-12.95-2.13,5.83-3.03,12.09-2.71,18.29-54.14-.56-102.51-1.1-147.96-1.64,1.74-1.95,3.47-3.89,5.21-5.84-3.59,2.78-7.81,4.74-12.24,5.75-.85-.01-1.71-.02-2.56-.03.96-6.84,4.1-13.37,8.87-18.36-8.44,6.95-17.59,13.03-27.26,18.15-1.06-.01-2.12-.03-3.19-.04,3.03-4.57,6.06-9.15,9.09-13.72-6.05,5.29-12.74,9.85-19.85,13.59-2.88-.03-5.75-.07-8.62-.1.99-2.84,2.42-5.51,4.19-7.94-2.6,2.77-5.34,5.41-8.22,7.89-1.94-.02-3.88-.05-5.81-.07.35-.62.73-1.23,1.12-1.83-1.4.82-2.93,1.43-4.51,1.78-.36,0-.72,0-1.08-.01.19-3.63,1.73-7.17,4.27-9.77-3.83,3.6-8.01,6.83-12.44,9.67-2.17-.03-4.34-.05-6.51-.08,2.39-3.48,5.21-6.66,8.42-9.41-4.72,3.72-9.89,6.85-15.36,9.33-.38,0-.75,0-1.13-.01.13-3.39,1.45-6.7,3.63-9.3-3.84,3.38-7.95,6.46-12.28,9.19-1.29-.02-2.57-.03-3.86-.05,1.13-2.8,2.53-5.5,4.18-8.04-3.67,3.32-7.9,6.03-12.46,7.94-2.17-.03-4.35-.05-6.52-.08.63-3.13,2.2-6.05,4.42-8.35-4.88,3.29-10.12,6.06-15.61,8.21l-3.5-.04c.72-4.3,2.62-8.4,5.46-11.71-4.32,4.37-9.13,8.25-14.28,11.61-3.53-.04-7.06-.09-10.59-.13.68-4.71,2.3-9.28,4.82-13.32-3.21,5.28-7.62,9.82-12.78,13.22-1.93-.02-3.87-.05-5.8-.07.98-1.78,1.96-3.56,2.94-5.34-1.25,1.89-2.67,3.68-4.23,5.33-3.98-.05-7.96-.09-11.95-.14,3.23-1.84,6.67-3.37,5.07-6.12l-7.43,6.09c-53.54-.63-108.64-1.25-170.86-1.86,2.06-3.64,3.84-7.44,5.31-11.38-4.27,3.35-8.53,6.71-12.8,10.06,1.87-1.9-.68-5.35-3.34-5.23-2.66.12-4.73,2.26-6.5,4.24.9-2.98,1.8-5.96,2.7-8.95-7.16,2.92-14.02,6.6-20.43,10.92-.74,0-1.48-.01-2.21-.02,1.81-2.77,3.61-5.55,5.42-8.32-7.05,2.73-14.09,5.45-21.14,8.18-5.56-.05-11.19-.1-16.88-.15-.22-1.11-.6-2.19-1.21-3.16-1.81,1.03-3.63,2.06-5.44,3.1-3.61-.03-7.25-.06-10.91-.09l-.22-3.11c-1.06,1.32-2.45,2.37-3.99,3.07-.82,0-1.65-.01-2.47-.02.57-4.19,2.77-8.15,6.07-10.8-4.58,3.58-9.16,7.15-13.75,10.73-.98,0-1.97-.02-2.96-.02.92-2.92,2.37-5.67,4.26-8.07-4.21,2.67-8.42,5.33-12.64,8-.8,0-1.61-.01-2.41-.02.48-2.67.95-5.34,1.43-8-3.92,2.9-8.03,5.54-12.29,7.92-2.94-.02-5.89-.05-8.87-.07.33-2.21,1.31-4.33,2.86-5.94-3.26,1.96-6.51,3.92-9.77,5.88-2.98-.02-5.97-.05-8.98-.07.77-2.46,1.54-4.93,2.31-7.39-1.29,1.35-2.6,2.69-3.91,4.03-1.7.01-3.06,1.7-3.95,3.32-29.66-.23-61.05-.45-94.48-.68.87-3.56,1.75-7.12,2.62-10.68-5.17,3.44-11.7,4.76-17.8,3.6.7-4.22,1.41-8.45,2.11-12.67-7.08,7.19-16.07,12.48-25.79,15.19,1.93-4.7,3.86-9.41,5.8-14.11-6.89,3.55-13.79,7.1-20.68,10.65-3.52,2.44-7.45,4.99-11.71,4.58-3.45-.33-6.59-3.76-6.34-6.9-1.55,4.02-3.66,8.02-7.28,9.84-.19,0-.37,0-.56,0-1.82-.01-3.62-.02-5.43-.03-1.82-.97-3.3-2.67-3.77-4.41-.95,1.77-2.41,3.27-4.14,4.36-1.01,0-2.03-.01-3.04-.02-1.67-1.86-3.82-3.37-6.12-4.31.59-2.94,1.19-5.88,1.78-8.81-2.86,2.65-5.72,5.29-8.58,7.94-1.93.35-3.73,1.27-5.2,2.94-.61.69-1.16,1.45-1.78,2.14-2.49-.01-4.97-.03-7.45-.04-2.21-2.27-3.19-6.01-.52-8.03-4.79,2.65-9.59,5.3-14.38,7.95-2.12-.01-4.24-.02-6.35-.04-.32-1.01-.38-2.21-.17-3.22-1.81,1.06-3.62,2.12-5.43,3.19-3.04-.02-6.09-.03-9.12-.05.54-1.88,1.08-3.77,1.62-5.65-6.46,1.85-12.93,3.71-19.39,5.56-3.36-.02-6.7-.03-10.04-.05-.21-4.77-.43-9.55-.64-14.32-1.57,3.72-3.43,7.69-6.43,10.19-.33-.32-.68-.61-1.06-.87-1.29-2-3.02-3.64-5.01-4.57-.37-3.44-.59-6.89-.65-10.34-.02-1.23-.12-2.66-1.12-3.38-2.99,4.7-6,9.49-7.55,14.84-.79,2.73-1.17,5.52-1.35,8.34-.76,0-1.53,0-2.29-.01-.29-2.88.54-5.69,2.98-7.74-4.38,2.56-8.75,5.12-13.13,7.69-1.15,0-2.31-.01-3.46-.02,1.56-1.99,3.12-3.98,4.69-5.97-2.26,2.11-4.64,4.09-7.1,5.96-4.87-.02-9.72-.05-14.56-.07,1.41-1.94,3-3.75,4.77-5.37-3.24,1.78-6.49,3.57-9.73,5.35-5.25-.02-10.48-.05-15.69-.07,1-2,2-3.99,3-5.99-2.57,1.99-5.14,3.98-7.71,5.96-3.58-.02-7.14-.03-10.71-.05-1.16-.72-2.52-1.1-3.85-.86-.85.15-1.63.45-2.37.83-1.62,0-3.22-.01-4.84-.02,1.19-2.85,2.87-5.49,4.93-7.79-3.23,2.59-6.46,5.18-9.69,7.77-3.2-.01-6.4-.03-9.59-.04-.77-.48-1.64-.73-2.57-.59-.68.1-1.31.31-1.91.57-4.43-.02-8.84-.03-13.24-.05,1.31-2.46,2.62-4.91,3.93-7.37-4.88-.61-8.19,4.1-12.14,7.34-3.06-.01-6.1-.02-9.14-.03-.66-.65-1.19-1.36-1.51-2.06-.44.71-.92,1.4-1.42,2.05-4.2-.01-8.39-.03-12.57-.04-.35-1.2-.33-2.41.21-3.31-1.54,1.1-3.08,2.19-4.63,3.29-6.11-.02-12.19-.04-18.25-.06,1.08-2.86,2.48-5.61,4.19-8.15-4.44,2.71-8.88,5.41-13.32,8.12-.34,0-.68,0-1.03,0,.18-3.68,1.15-7.31,2.81-10.59-3.02,4.01-6.61,7.58-10.64,10.57-1.71,0-3.42,0-5.13-.01,3.79-7.14,7.58-14.29,11.37-21.43-6.56,7.6-13.64,14.74-21.15,21.4-1.01,0-2.02,0-3.03,0-.35-.82-.7-1.65-1.02-2.48l-1.96,2.48c-15.77-.04-31.38-.07-46.85-.1,2.79-2.66,5.47-5.44,8.04-8.22-7.96-1.52-16.41-.33-23.64,3.33-4.18-1.38-8.35-2.76-12.53-4.14-1.93,2.47-4.65,4.3-7.66,5.16-1.94-2.52-1.97-6.33-.07-8.87-4.04,4.14-9.62,6.75-15.39,7.19-.03-2.45,1.28-4.84,3.28-6.23-4.57,2.62-9.13,5.23-13.7,7.85-.06-3.83-.12-7.67-.17-11.5-1.51,2.2-3.02,4.41-4.52,6.61-.14-.05-.28-.11-.44-.14-.02,0-.03,0-.05,0,.08-.61.17-1.22.31-1.84l-1.09,1.87c-1.31.24-2.39,1.51-3.09,2.74-1.09,1.91-1.91,3.98-2.43,6.11-7.44,0-14.85,0-22.23-.01.56-.56,1.14-1.11,1.69-1.7,2.07-2.21,3.97-5.92,1.71-7.94-4-3.58-11.4,5.97-14.61,1.68,1.11-2.61,1.16-5.66.13-8.3-10.29,6.01-22.51,8.68-34.38,7.49.81-2.1,1.62-4.2,2.42-6.3-5.28,2.76-10.56,5.52-15.83,8.28,1.51-2.02,3.08-4.71,1.81-6.89-.68-1.17-2.3-.99-3.34-.33.46-2.25.92-4.5,1.38-6.75-3.36,3.08-6.73,6.16-10.09,9.23.88-3.09,1.77-6.17,2.65-9.26-4.44,2.98-8.88,5.97-13.32,8.95,1.17-3.55,2.34-7.1,3.51-10.66-4.11-.59-6.53,4.26-9.42,7.24-2.9,2.98-10.28,1.18-8.08-2.35-5.57,6.53-14.12,10.42-22.7,10.34-.38-3.79-.76-7.58-1.13-11.36-5.68,4.64-11.52,9.38-18.46,11.74-6.94,2.36-15.34,1.89-20.73-3.08-4.49,4.39-9.86,7.88-15.7,10.18h-.02c-.98-3-1.17-6.25-.56-9.34-3.31,2.42-6.61,4.85-9.92,7.27.44.71.91,1.41,1.4,2.09-1.43,0-2.85,0-4.28.01.96-.7,1.92-1.41,2.88-2.11-1.63-2.65-2.9-5.5-3.66-8.55l-4.98,10.68c-39,.13-77.36.32-115.31.55,4.65-5.71,7.69-12.38,7.43-19.68-6.84,5.94-14.37,11.07-22.4,15.25-.17-3.07-.35-6.14-.52-9.2-7.88,8.17-20.18,11.79-31.23,9.19.67-3.97,1.34-7.94,2.01-11.91-4.15,4.52-9.33,8.1-15.02,10.38-.34-3.13.38-6.34,1.92-9.08-2.8,3.52-5.97,6.74-9.46,9.58-1.38,1.12-3.14,2.24-4.81,1.65-.83-.29-1.24-1.24-1.23-2.1-2.7,2.7-6.49,4.3-10.31,4.24.4-2.65.81-5.29,1.21-7.94-5,1.94-10,3.88-15.01,5.81-1.48-3.37-.4-7.68,2.49-9.96-5.88,2.53-11.75,5.05-17.63,7.58-.4-6.03,1.76-12.14,5.68-16.72-7.52,6.86-15.36,13.35-23.54,19.41-.9-4.56.8-9.54,4.3-12.6-6.95,6.04-14.63,11.23-22.83,15.42.67-4.33,1.34-8.66,2-12.99-5.11,4.72-11.14,8.44-17.66,10.88-1.73.65-3.74,1.19-5.35.28-1.43-.81-1.72-3.25-.5-4.06-4.88,2.09-9.75,4.19-14.63,6.28-.5.57-.95,1.18-1.36,1.82-.99.01-1.97.02-2.96.03,1.44-.62,2.88-1.24,4.32-1.85.23-.27.48-.53.73-.77.11-.1.22-.19.33-.29l-5.69,2.92c-38.11.41-76.12.88-114.26,1.4.11-2.09-.01-4.21-.42-6.32-3.71,2.24-7.48,4.39-11.28,6.49-7.48.1-14.96.21-22.45.32.22-.55.48-1.07.78-1.55,2.15-3.34,5.56-6.27,5.75-10.24-5.08,4.28-10.4,8.26-15.94,11.92-2.09.03-4.18.06-6.28.09,1.07-2.06,2.15-4.13,3.22-6.19-1.87,2.21-3.89,4.29-6.04,6.23-3.93.06-7.86.12-11.8.18.79-1.16,1.7-2.23,2.71-3.2-1.57,1.1-3.16,2.18-4.75,3.24-5.88.09-11.76.18-17.65.27,1.27-2.78,3.12-5.29,5.45-7.26-3.66,2.45-7.32,4.9-10.98,7.35-3.82.06-7.66.12-11.49.18,1.55-4.66,3.96-9.03,7.09-12.82-4.65,5.14-10.12,9.51-16.13,12.96-2.72.04-5.44.09-8.16.13,2.03-5.58,4.95-10.85,8.64-15.5-7.38,6.06-15.39,11.34-23.85,15.76-3.14.05-6.26.11-9.38.16-.2-3.33,2.54-7.46,5.49-9.87,4.13-3.39,9.09-8.68,6.21-13.18-11.69,10.62-25.67,18.7-40.7,23.56-1.24.02-2.48.04-3.72.07,1.98-3.76,3.96-7.52,5.94-11.29-5.94,4.76-12.57,8.65-19.61,11.53-.28,0-.56.01-.84.02.61-4.06,1.22-8.12,1.83-12.18-4.81,2.95-9.61,5.91-14.42,8.86-.78,1.2-1.56,2.4-2.33,3.6-1.21.02-2.42.04-3.63.07,1.99-1.22,3.98-2.44,5.97-3.67,1.4-2.16,2.8-4.32,4.2-6.48l-13.1,10.2c-21.89.41-43.11.82-63.61,1.23.31-1.18.6-2.35.89-3.52-2.94.84-5.75,2.09-8.37,3.67-3.85.08-7.68.16-11.48.23-.06-.38-.11-.76-.14-1.14-2.55.43-5.11.86-7.66,1.3-.52.01-1.04.02-1.56.03.76-3.34-1.89-7.08-5.32-7.38.76-3.21,1.52-6.41,2.29-9.62-8.82-.17-15.57,7.35-23.22,11.73-7.65,4.39-20.81,2.89-21.15-5.92-5.05,4.01-11.34,6.42-17.78,6.81,1.11-3.11,2.22-6.22,3.33-9.33-5.58,2.07-10.82,5.09-15.42,8.87-1-2.13-.17-4.94,1.83-6.19-3.77,2.28-7.55,4.57-11.32,6.85-.25-3.21-.49-6.42-.74-9.63-6.85,3.96-13.7,7.92-20.54,11.89,1.51-2.83,2.22-6.08,2.02-9.29-4.2,3.89-8.39,7.77-12.59,11.66,2.49-4.76,4.98-9.53,7.48-14.29-3.53,3.58-8.24,5.97-13.21,6.71,1.7-5.36,4.65-10.33,8.53-14.39-6.04,5.1-12.08,10.21-18.13,15.31.29-2.34.59-4.69.88-7.03-2.39,3.1-4.79,6.19-7.18,9.29-.74,2.41-2.09,4.83-3.17,7.17-.81.02-1.62.04-2.42.06,1.86-2.41,3.73-4.82,5.59-7.23.56-1.82.77-3.64.25-5.41l-7.11,12.67c-19.57.47-33.82,8.85-54.32,9.35v1080h3840c.33-375-.33-705,0-1080ZM1773.51,1061.71c.19-.61.26-1.25.22-1.89.38.58.52,1.22.48,1.9-.23,0-.46,0-.7,0ZM2098.65,1064.91c-.1,0-.2,0-.3,0,.21-.23.43-.46.64-.7-.11.23-.23.47-.34.7Z"/>
      <path class="cls-4" d="M1163.37,1047.11c.4-.23.79-.45,1.19-.68-.42.18-.81.42-1.19.68Z"/>
    </g>
    <g>
      <path class="cls-3" d="M3196.23,1592.86c.51-.43,1.02-.86,1.52-1.31-.53.4-1.03.85-1.52,1.31Z"/>
      <path class="cls-3" d="M3010.47,1598.73c.94-1.14,1.79-2.35,2.52-3.63-.84,1.21-1.68,2.42-2.52,3.63Z"/>
      <path class="cls-3" d="M3256.56,1596.58c2.09-1.57,4.06-3.3,5.89-5.18-2.44,1.06-4.48,2.92-5.89,5.18Z"/>
      <path class="cls-3" d="M3092.69,1593.36c2.52-2.77,4.92-5.65,7.18-8.64-3.03,2.27-5.47,5.27-7.18,8.64Z"/>
      <path class="cls-3" d="M2890.67,1604.4c6.16-3.86,11.93-8.36,17.15-13.42-6.39,3.51-12.19,8.08-17.15,13.42Z"/>
      <path class="cls-3" d="M2930.54,1597.37c1.55-1.33,3.08-2.69,4.59-4.08-1.58,1.3-3.1,2.67-4.59,4.08Z"/>
      <path class="cls-3" d="M2910.25,1607.25c4.65-2.65,9.12-5.6,13.37-8.85-4.75,2.47-9.23,5.45-13.37,8.85Z"/>
      <path class="cls-3" d="M2999.96,1597.75c.84-.85,1.66-1.73,2.41-2.66-.89.8-1.69,1.7-2.41,2.66Z"/>
      <path class="cls-3" d="M2985.81,1604.76c1.8-1.86,3.38-3.94,4.65-6.2-2.31,1.32-4,3.63-4.65,6.2Z"/>
      <path class="cls-3" d="M1967.18,1599.46c.28-.2.55-.4.83-.6-.38.11-.65.33-.83.6Z"/>
      <path class="cls-3" d="M1954.63,1584.08c1.95-2.68,3.9-5.36,5.85-8.03-2.1,2.56-4.05,5.25-5.85,8.03Z"/>
      <path class="cls-3" d="M3774.85,1599.45c.75-.71,1.5-1.41,2.25-2.12-1.35-.27-2.11.81-2.25,2.12Z"/>
      <path class="cls-3" d="M3493.03,1603.04c.66-.99,1.24-2.03,1.74-3.12-1.68-.05-2.13,1.56-1.74,3.12Z"/>
      <path class="cls-3" d="M3474.79,1591.22c-1.7,1.24-3.2,2.73-4.48,4.41,1.57-1.39,3.07-2.86,4.48-4.41Z"/>
      <path class="cls-3" d="M3422.02,1599.92c1.35-1.44,2.44-3.12,3.13-4.97-1.45,1.36-2.51,3.09-3.13,4.97Z"/>
      <path class="cls-3" d="M3736.13,1597.33c.7-.39,1.39-.79,2.06-1.21-1.05-.4-1.76.25-2.06,1.21Z"/>
      <path class="cls-3" d="M3678.28,1599.01c.67-.23,1.34-.47,2.01-.7-.69.16-1.36.41-2.01.7Z"/>
      <path class="cls-3" d="M3539.09,1600.97s.02.02.03.03c1.22-.86,2.41-1.78,3.54-2.76.99-3.61-6.38.27-3.57,2.73Z"/>
      <path class="cls-3" d="M2451.95,1602.44c2.89-2.27,5.66-4.71,8.26-7.3-2.9,2.26-5.65,4.71-8.26,7.3Z"/>
      <path class="cls-3" d="M2890.29,1587.61c-4.38,3-8.36,6.58-11.82,10.6,4.2-3.23,8.16-6.77,11.82-10.6Z"/>
      <path class="cls-3" d="M2518.46,1585.79c-5.21,4.21-10.17,8.73-14.84,13.52,5.22-4.19,10.19-8.71,14.84-13.52Z"/>
      <path class="cls-3" d="M2481.77,1599.37c6.42-4.67,12.74-9.49,18.94-14.47-6.83,4.09-13.19,8.96-18.94,14.47Z"/>
      <path class="cls-3" d="M2528.72,1591.39c-6.38,5.11-12.16,10.96-17.22,17.38,6.07-5.46,11.82-11.26,17.22-17.38Z"/>
      <path class="cls-3" d="M2216.71,1609.02c2.68-3.48,5.2-7.09,7.51-10.83-2.63,3.52-5.13,7.13-7.51,10.83Z"/>
      <path class="cls-3" d="M2235.65,1606.7c5.25-5.94,10.5-11.88,15.75-17.82-5.69,5.53-10.95,11.5-15.75,17.82Z"/>
      <path class="cls-3" d="M2290.62,1597.61c3.69-3.44,7.33-6.92,10.93-10.45-4.08,2.99-7.75,6.52-10.93,10.45Z"/>
      <path class="cls-3" d="M1940.17,1592.75c5.34-8.64,10.69-17.28,16.03-25.92-6.14,8.12-11.5,16.81-16.03,25.92Z"/>
      <path class="cls-3" d="M2268.16,1606.26c4.53-4.79,8.85-9.79,12.91-14.98-4.69,4.64-9.01,9.66-12.91,14.98Z"/>
      <path class="cls-3" d="M2456.84,1610c5.23-3.43,10.2-7.25,14.83-11.46-5.4,3.17-10.39,7.04-14.83,11.46Z"/>
      <path class="cls-3" d="M2697.09,1608.55c.64-.79,1.08-1.72,1.22-2.73-.41.91-.81,1.82-1.22,2.73Z"/>
      <path class="cls-3" d="M2702.83,1608.35c.66-.83,1.19-1.77,1.52-2.78-.93.6-1.46,1.68-1.52,2.78Z"/>
      <path class="cls-3" d="M2692.55,1609.72c2.11-3.49,3.68-7.32,4.54-11.31-2.04,3.53-3.57,7.35-4.54,11.31Z"/>
      <path class="cls-3" d="M2856.62,1607.51c6.47-3.18,12.45-7.34,17.65-12.34-6.44,3.23-12.4,7.41-17.65,12.34Z"/>
      <path class="cls-3" d="M2532.04,1606.8c5.92-4.69,11.63-9.64,17.1-14.85-6.32,4.17-12.07,9.19-17.1,14.85Z"/>
      <path class="cls-3" d="M2564.12,1596.36c3.34-2.93,6.6-5.96,9.75-9.1-3.4,2.86-6.65,5.9-9.75,9.1Z"/>
      <path class="cls-3" d="M2611.5,1607.53c.74-.53,1.48-1.06,2.21-1.6-.77.49-1.5,1.03-2.21,1.6Z"/>
      <path class="cls-3" d="M2598.08,1601.54c1.22-.97,2.43-1.95,3.63-2.95-1.26.92-2.47,1.91-3.63,2.95Z"/>
      <path class="cls-3" d="M1318.69,1601.49c.24-.15.49-.3.73-.44-.33.06-.57.22-.73.44Z"/>
      <path class="cls-3" d="M1196.26,1593.26c1.61-1.25,3.19-2.54,4.73-3.88-1.68,1.16-3.25,2.47-4.73,3.88Z"/>
      <path class="cls-3" d="M1215.16,1595.35c2.42-1.69,4.74-3.52,6.94-5.49-2.63,1.37-4.99,3.25-6.94,5.49Z"/>
      <path class="cls-3" d="M1291.75,1591.52c1.15-.68,2.29-1.39,3.41-2.12-1.21.59-2.34,1.31-3.41,2.12Z"/>
      <path class="cls-3" d="M1022.69,1593.64c1.01-.67,2.03-1.33,3.04-2-1.16.4-2.2,1.11-3.04,2Z"/>
      <path class="cls-3" d="M1010.03,1597.44c.3-.13.59-.26.89-.39-.4-.06-.7.11-.89.39Z"/>
      <path class="cls-3" d="M1119.05,1606.72c.43-.21.86-.43,1.3-.64-.6-.54-1.1-.05-1.3.64Z"/>
      <path class="cls-3" d="M1483.64,1593.25c-1.72,1.31-3.35,2.74-4.88,4.27,1.81-1.19,3.47-2.62,4.88-4.27Z"/>
      <path class="cls-3" d="M1482.01,1603.56c.31-.38.6-.77.85-1.19-.59-.94-1.05.28-.85,1.19Z"/>
      <path class="cls-3" d="M1324.86,1601.8c-1.54.67-2.88,1.69-3.99,2.94,1.63-.17,2.94-1.6,3.99-2.94Z"/>
      <path class="cls-3" d="M1003.59,1596.02c1.43-.94,2.77-1.99,4.02-3.16-1.56.73-2.92,1.83-4.02,3.16Z"/>
      <path class="cls-3" d="M575.64,1599.06c1.77-1.19,3.47-2.5,5.05-3.93-1.91.98-3.62,2.33-5.05,3.93Z"/>
      <path class="cls-3" d="M581.98,1600.16c1.72-2.02,3.2-4.23,4.4-6.59-1.87,1.89-3.35,4.15-4.4,6.59Z"/>
      <path class="cls-3" d="M569.88,1596.43c.71-.54,1.42-1.08,2.11-1.64-.73.5-1.43,1.06-2.11,1.64Z"/>
      <path class="cls-3" d="M953,1591.2c-5.6,1.43-10.59,5.13-13.6,10.06.99-.38,1.98-.79,2.96-1.2,3.91-2.48,7.51-5.45,10.64-8.86Z"/>
      <path class="cls-3" d="M996.98,1586.24c-1.89,1.21-3.56,2.76-4.95,4.53,1.9-1.2,3.6-2.72,4.95-4.53Z"/>
      <path class="cls-3" d="M937.97,1595.56c.96-.78,1.91-1.56,2.86-2.36-1.01.72-1.96,1.51-2.86,2.36Z"/>
      <path class="cls-3" d="M1007.54,1588.08c-2.95,1.46-5.51,3.65-7.47,6.28,2.84-1.63,5.39-3.76,7.47-6.28Z"/>
      <path class="cls-3" d="M964.8,1584.99c-1.25.89-2.65,2.08-2.5,3.6,3.88-2.91,7.54-6.1,10.93-9.57-2.81,1.99-5.62,3.98-8.43,5.97Z"/>
      <path class="cls-3" d="M849.91,1600.24c.39-.21.78-.42,1.17-.64-.55-.09-.94.2-1.17.64Z"/>
      <path class="cls-3" d="M868.4,1602.87c1.31-.69,2.59-1.46,3.79-2.32-1.54.11-2.93,1.05-3.79,2.32Z"/>
      <path class="cls-3" d="M878.21,1601.88c.61-.47,1.19-.96,1.73-1.51-.09-1.56-2.75.38-1.73,1.51Z"/>
      <path class="cls-3" d="M1854.28,1602.43c4.48-8.03,8.28-16.44,11.32-25.13-5.08,7.7-8.9,16.22-11.32,25.13Z"/>
      <path class="cls-3" d="M1850.79,1597.24c6.79-10.41,13.22-21.04,19.27-31.89-8.1,9.49-14.61,20.32-19.27,31.89Z"/>
      <path class="cls-3" d="M1868.89,1593.94c5.49-8.86,10.98-17.72,16.47-26.58-6.05,8.5-11.55,17.38-16.47,26.58Z"/>
      <path class="cls-3" d="M1822.21,1606.48c4.7-5.91,9-12.14,12.83-18.65-6.12,4.64-10.67,11.29-12.83,18.65Z"/>
      <path class="cls-3" d="M1850.59,1579.94c3.77-6.47,7.27-13.09,10.48-19.85-3.84,6.42-7.34,13.05-10.48,19.85Z"/>
      <path class="cls-3" d="M1827.1,1602.87c4.02-4.36,7.49-9.22,10.29-14.44-3.43,4.81-6.86,9.63-10.29,14.44Z"/>
      <path class="cls-3" d="M1832.87,1601.94c5.17-5.09,9.46-11.08,12.55-17.65-5.41,4.87-9.71,10.95-12.55,17.65Z"/>
      <path class="cls-3" d="M1884.43,1586.88c4.54-5.82,9.08-11.63,13.61-17.45-5.17,5.29-9.72,11.16-13.61,17.45Z"/>
      <path class="cls-3" d="M1928.48,1603.58c3.14-5.17,6.29-10.34,9.43-15.51-3.61,4.87-6.77,10.07-9.43,15.51Z"/>
      <path class="cls-3" d="M1904.27,1591.73c4.09-5.74,7.9-11.68,11.42-17.79-4.23,5.64-8.04,11.59-11.42,17.79Z"/>
      <path class="cls-3" d="M1882.42,1607.91c3.98-7.66,6.95-15.85,8.76-24.29-5.97,6.51-9.15,15.48-8.76,24.29Z"/>
      <path class="cls-3" d="M1884.44,1609.83c8.64-9.84,16.12-20.69,22.2-32.29-9.73,8.88-17.36,20.04-22.2,32.29Z"/>
      <path class="cls-3" d="M1595.85,1606.39c.47-.12.9-.35,1.24-.72-.46.15-.88.41-1.24.72Z"/>
      <path class="cls-3" d="M1721.03,1607.1c4.23-4.35,7.75-9.4,10.3-14.91-4.39,4.21-7.9,9.32-10.3,14.91Z"/>
      <path class="cls-3" d="M1800.3,1606.91c8.12-12.8,16.23-25.61,24.35-38.41-10.73,10.87-19.07,24.08-24.35,38.41Z"/>
      <path class="cls-3" d="M1706.29,1582.16c-4.61,3.76-8.66,8.2-12,13.12,4.28-4.11,8.3-8.49,12-13.12Z"/>
      <path class="cls-3" d="M1692.86,1587.91c-4.43,3.45-8.36,7.53-11.69,12.04,4.37-3.52,8.31-7.56,11.69-12.04Z"/>
      <path class="cls-3" d="M1733.7,1600.04c1.9-2.06,3.68-4.23,5.31-6.52-1.95,2.02-3.72,4.21-5.31,6.52Z"/>
      <path class="cls-3" d="M1794.06,1589.28c5.35-7.29,9.71-15.31,12.87-23.78-4.7,7.7-8.98,15.64-12.87,23.78Z"/>
      <path class="cls-3" d="M1807.7,1586.26c3.94-6,7.88-11.99,11.82-17.99-4.38,5.69-8.32,11.71-11.82,17.99Z"/>
      <path class="cls-3" d="M1777.7,1590.54c-4.49,2.83-8.31,6.7-11.14,11.19,4.09-3.33,7.84-7.07,11.14-11.19Z"/>
      <path class="cls-3" d="M1746.71,1601.59c-2.86,2.19-5.11,5.16-6.5,8.48,3.06-1.96,5.46-4.99,6.5-8.48Z"/>
      <path class="cls-3" d="M1749.27,1608.18c2.93-1.95,5.69-4.16,8.23-6.6-3.19,1.55-6.01,3.83-8.23,6.6Z"/>
      <path class="cls-3" d="M480.6,1581.04c.98-.68,1.95-1.38,2.9-2.12-1.01.65-1.97,1.36-2.9,2.12Z"/>
      <path class="cls-3" d="M424.62,1581.11c.78-.49,1.57-.97,2.35-1.46-.81.44-1.59.93-2.35,1.46Z"/>
      <path class="cls-3" d="M3828.09,1601.19c-.05-1.65-.1-3.29-.15-4.94-1.57,2.02-5.46,1.02-5.87-1.5-4.45,2.02-8.89,4.03-13.34,6.05-4.64,1.59-9.28,3.17-13.93,4.76,1.87-1.81.93-5.55-1.58-6.25,2.76-3.94,5.52-7.89,8.27-11.83-5.7,4.32-11.39,8.64-17.09,12.96-2.27,1.72-5.08,3.54-7.76,2.56-1.38-.5-1.96-2.15-1.81-3.54-2.06,1.94-4.12,3.89-6.19,5.83,1.02-2.14-1.82-5.94-4.73-5.23-2.87.7-4.53,3.42-5.71,6.24-.09-1.92-2.18-3.99-4.34-3.89-2.93.14-5.19,2.5-7.12,4.7.4-3.57,2.67-6.88,5.85-8.55-1.76-2.07-5.15-1.12-7.47.3-2.32,1.43-4.94,3.25-7.52,2.37-1.52-.52-1.93-2.52-1.49-3.89-5.07,2.83-10.63,4.78-16.36,5.72,2.49-2.42,4.99-4.84,7.48-7.27-6.7,2.16-13.39,4.31-20.09,6.47,2.17-2.05,4.33-4.11,6.5-6.16-7.43,2.23-14.86,4.46-22.3,6.7,0,0,0-.02,0-.03-.33-1.42-2.09-1.91-3.55-2-5.83-.36-11.76,1.56-16.28,5.25,1.18-3.12,3.7-5.67,6.75-7-7.18,2.49-14.36,4.99-21.54,7.48,3.25-3.09,6.5-6.18,9.76-9.27-8.69.29-17.33,1.92-25.53,4.8,2.56-1.42,5.12-2.84,7.68-4.27-10.78,3.47-21.56,6.93-32.34,10.4,4.34-4.04,8.69-8.07,13.03-12.11-9.58,2.44-19.15,4.89-28.73,7.33,3.76-3.43,7.52-6.87,11.29-10.3-8.59,2.76-17.19,5.52-25.78,8.28,4.71-3.84,9.41-7.68,14.12-11.52-11.55,6.97-24,12.44-36.95,16.21,4.01-3.1,8.01-6.19,12.02-9.29-9.41,3.7-18.81,7.41-28.22,11.11,3.95-4.05,7.89-8.11,11.84-12.16-2.96-2.28-7.11.33-9.92,2.8-2.8,2.46-7.07,4.91-9.89,2.49-6.65,4.68-14.56,7.57-22.67,8.18,3.12-3.55,6.24-7.1,9.36-10.65-6.71,4.43-13.99,7.98-21.59,10.59-1.92-.02-3.84-.04-5.74-.06,1.99-6.19,6.21-11.65,11.75-15.06-3.24-.23-5.58,2.93-7.19,5.76-1.6,2.82-3.73,6.06-6.97,6.13-1.57.03-2.68-1.38-3.04-2.83-1.49,2.26-3.36,4.25-5.51,5.89-2.09-.02-4.16-.04-6.22-.07,5.3-8.27,10.6-16.54,15.9-24.81-6.87,11.27-18.43,19.58-31.3,22.51.44-3.96,2.01-7.78,4.43-10.95-6.66,5.92-14.64,10.34-23.19,12.85-1.66-.02-3.31-.04-4.95-.06,9.3-12.92,19.74-25.02,31.2-36.08-15.85,13.39-33.19,25.03-51.58,34.62-.64-2.3-.52-4.77.23-7.03-3.12,3.33-7.68,5.34-12.25,5.11,6.45-8.74,12.89-17.48,19.34-26.22-11.96,8.33-22.91,18.1-32.58,29-6.04-.08-11.87-.17-17.48-.25,2.06-3.24,4.37-6.58,6.6-8.91-5.57,3.66-12.05,7.47-18.56,7.85,1.35-1.74,2.56-3.46,4.03-5.22-2.99,2.19-6.14,4.35-9.38,6.03-2.16-.03-4.29-.06-6.37-.09.61-2.26,1.17-4.91,2.28-6.95-4.11,3.23-9.99,4.18-14.22,6.37,1.31-3.46-.78-4.26,3.02-8.83-4.96,2.68-10.42,5.92-15.49,9.04-.51,0-1.01-.02-1.52-.02,1.05-1.63,2.02-3.33,3.15-4.9-1.37,1.84-2.96,3.48-4.67,4.88-2.61-.04-5.13-.08-7.55-.11.91-1.67,1.93-3.36,3.48-5.06-2.73,1.44-5.17,3.27-7.61,4.99-3.27-.05-6.34-.09-9.22-.13-.55,0-1.09-.01-1.64-.02.18-1.52.49-3.08,1.22-4.58-.72,1.07-1.79,2.74-2.98,4.55-9.66-.13-19.16-.25-28.52-.36,1.22-6.32,4.07-12.31,8.24-17.22-8.67,6.36-18.45,11.2-28.76,14.24.06-2.31.79-4.57,2.01-6.54-5.8,4.37-12.51,7.52-19.58,9.16-.39,0-.78,0-1.17,0,1.12-4.72,3.37-9.17,6.52-12.86-3.5,4.51-8.87,7.53-14.55,8.18,1.42-3.65,3.64-6.99,6.46-9.72-5.62,3.9-11.24,7.8-16.86,11.69,1.61-2.85,3.21-5.69,4.82-8.54-5.46,4.67-11.7,8.42-18.38,11.07-.99,0-1.97,0-2.96-.01,1.99-5.37,5.28-10.25,9.54-14.07-6.42,3.44-12.84,6.88-19.26,10.33.75-3.4,2.56-6.54,5.07-8.94-5.8,4.93-12.43,8.89-19.54,11.63,1.16-5.89,3.52-11.54,6.91-16.5-7.39,6.86-16.2,12.19-25.7,15.54,3.38-7.12,6.77-14.24,10.15-21.36-9.48,7.04-19.6,13.23-30.18,18.47-1.08.53-2.35,1.06-3.44.57-2.04-.92-1.34-3.97-.31-5.96,2.87-5.56,5.74-11.13,8.61-16.69-10.76,7.85-21.52,15.7-32.28,23.56.09-7.3,2.21-14.57,6.05-20.79-6.71,9.78-15.92,17.83-26.5,23.19-.01-3.87.95-7.71,2.69-11.16-4.1,4.5-8.53,8.68-13.26,12.51-.16,0-.33,0-.49,0,.81-1.61,1.61-3.23,2.42-4.84-1.2,1.71-2.53,3.34-3.97,4.85-2.66.02-5.31.05-7.96.07-16.86.16-33.58.35-50.3.57,1.99-3.4,3.99-6.81,5.98-10.21-2.4.89-4.8,1.78-7.2,2.67.49-2.1,1.98-3.93,3.94-4.83-4.27,2.21-8.54,4.41-12.81,6.62.47-.68.94-1.36,1.41-2.04-2.98,3.61-6.92,6.43-11.31,8.07-.95.01-1.89.03-2.84.04.4-3.28,1.67-6.44,3.64-9.09-4.03,4.08-9.02,7.21-14.46,9.03.02-.68.14-1.36.31-2.02-.78.8-1.6,1.56-2.45,2.27-2.91.04-5.82.09-8.74.13,1.92-2.14,3.78-4.34,5.51-6.64-2.32,1.79-4.23,4.07-5.64,6.64-7.9.12-15.83.25-23.79.38,4.57-3.87,8.82-8.12,12.69-12.69-4.99,3.79-9.62,8.05-13.81,12.71-4.23.07-8.48.14-12.74.21,4.96-4.42,9.55-9.26,13.69-14.46-4.98,4.44-9.6,9.29-13.82,14.46-5.23.09-10.48.18-15.75.27,2.9-3.81,6.11-7.38,9.58-10.67-4.43,3.81-9.06,7.4-13.86,10.75-2.53.04-5.06.09-7.6.13.39-.33.77-.67,1.17-1-.59.34-1.19.68-1.79,1.01-7.09.12-14.23.24-21.42.37,1.15-1.46,2.36-2.87,3.62-4.23-2.45,1.54-4.96,2.97-7.53,4.3-4.02.07-8.05.14-12.1.21,2.09-3.81,4.59-7.4,7.43-10.69-5.44,4.18-11.3,7.83-17.46,10.87-2.02.03-4.06.07-6.09.1.56-.56,1.13-1.12,1.71-1.67-1.24.61-2.49,1.17-3.76,1.7-2.01.03-4.03.07-6.05.1,2.79-1.82,5.48-3.78,8.04-5.9-4.51.28-8.82,2.54-11.75,5.96-4.44.07-8.92.15-13.41.22,3.42-5.04,7.2-9.84,11.33-14.32-9.84,4.07-19.86,7.72-30.02,10.94,2.88-7.9,7.75-15.07,14.04-20.65-16.3,8.67-32.79,16.97-49.46,24.89-.86.01-1.72.03-2.58.04-3.27.05-6.59.1-9.93.14,1.93-3.66,3.86-7.33,5.79-10.99-5.44,3.37-10.66,7.09-15.63,11.12-17.25.23-35.39.42-54.57.59-.94,0-1.89.02-2.83.02.42-.95.84-1.9,1.26-2.84-1.16,1.42-2.96,2.34-4.8,2.23.08-.35.17-.7.25-1.05-.35.58-.72,1.15-1.1,1.71-2.79.02-5.61.05-8.45.07.11-.19.22-.37.32-.56-.35.16-.68.36-1,.56-3.26.03-6.56.05-9.88.07,1.86-3.85,3.82-7.66,5.89-11.4-2.68,3.92-5.52,7.73-8.5,11.42-3,.02-6.03.04-9.08.06.4-.99.81-1.98,1.24-2.96.71-.98,1.42-1.97,2.14-2.95-.44.37-.86.76-1.29,1.14,2.23-4.74,4.83-9.31,7.82-13.62-7.35,6.16-14.7,12.31-22.06,18.47-4.36.03-8.78.05-13.24.08,3.24-7.76,8.22-14.8,14.54-20.34-7.32,6.19-14.08,13.02-20.23,20.37-3.86.02-7.75.04-11.69.06,1.36-1.45,2.72-2.89,4.09-4.34-2.3,1.66-4.76,3.11-7.31,4.35-2.48.01-4.98.02-7.49.03,1.22-1.65,2.64-3.14,4.24-4.43-2.13,1.53-4.3,3.01-6.51,4.44-5.21.02-10.48.04-15.82.06,2.47-3.88,5.47-7.43,8.9-10.49-4.63,3.69-9.41,7.2-14.32,10.51-1.38,0-2.77,0-4.16.01,2.15-2.77,4.31-5.55,6.46-8.32-2.42,2.93-5.03,5.7-7.78,8.32-4.12.01-8.29.03-12.49.04,1.9-2.62,3.95-5.13,6.18-7.49-2.67,2.61-5.44,5.11-8.32,7.49-4.17.01-8.38.02-12.63.03,3.95-5.58,8.34-10.87,13.1-15.78-6.44,5.65-13.21,10.93-20.27,15.8-5.35.01-10.76.02-16.24.03,1.4-1.86,2.89-3.65,4.43-5.39-2.32,1.84-4.66,3.64-7.04,5.39-5.31,0-10.68.02-16.11.03.85-1.17,1.71-2.32,2.6-3.45-1.3,1.17-2.61,2.32-3.93,3.45-5.07,0-10.18.01-15.35.02,3.58-4.5,7.39-8.82,11.4-12.93-5.91,4.75-12.16,9.07-18.69,12.94-4.82,0-9.69,0-14.61.01,3.46-4.6,7.29-8.91,11.44-12.89-6.1,4.44-12.31,8.74-18.61,12.9-2.82,0-5.67,0-8.52,0,.71-.77,1.45-1.53,2.2-2.27-1.19.78-2.39,1.53-3.61,2.27-3.27,0-6.55,0-9.86,0,2.62-3.47,5.49-6.76,8.58-9.83-4.8,3.76-9.96,7.06-15.4,9.83-2.71,0-5.44,0-8.18,0,5.97-7.21,12.37-14.05,19.17-20.48-8.32,7.66-17.38,14.52-27,20.48-4.28,0-8.59,0-12.94,0,5.25-7.25,10.96-14.16,17.11-20.67-9.27,6.89-18.53,13.77-27.8,20.66-2.5,0-5,0-7.52,0,1.7-2.56,3.4-5.13,5.1-7.69-2.59,2.56-5.19,5.13-7.78,7.69-.76,0-1.53,0-2.3,0-5.59,0-11.26,0-16.97-.01,3.34-4.56,6.56-9.21,9.65-13.95-5.67.02-11.33,1.9-15.89,5.28.62-2.2,1.25-4.4,1.87-6.6-4.92,3.63-9.85,7.25-14.77,10.88,4.93-4.07,9.02-9.15,11.95-14.83-5.04,4.12-10.72,7.47-16.76,9.9,1.79-2.07,3.58-4.14,5.36-6.21-3.35,2.27-7.08,3.99-10.98,5.05,2.62-2.8,5.24-5.6,7.86-8.4-5.01,1.18-9.65,3.89-13.14,7.67,2.01-3.17,4.02-6.33,6.03-9.5-3.57,2.51-7.13,5.01-10.7,7.52.59-1.5,1.17-3,1.76-4.5-3.69,2.26-7.37,4.52-11.06,6.78,2.08-2.35,3.74-5.07,4.87-7.99-5.7,7.34-12.78,13.6-20.76,18.35,4.44-6.7,8.88-13.4,13.33-20.09-5.66,5.11-11.32,10.22-16.98,15.33l3.91-8.59c-5.29,4.6-10.58,9.2-15.86,13.81-1.73,0-3.45,0-5.18,0,2.18-5.22,5.12-10.12,8.68-14.52-5.29,4.93-10.67,9.77-16.12,14.51-3.44,0-6.89-.01-10.36-.02,1.29-1.98,2.62-3.93,4.02-5.83-1.87,1.98-3.78,3.92-5.73,5.83-5.38-.01-10.8-.02-16.27-.03,6.45-7.34,12.62-14.93,18.46-22.76-7.24,6.91-13.78,14.56-19.52,22.76-4.42,0-8.86-.02-13.34-.03,1.26-1.8,2.55-3.58,3.88-5.33l-4.71,5.33c-1.43,0-2.85,0-4.29,0,2.36-4.02,4.53-8.16,6.48-12.4-2.81,4.13-5.62,8.27-8.43,12.4-3.27,0-6.56-.01-9.86-.02.61-1,1.24-1.99,1.87-2.98-.77,1-1.56,2-2.36,2.98-4.58,0-9.19-.02-13.83-.03,5.69-7.87,11.79-15.45,18.28-22.68-8.42,8.14-17.39,15.7-26.81,22.66-2.66,0-5.34-.01-8.02-.02,6.27-6.67,12.39-13.47,18.33-20.44-8.84,7.48-18.23,14.31-28.07,20.42-4.38-.01-8.79-.02-13.22-.03,1.91-3.73,4.37-7.17,7.32-10.13-5.21,4.05-10.93,7.45-16.97,10.11-.65,0-1.31,0-1.96,0,4.65-6.89,9.3-13.77,13.95-20.66-7.68,7.72-17.13,13.67-27.42,17.23,3.45-3.51,6.91-7.01,10.36-10.52-7.69,4.09-15.38,8.19-23.06,12.28,2.68-3.77,5.36-7.54,8.04-11.3-6.33,4.82-13.06,9.12-20.08,12.87-1.32,0-2.63,0-3.96-.01l1.61-4.7c-2.45,1.24-4.72,2.83-6.75,4.68-7.83-.02-15.74-.04-23.72-.06,1.47-2.88,2.32-6.03,2.25-9.27-2.14,1.13-4.27,2.26-6.41,3.39.15-.47.1-1.03-.32-1.32-.96-.67-2.27-.16-3.31.36-4.54,2.26-9.08,4.52-13.62,6.78,3.96-4.28,7.15-9.28,9.35-14.68-5.94,5.89-12.8,10.84-20.24,14.65-.28,0-.56,0-.85,0,3.01-4.51,6.02-9.02,9.02-13.53-4.8,4.5-9.59,9.01-14.39,13.51-1.26,0-2.51,0-3.77-.01,2.15-5.74,6.03-10.84,11.06-14.36-8.26,3.87-16.07,8.69-23.24,14.32-.04,0-.08,0-.13,0,1.29-2.63,2.58-5.26,3.88-7.89-1.37,2.09-3.46,3.71-5.83,4.51-.28-2.12.31-4.35,1.61-6.05-1.44,1.05-3.34,1.44-5.07,1.02.98-1.48,1.97-2.95,2.95-4.43-3.9,3.31-7.8,6.62-11.69,9.94,3.46-5.54,6.92-11.07,10.38-16.61-4.6,1.41-8.68,4.47-11.32,8.49,1.39-3.47,2.79-6.93,4.18-10.4-3.59,4.94-8.14,9.17-13.32,12.38,1.21-2.8,2.41-5.6,3.62-8.41-5.21,6.51-11.27,12.34-17.96,17.33-.44,0-.87,0-1.31,0,1.56-3.37,3.52-6.55,5.88-9.41-3.18,2.68-6.36,5.37-9.54,8.05-.09-5.21,1.36-10.45,4.11-14.87-5.42,4.97-11.43,9.3-17.85,12.88-1.34-2.36-1.25-5.48.24-7.75-2.48,3.68-4.95,7.36-7.43,11.04-4.22-.01-8.44-.03-12.7-.04-1.26,0-2.52,0-3.78-.01,2.41-9.63,6.43-18.85,11.82-27.18-6.59,9.05-13.19,18.11-19.78,27.16-.84,0-1.68,0-2.52,0,2.23-6.32,4.85-12.49,7.83-18.49-3.81,6.16-7.62,12.32-11.43,18.48-1.2,0-2.41,0-3.61-.01,1.01-2.59,2.13-5.14,3.36-7.63-1.55,2.54-3.09,5.09-4.64,7.63-2.14,0-4.27-.01-6.42-.02,3.53-11.88,8.7-23.27,15.36-33.73-7.66,11.23-15.33,22.47-22.99,33.7-.85,0-1.7,0-2.55,0,5.59-11.34,12.17-22.2,19.65-32.39-7.84,10.93-15.87,21.71-24.06,32.38-2.45,0-4.91-.01-7.37-.02,2.46-6.67,5.41-13.16,8.81-19.4-4.81,6.75-10.03,13.21-15.58,19.38-1.57,0-3.14,0-4.72-.01.16-.42.31-.84.48-1.26-.37.42-.73.84-1.1,1.25-.2,0-.41,0-.61,0-.15-1.05-.26-2.11-.31-3.17-.55,1.07-1.12,2.12-1.71,3.17-2.41,0-4.83-.01-7.26-.02,2.6-8.49,6.31-16.63,10.98-24.17-6.28,8.05-12.56,16.1-18.84,24.15-1.67,0-3.36-.01-5.04-.02,2.56-5.8,5.34-11.5,8.33-17.08-3.53,5.69-7.06,11.38-10.58,17.07-1.97,0-3.93-.01-5.91-.02.48-2.88,1.11-5.74,1.88-8.56-1.62,2.91-3.34,5.75-5.14,8.55-.97,0-1.94,0-2.91,0,1.23-4.67,2.76-9.26,4.57-13.73-3.01,4.62-6.09,9.19-9.24,13.72-.81,0-1.63,0-2.45,0,3.02-10.62,6.86-21,11.49-31.01-6.1,10.47-12.9,20.52-20.35,30.07.64-2.76,1.53-5.46,2.63-8.06-3.45,3.39-7.28,6.38-11.43,8.87,1.89-2.65,3.77-5.3,5.66-7.95-1.69,1.83-3.46,3.58-5.33,5.22.13-.54.27-1.07.43-1.6-1.19,1.49-2.41,2.96-3.65,4.4-.77,0-1.53,0-2.3,0,8.28-17.6,16.57-35.19,24.85-52.79-13.01,17.58-26.02,35.16-39.03,52.74-1.05,0-2.1,0-3.15,0,.43-1.31.89-2.62,1.36-3.91-.83,1.3-1.65,2.61-2.48,3.91-.33,0-.67,0-1,0,2.86-8.5,6.51-16.73,10.87-24.56-4.61,7.01-9.21,14.02-13.82,21.03,7.62-14.45,15.78-28.6,24.46-42.44-10.69,14.15-21.39,28.3-32.08,42.45,2.37-6.11,4.98-12.12,7.8-18.03-4.66,6.36-10.07,12.16-16.11,17.22,3.07-4.9,6.14-9.8,9.2-14.7-7.1,6.71-15.2,12.36-23.94,16.73.86-2.38,1.99-4.67,3.34-6.81-4.27,3.47-8.91,6.49-13.82,8.95-1.73,0-3.46-.01-5.19-.02.53-.86,1.09-1.69,1.72-2.48-1.32.88-2.68,1.7-4.06,2.47-1.74,0-3.47-.01-5.22-.02.07-.19.14-.38.21-.57-.31.2-.63.39-.95.56-1.03,0-2.06,0-3.09,0,1.71-3.46,4.23-6.52,7.31-8.85-3.71,2.95-7.43,5.89-11.14,8.84-1.4,0-2.8,0-4.2-.01,1.43-3.73,3.3-7.28,5.56-10.57-3.68,4-7.84,7.55-12.38,10.55-.53,0-1.07,0-1.61,0,.39-1.18.83-2.34,1.32-3.47-.91.94-1.86,1.84-2.84,2.71.04-.6.11-1.21.17-1.81,1.03-2.51,2.06-5.03,3.08-7.54,5.9-6.81,10.5-14.76,13.36-23.31-2.78,2.95-5.34,6.1-7.67,9.41.16-.38.31-.76.47-1.14,3.73-4.88,7.17-9.98,10.28-15.27-5.46,5.52-10.53,11.44-15.17,17.68-.08.06-.16.12-.24.19.58-1.8,1.2-3.58,1.89-5.34-2.47,1.49-4.81,3.2-6.98,5.09,4.4-8.25,8.8-16.51,13.19-24.76-11.61,17.07-24.91,33-39.62,47.49-1.39,0-2.8,0-4.23-.01,1.82-5.38,4.37-10.5,7.57-15.2-5.82,5.59-12.12,10.68-18.83,15.16-.18,0-.37,0-.55,0,1.73-3.7,3.84-7.21,6.26-10.49-5.38,4.34-11.39,7.88-17.8,10.45-1.5,0-3.01,0-4.54-.02,1.77-4.83,4.9-9.17,8.95-12.34-8.27,4.1-16.55,8.19-24.82,12.29-14.94-.05-31.1-.11-48.42-.17-.28-1.37.27-2.85,1.32-3.77-1.48.38-3.31-.4-3.73-1.92-5.83,2.98-12.2,4.88-18.7,5.62-1.09,0-2.19,0-3.29-.01.71-3.69,2.64-7.13,5.43-9.64-5.16,3.05-10.32,6.1-15.48,9.15-.21-2.62-.42-5.24-.63-7.85-1.91,5.03-8.75,7.44-13.39,4.71-2.77,1.94-6.42,2.57-9.68,1.68,1.22-.98,2.45-1.95,3.67-2.93-7.6.54-15.11,2.14-22.29,4.7-1.68,0-3.36-.01-5.05-.02.56-2.16,1.51-4.22,2.79-6.05-2.2,2.42-5.72,3.53-8.91,2.82,1.31-2.14,2.61-4.28,3.92-6.42-2.83,2.8-6.1,5.17-9.64,7.01.02-.27-.05-.53-.27-.75-1.09-1.07-2.88-.53-4.36-.17-1.48.37-3.58.08-3.77-1.44,1.65-2.62,3.29-5.24,4.94-7.87-2.61,1.82-5.21,3.65-7.82,5.47.89-.86-1.54-2.56-2.8-1.56-1.36,1.08-2.03,3.16-3.74,3.47-.61.11-.92-.31-1.03-.82-2.54,3.05-6.89,4.56-10.75,3.56,2.08-3.5,4.61-6.73,7.5-9.6-4.84,3.18-10.84,4.62-16.57,3.77-4.68,2.58-10.07,3.84-15.41,3.6.87-2.38,1.73-4.77,2.6-7.15-4.72,6.02-12.23,9.74-19.87,9.86-1.24.63-2.48,1.26-3.72,1.89-12.24-.05-24.77-.11-37.59-.17,2.02-2.4,4.04-4.8,6.06-7.21-4.37,2.25-9.7,2.55-14.29.79-4.01,2.49-8.26,4.6-12.66,6.32-6.91-.03-13.9-.06-20.97-.1.58-.79,1.17-1.58,1.75-2.37-1.22.94-2.55,1.73-3.96,2.36-1.97,0-3.96-.02-5.95-.03.57-.83,1.15-1.65,1.72-2.48-.93.95-1.96,1.94-3.15,2.47-1,0-1.99,0-2.99-.01-1.18-.67-1.95-2.07-1.21-3.17-1.14,1.11-2.34,2.15-3.58,3.15-3.51-.02-7.04-.03-10.59-.05.55-1.56,1.4-3.02,2.49-4.26-.16.02-.32.04-.49.03-1.52-.09-2.42-2.28-1.69-3.27-3.35,2.03-6.7,4.06-10.05,6.08,3.76-4.36,7.53-8.73,11.29-13.09-6.1,5.46-13.8,9.11-21.89,10.38,2.81-5.2,6.85-9.72,11.71-13.09-8.63,3.97-17.25,7.95-25.88,11.92,1.09-4.81,3.97-9.18,7.89-12.17-9.29,5.51-19.62,9.27-30.29,10.99,3.44-5.85,8.33-10.84,14.1-14.41-8.18,5.08-16.7,9.62-25.49,13.57-4.17,1.87-10.62,2.66-11.88-1.73,3.29-4.07,6.58-8.14,9.88-12.22-10.8,8.49-23.94,13.98-37.57,15.7.99-2.97,2.6-5.72,4.65-8.07-8.51,5.95-18.27,10.11-28.47,12.05,2.12-5.33,5.43-10.18,9.58-14.14-7.97,6.18-16.82,11.24-26.18,14.98-1.7,0-3.4-.02-5.1-.03,1.69-4.38,4.47-8.34,8.03-11.39-4.31,3.31-8.21,7.15-11.62,11.37-12.53-.07-25.22-.14-38.07-.21.38-.74.54-1.59.35-2.41-.42.85-.99,1.77-1.69,2.4-.97,0-1.94-.01-2.91-.02-.13-.38-.13-.84-.02-1.24-.82.41-1.65.82-2.47,1.23-1.1,0-2.21-.01-3.32-.02.45-.94.89-1.89,1.34-2.83-3.33.49-6.65.98-9.98,1.47.87-1.86,1.74-3.71,2.6-5.57-5.08,2.93-10.68,4.95-16.46,5.95.56-2.2,1.12-4.4,1.69-6.6-2.77,2.81-5.87,5.3-9.21,7.42-1.14,0-2.29-.01-3.44-.02-5.61-.03-11.26-.06-16.93-.1.72-2.02,1.43-4.04,2.15-6.06-7.01,2.72-14.4,4.44-21.88,5.12,2.73-2.76,5.46-5.52,8.19-8.28-4.12,2.52-8.72,4.25-13.48,5.06,1.14-3.8,3.44-7.23,6.51-9.73-3.74,3.11-8.76,4.64-13.59,4.14.48-3.22,2.22-6.23,4.77-8.25-5.02,2.96-10.03,5.92-15.05,8.88.1-1.82.93-3.56,2.18-4.89-2.67,1.76-5.34,3.51-8.01,5.27-1.2.79-2.65,1.6-3.98,1.07-.95-.39-1.15-1.82-.67-2.53-3,1.33-5.99,2.66-8.99,3.98.35-1.99,1.26-3.85,2.55-5.41-1.93,1.27-4.01,2.32-6.19,3.1.67-1.7,1.57-3.3,2.66-4.76-3.58,2.06-7.61,3.33-11.73,3.61.72-2.62,2-5.08,3.69-7.21-3.98,2.5-8.87,3.58-13.5,2.75,2.54-3.99,5.83-7.49,9.65-10.27-6.07,4.23-13.19,6.93-20.53,7.79-2.16.25-5.09-.23-5.34-2.4,0-.01,0-.02,0-.03-6.15,4.61-12.86,8.47-19.94,11.47-3.47,2.2-7.17,4.01-11.05,5.34,1.46-3.72,3.76-7.1,6.66-9.85-4.79,3.92-9.72,7.67-14.78,11.25-9.68-.06-19.42-.12-29.22-.18.94-1.54,1.87-3.08,2.81-4.63-4.47-1.72-9.56-1.77-14.06-.13-1.49.54-3.36,1.19-4.48.07-.01-.01-.02-.03-.03-.04-3.04,2.36-6.82,3.78-10.67,3.92-.05-1.05.29-2.07.87-2.94-3.12,1.64-6.5,2.78-9.98,3.34-.76-1.94-.27-4.3,1.19-5.78-1.57-.36-3.1.64-4.45,1.52-1.36.88-3.07,1.69-4.52.99-.95-.46-1.14-1.85-.72-2.69-3.67,2.01-7.34,4.01-11.01,6.02-.36,0-.71,0-1.07,0,.17-1.65.33-3.3.5-4.95.02,1.37-1.43,2.25-2.71,2.75-1.16.46-2.49,1.05-2.92,2.16-7.1-.05-14.24-.09-21.41-.14,3.09-3.48,5.56-7.44,7.13-11.86-8.29,4.02-17.31,6.51-26.49,7.3.98-1.91,1.96-3.82,2.93-5.73-4.23-.84-7.74,2.99-11.42,5.25-3.68,2.26-10.44,1.15-9.81-3.12-5.5,2.94-11.87,4.25-18.09,3.71,1.59-2.9,3.18-5.79,4.77-8.69-8.67,2.42-17.34,4.84-26.01,7.27l4.85-9.25c-6.01,3-12.69,4.66-19.41,4.82,1.62-3.76,4.17-7.11,7.35-9.69-9.78,3.85-19.55,7.71-29.33,11.56,2.32-4.46,5.62-8.41,9.59-11.49-11.62,6.32-23.74,11.73-36.2,16.15,2.69-6.27,7.4-11.66,13.27-15.16-11.58,7.89-24.52,13.79-38.07,17.36,1.03-3.09,2.05-6.18,3.08-9.27-5.15,2.55-9.95,5.8-14.26,9.6-10.75-.08-21.55-.16-32.41-.24.9-1.47,1.8-2.94,2.7-4.41-1.38,1.92-3.29,3.45-5.46,4.39-.32,0-.64,0-.96,0-.44-2.52-.12-5.17.93-7.51-1.68,2.89-3.94,5.41-6.58,7.47-1.67-.01-3.35-.02-5.03-.04,2.08-2.24,3.7-4.9,4.66-7.81-3.04,1.54-5.27,4.5-6.11,7.8-2.09-.02-4.17-.03-6.26-.05.29-1.47.74-2.91,1.33-4.29-1.32,1.55-2.79,2.98-4.36,4.27-1.77-.01-3.53-.03-5.3-.04.79-1.95,1.92-3.76,3.32-5.32-3.29,2.21-6.86,3.99-10.61,5.27-.38,0-.77,0-1.15,0-11.08-.08-22.21-.17-33.4-.25,4.36-6.36,8.14-13.28,11.64-19.97-10.93,3.86-21.86,7.72-32.78,11.58,2.09-2.76,4.18-5.51,6.28-8.27-7.93,2.5-15.85,5.01-23.78,7.51,1.95-3.57,4.95-6.57,8.53-8.51-6.6,3.35-13.8,5.53-21.15,6.39,2.12-3.95,5.19-7.38,8.87-9.94-4.63,1.85-9.26,3.71-13.89,5.56,1.71-2.79,3.89-5.29,6.41-7.37-5.52,3.83-11.65,6.78-18.09,8.69,2.39-2.15,4.78-4.3,7.16-6.46-6.51,4.28-14.04,6.99-21.78,7.82,1.49-1.91,2.99-3.81,4.48-5.72-6.77,5.03-14.17,9.21-21.97,12.41,2.24-2.77,4.48-5.53,6.71-8.3-4.14.88-8.27,1.76-12.41,2.63,3.42-3.23,6.84-6.46,10.26-9.69-5.8,3.59-12.09,6.39-18.63,8.33,1.86-3.86,4.76-7.2,8.29-9.64-8.05,4.99-16.09,9.99-24.14,14.98.25-2.84,2.03-5.5,4.57-6.81-7.53,4.7-15.39,8.88-23.49,12.5,3.06-4.24,6.72-8.05,10.76-11.37-22.18,15.68-33.75,12.56-59.76,12.18-2.23-.03-11.77.15-23.42.31.53-.9,1.05-1.81,1.58-2.71-1.45,1.02-2.97,1.93-4.54,2.75-3.37.05-6.88.09-10.4.13.37-1.42.57-2.89.59-4.36-2.82,1.48-5.65,2.95-8.47,4.43-1.27,0-2.54.02-3.79.02.7-2.97,2.01-5.79,3.84-8.23-2.92,2.87-5.97,5.61-9.11,8.24-1.42,0-2.81,0-4.15,0-11.11-.05-19.38-.32-19.51-1.05-.1-.57-.34-1.11-.73-1.55-3.19,2.38-8.6-.99-7.88-4.9-2.63,1.7-7.77,1.99-7.31-1.11-6.96-2.37-14.23-3.82-21.57-4.32,1.66-1.32,3.31-2.63,4.97-3.95-3.92.88-7.84,1.75-11.76,2.63.9-2.13,2.52-3.94,4.55-5.06-7.46.72-14.82,2.46-21.82,5.16,2.68-1.75,5.36-3.51,8.03-5.26-6.01,1.74-12.02,3.49-18.03,5.23,2.97-2.36,5.93-4.72,8.9-7.09-7.51,4.55-16.42,6.76-25.19,6.23,2.32-1.98,4.63-3.97,6.95-5.95-5.09,1-10.18,2-15.27,3,2.59-1.32,4.74-3.5,6.04-6.11-5.8,3.91-12.86,5.93-19.85,5.67,2.34-1.48,4.69-2.96,7.03-4.44-7.8,2.45-15.61,4.9-23.41,7.36,1.38-1.78,2.77-3.57,4.15-5.35-6.22,3.11-12.86,5.4-19.68,6.8,1.45-1.86,2.9-3.72,4.35-5.57-2.3,2.12-6.48,2.18-8.55-.28-3.53,2.43-7.82,3.76-12.11,3.75,1.46-2.15,2.92-4.29,4.38-6.44-6.25,2.34-12.49,4.67-18.74,7.01,1.4-2.46,2.8-4.92,4.2-7.38-8.01,2.66-16.03,5.32-24.04,7.99-3.37.75-6.73,1.49-10.1,2.24l4.83-6.8c-7.61,5.07-15.99,9-24.75,11.61.73-2.98,1.46-5.97,2.19-8.95-4.69,4.8-9.38,9.59-14.06,14.39-7.2-.06-14.16-.12-20.86-.19v560h3840v-560c-3.68,0-7.66.26-11.91.69Z"/>
      <path class="cls-3" d="M117.62,1583.55c.42-.39.78-.83,1.05-1.35-.35.45-.7.9-1.05,1.35Z"/>
    </g>
    <g>
      <path class="cls-2" d="M102.02,2112.67c1.61-1.74,3.22-3.48,4.81-5.24-1.89,1.46-3.5,3.25-4.81,5.24Z"/>
      <path class="cls-2" d="M3775.58,2131.28c.68-1.69,1.37-3.37,2.05-5.06-1.86,1.16-5.52.68-6.37-1.8-1.23-3.59,1.42-7.27,3.99-10.05-6.75,5.26-13.49,10.52-20.24,15.77l6.79-13.71c-5.27,4.48-10.55,8.97-15.82,13.45-2.4-.12-4.82-.24-7.26-.36,2.75-6,6.4-11.58,10.83-16.47-6.01,5.37-12.02,10.74-18.02,16.11-1.52-.08-3.05-.15-4.58-.23,2.86-4.66,6.3-8.97,10.23-12.77-4.42,4.21-8.84,8.41-13.26,12.62-1.26-.06-2.53-.13-3.8-.19,2.47-5.06,5.77-9.73,9.75-13.71-5.12,5.58-11.83,9.68-19.12,11.71,2.24-4.58,4.48-9.16,6.73-13.74-3.83,3.38-8.33,6.99-13.41,6.4-5.08-.59-8.47-8.38-4-10.86-7.62,3.77-15.24,7.55-22.86,11.32,2.86-4.74,5.72-9.47,8.59-14.21-10.17,6.58-20.33,13.16-30.5,19.74-2.96-.15-5.93-.3-8.92-.45,1.3-5.14,3.89-9.96,7.51-13.84-6.34,4.42-12.68,8.85-19.02,13.27-1.96-.1-3.92-.19-5.89-.29,2-3.58,4.66-6.8,7.82-9.4-5,3.02-10,6.04-15,9.06-1.7-.08-3.39-.16-5.1-.24,2.51-2.89,5.02-5.77,7.53-8.66-2.97,3.43-6.84,7.19-11.3,6.36-3.9-.73-4.64-7.4-1.78-8.57-14.42,1.27-28.69,4.2-42.45,8.71-2.02-.08-4.04-.17-6.07-.25,3.1-3.86,6.21-7.72,9.31-11.58-9.38,3.61-18.76,7.22-28.13,10.83-2.41-.09-4.83-.18-7.26-.27,1.8-2.36,3.61-4.71,5.41-7.07-3.96,2.56-8.11,4.84-12.39,6.81-5.52-.2-11.07-.39-16.67-.58,3.3-3.76,7.15-7.04,11.4-9.67-5.63,3.52-11.49,6.67-17.51,9.47-4.7-.15-9.41-.3-14.16-.44,5.81-5.4,12.26-10.12,19.21-13.95-10.2,4.54-20.4,9.08-30.61,13.62-5.49-.15-11.01-.3-16.56-.44,2.8-3.42,6.01-6.49,9.57-9.1-6.55,3.46-13.36,6.42-20.35,8.85-1.76-.04-3.53-.08-5.3-.12,8.36-6.83,16.72-13.65,25.07-20.48-11.72,8.65-24.78,15.47-38.56,20.21-5.8-.11-11.63-.21-17.5-.3,11.5-12.3,25.01-22.72,39.85-30.69-24.25,10.09-48.5,20.18-72.75,30.27-1.77-.02-3.53-.04-5.31-.06,8.9-6.64,17.8-13.27,26.7-19.91-20.52,6.51-41.04,13.01-61.55,19.52-.21,0-.43,0-.64,0,8.21-7.46,16.42-14.91,24.63-22.37-19.81,9.42-40.59,16.79-61.91,21.98-.19,0-.39,0-.58,0,6.2-6.49,13.41-12.01,21.29-16.32-12.82,6.52-26.21,11.92-39.97,16.13-.72,0-1.45-.01-2.18-.02,7.14-6.64,14.29-13.28,21.43-19.93-12.83,8.42-26.81,15.07-41.43,19.74-1.74-.02-3.49-.03-5.24-.05,6.68-6.16,13.37-12.31,20.05-18.47-14.84,8.01-30.75,14.02-47.18,17.81,7.93-6.9,15.87-13.81,23.8-20.71-13.02,6.56-26.05,13.13-39.07,19.69,6.24-4.87,12.48-9.75,18.71-14.62-9.18,3.27-18.36,6.55-27.53,9.82,4.49-5.01,8.99-10.01,13.48-15.02-13.73,9.23-28.96,16.24-44.9,20.66,4.4-5,8.8-10,13.2-15-8.89,5.01-17.78,10.03-26.67,15.04-2.38-.02-4.78-.03-7.18-.05,1.38-2.89,2.76-5.79,4.14-8.68-5.82,3.27-11.86,6.14-18.08,8.58-7.17-.05-14.4-.1-21.7-.15,2.02-2.82,4.03-5.64,6.05-8.46-4.85-3.77-9.96,3.53-14.02,8.41-3.55-.02-7.12-.05-10.71-.07-1.13-1.17-1.18-2.49.97-3.25-3.25,1.13-6.54,2.18-9.83,3.19-48.99-.3-100.85-.56-155.83-.77-.68-.97-1.65-1.7-2.87-1.79-2.91-.22-5.77,1.07-8.62,1.75-1.79,0-3.57-.01-5.37-.02-2.48-1.18-2.26-5.41-.92-6.92-3.81.31-7.33,3.31-10.51,5.8-.48.37-.98.74-1.51,1.08-4.12-.01-8.26-.03-12.41-.04-.22-.53-.25-1.1-.14-1.66-1.31.55-2.61,1.1-3.92,1.65-3.54-.01-7.09-.02-10.66-.03,1.4-2.35,2.8-4.71,4.21-7.06-5.36,2.34-10.71,4.69-16.07,7.03-3.38,0-6.78-.02-10.18-.03.72-2.94,1.44-5.87,2.16-8.81-2.5,3.35-5.47,6.93-9.05,8.79-2.89,0-5.8-.02-8.71-.02-3.69-2.9-4.79-9.74-.06-10.76-7.91.46-13.74,7.33-20.92,10.71-3.58,0-7.17-.02-10.77-.02-4.51-1.99-7.69-6.03-5.45-9.78-3.12,4.42-6.96,8.98-12.28,9.35-5.65.4-10.46-8.12-5.57-10.97-6.46,3.77-12.92,7.54-19.37,11.31-.56,0-1.11,0-1.67,0,2.52-4.04,5.05-8.09,7.57-12.13-6.79,4.04-13.57,8.07-20.36,12.11-1.24,0-2.46,0-3.72,0,3.37-5.72,6.74-11.44,10.11-17.16-6.99,5.72-13.99,11.43-20.98,17.15-1.81,0-3.61,0-5.45,0,2.78-6.42,5.57-12.85,8.35-19.27-6.48,6.88-13.44,13.3-20.78,19.25-3.88,0-7.81-.01-11.81-.01,2.64-6.09,6.18-11.8,10.49-16.85-5.44,6.09-11.38,11.71-17.72,16.84-5.12,0-10.34-.01-15.65-.02,1.64-7.08,3.93-14.01,6.84-20.67-8.1,6.89-16.2,13.77-24.3,20.66-1.84,0-3.7,0-5.56,0,4.52-10.52,9.04-21.03,13.56-31.55-12.54,10.51-25.07,21.03-37.61,31.54-1.59,0-3.21,0-4.81,0,5.44-10.49,10.88-20.99,16.32-31.48-11.34,10.49-22.69,20.99-34.04,31.48-1.78,0-3.59,0-5.39,0,4.49-9.71,8.99-19.43,13.48-29.14-10.16,9.71-20.32,19.43-30.48,29.15h-.34c5.61-12.07,11.22-24.14,16.83-36.21-13.59,11.38-27.17,22.76-40.76,34.15.14-9.49,2.39-18.95,6.55-27.48-8.41,9.95-18.22,18.73-29.04,25.99,3.35-8.76,6.7-17.51,10.06-26.27-9.67,7.68-19.34,15.37-29,23.05,2.11-7.57,4.21-15.14,6.32-22.7-9.78,8.68-19.55,17.35-29.33,26.03,1.57-7.4,3.14-14.79,4.71-22.19-7.94,9.3-17.29,17.4-27.64,23.94,2.33-8.57,4.66-17.13,6.99-25.7-8.51,9.53-18.62,17.63-29.78,23.85,2.59-8.42,5.18-16.83,7.78-25.25l-25.71,21.59c2.16-5.78,4.32-11.55,6.48-17.33-5.47,5.35-10.95,10.69-16.42,16.04,1.34-4.81,2.68-9.61,4.02-14.42-5.65,7.74-11.3,15.48-16.95,23.22-8.38.03-16.85.05-25.42.08,2.82-5.2,5.64-10.41,8.45-15.61-2.96,5.44-6.31,10.65-10.01,15.62-2.03,0-4.09.01-6.14.02,4.77-9.53,9.95-18.86,15.51-27.95-6.44,10.02-13.86,19.39-22.12,27.97-3.61.01-7.26.03-10.91.04,4.73-9.97,10.55-19.43,17.34-28.13-8.65,9.39-17.3,18.78-25.94,28.16-2.73.01-5.45.02-8.19.03,2.69-7.6,5.7-15.08,9.03-22.42-4.3,7.65-8.88,15.14-13.75,22.44-2.03,0-4.07.02-6.11.03,7.87-15.98,15.75-31.95,23.62-47.93-8.6,17.88-20.42,34.19-34.68,47.98-1.74,0-3.49.02-5.23.02,6.11-12.6,12.23-25.21,18.34-37.81-9.58,13.49-20.29,26.16-31.96,37.88-2.72.01-5.43.03-8.16.04,2.23-6.28,5.31-12.26,9.17-17.7-6.23,5.92-12.46,11.83-18.69,17.75-1.42,0-2.83.01-4.25.02.43-1.52.99-3,1.67-4.43-1.24,1.53-2.53,3.01-3.88,4.44-4.07.02-8.14.04-12.24.06,1.8-4.04,3.99-7.91,6.55-11.52-7.48,3.36-14.96,6.71-22.44,10.07,3.07-6.69,6.13-13.39,9.2-20.08-8.28,8.29-17.54,15.59-27.52,21.73-1.33,0-2.68.02-4.02.02,1.24-3.28,2.48-6.55,3.72-9.83-4.04,4.04-8.75,7.39-13.88,9.89-1.61.01-3.24.02-4.86.03.86-3.59,2.3-7.03,4.26-10.16-4.18,3.97-8.97,7.3-14.16,9.8-1.15.55-2.16-.49-2.59-1.28-.65.6-1.32,1.18-2.02,1.73-4.67.03-9.35.06-14.06.09,3.03-5.24,7.1-9.88,11.92-13.55-8.28,4.55-16.56,9.09-24.84,13.64-1.84.01-3.7.03-5.54.04,2.57-4.95,5.14-9.9,7.71-14.84-5.93,5.42-12.25,10.41-18.89,14.92-.94,0-1.89.01-2.83.02.86-3.34,2.38-6.5,4.43-9.27-3.08,3.36-6.42,6.48-9.99,9.31-4.17.03-8.35.06-12.55.09,2.31-3.5,4.95-6.79,7.88-9.79-3.75,3.58-7.79,6.85-12.03,9.82-3.74.03-7.47.06-11.23.09.74-1.08,1.48-2.18,2.17-3.3-1.12.97-2.09,2.09-2.93,3.3-4.94.04-9.89.08-14.87.12,1.1-1.93,2.31-3.8,3.61-5.6-1.61,1.95-3.31,3.82-5.09,5.61-3.99.03-7.99.07-12,.1,1.09-1.92,2.31-3.76,3.66-5.51-1.78,1.97-3.7,3.82-5.74,5.53-2.95.02-5.92.05-8.88.08.7-1.12,1.43-2.21,2.19-3.28-1.06,1.14-2.16,2.23-3.3,3.29-4.81.04-9.63.08-14.47.13,4.63-8.18,10-15.94,16.05-23.13-10.25,8.76-21.31,16.56-32.99,23.28-1.41.01-2.82.03-4.23.04,2.78-6.19,5.57-12.37,8.35-18.56-4.26,6.77-9.33,13.03-15.04,18.62-4.24.04-8.5.08-12.76.12,2.89-7.14,6.52-13.98,10.82-20.36-5.82,7.74-12.75,14.65-20.5,20.45-4.51.04-9.03.09-13.57.13,2.91-7.8,7.13-15.11,12.43-21.53-7.87,8.28-16.76,15.57-26.42,21.67-1.07.01-2.14.02-3.22.03,3.59-11.89,9.22-23.16,16.57-33.17-10.93,12.81-23.66,24.08-37.72,33.34,6.03-16.81,13.72-33.03,22.93-48.34-13.46,18.79-30.09,35.31-48.95,48.67-2.31.03-4.62.05-6.94.08,3.04-14.19,8.25-27.91,15.42-40.53-12.65,13.59-25.3,27.19-37.95,40.78-5.34.06-10.68.12-16.05.18-18.1.21-35.7.42-52.83.64,1.57-4.1,3.15-8.2,4.72-12.3-4.85,3.74-15.08,4.65-14.03-1.39-1.96,2.75-4.33,5.76-7.7,6.06-2.92.26-5.66-3.29-4.57-5.56-2.53,3.03-5.33,6.01-9.06,7.2-4.11,1.31-9.57-.71-10.25-4.97-1.29,3.99-3.4,8.69-7.57,9.11-2.28.23-3.67-2.18-3.8-4.25-2.58,2.65-5.49,4.98-8.65,6.91-1.84.03-3.68.05-5.51.08.74-1.76,1.48-3.51,2.21-5.27-1.26,1.94-2.78,4.02-4.64,5.3-2.07.03-4.14.06-6.2.09-.88-.98-1.34-2.41-1.27-3.63-1.55,1.45-3.28,2.7-5.15,3.72-1.63.02-3.24.05-4.86.07.97-1.95,1.94-3.9,2.91-5.85-4.81,2.01-9.61,4.01-14.42,6.02-1.76.03-3.51.05-5.25.08.62-3.03,1.23-6.06,1.85-9.1-2.69,3.3-5.65,6.37-8.83,9.2-2.63.04-5.25.08-7.85.12.65-.93,1.28-1.87,1.86-2.84-.92.83-1.7,1.8-2.36,2.85-3.96.06-7.88.12-11.77.18,4.8-7.91,10.26-15.41,16.35-22.37-9.25,8.12-19.01,15.65-29.19,22.57-4.09.06-8.16.13-12.18.19.67-4.45,2.02-8.79,3.98-12.84-3.22,4.52-6.72,8.84-10.46,12.94-5.05.08-10.05.16-14.99.24,5.44-11.47,11.86-22.48,19.18-32.85-9.29,13.12-21.15,24.41-34.66,33.11-2.03.03-4.06.07-6.07.1,2.5-4.67,5.3-9.17,8.41-13.46-4.27,4.79-8.83,9.32-13.65,13.55-2,.03-3.99.07-5.97.1,3.9-7.12,8.21-14.01,12.93-20.61-6.27,6.83-13.19,13.05-20.68,18.51,1.61-3.53,3.43-6.98,5.39-10.33-4.54,4.39-9.62,8.21-15.13,11.31.49-3.8,1.48-7.53,2.91-11.09-4.16,4.89-8.99,9.19-14.34,12.72-1.71.03-3.41.06-5.11.09,2.08-4.28,4.42-8.43,6.99-12.43-5.51,4.86-11.79,8.85-18.57,11.68,1.14-3.14,2.52-6.2,4.09-9.15-3.74,3.75-7.79,7.19-12.1,10.27-3.99.08-7.94.15-11.85.23,4.35-11.04,10.58-21.34,18.38-30.28-10.15,11.35-21.51,21.61-33.81,30.59-.55.01-1.1.02-1.64.03,2.49-7.62,6.34-14.79,11.34-21.06-7.13,7.33-14.5,14.43-22.09,21.28-3.88.08-7.71.16-11.51.24,3.81-7.3,8.47-14.16,13.87-20.38-7.61,6.85-15.23,13.71-22.84,20.56-6,.13-11.89.25-17.68.38,1.59-3.02,3.45-5.9,5.57-8.59-3.74,3.08-7.62,5.97-11.6,8.72-7.38.16-14.57.33-21.61.49,2.38-4.36,4.76-8.73,7.14-13.09-7.19,4.48-14.39,8.95-21.58,13.43-2.7.06-5.38.13-8.03.19.31-.73.66-1.44,1.03-2.14-.64.73-1.28,1.45-1.94,2.16-2.77.07-5.52.13-8.23.2,2.55-3.62,5.36-7.06,8.43-10.25-3.36,3.56-6.85,6.99-10.46,10.29-3.21.08-6.38.16-9.52.24.05-.07.09-.15.14-.22-.06.07-.13.15-.19.22-3.97.1-7.89.2-11.75.3.84-1.06,1.69-2.12,2.56-3.15-2.09,1.08-4.18,2.16-6.27,3.24-9.7.25-19.02.5-28.01.74.14-.84.27-1.69.41-2.53-2.61.84-5.2,1.75-7.76,2.73-6.69.18-13.19.37-19.5.55.17-2.49.34-4.97.51-7.46-5.75,2.65-11.5,5.3-17.25,7.95-14.84.44-28.63.86-41.53,1.26,2.33-4.71,4.67-9.41,7-14.12-3.44-1.96-7.59,1.11-9.87,4.35-2.27,3.24-4.47,7.22-8.36,7.94-2.61.48-4.98-2.29-5.13-4.53-1.75,2.5-3.71,4.86-5.83,7.06-1.59.05-3.17.1-4.73.15,2.19-4.72,4.78-9.25,7.73-13.52-3.84,4.55-7.67,9.1-11.51,13.65-2.47.08-4.91.16-7.32.23,3.25-7.9,7.87-15.23,13.6-21.55-8.6,8.42-18.19,15.82-28.5,22.03-.3,0-.59.02-.89.03,3.81-8.63,8.79-16.74,14.78-24.03-8.31,8.66-17.6,16.38-27.64,22.95,2.69-4.16,5.38-8.32,8.07-12.48-2.19,2.52-4.5,4.93-6.91,7.25,3.92-7.29,8.75-14.09,14.35-20.19-7.21,7.1-15.44,13.17-24.37,17.92.46-.95.96-1.89,1.48-2.81,0,0,.01-.01.02-.02,0,0-.01.01-.02.02,2.5-4.48,5.59-8.62,9.17-12.29-6.3,5.9-13.37,10.99-20.96,15.09,3.05-8.65,8.54-16.42,15.68-22.18-9.36,7.3-18.73,14.6-28.09,21.91,1.87-4.92,4.78-9.44,8.5-13.16-4.33,3.91-8.67,7.81-13,11.72.8-.95,1.6-1.9,2.37-2.88-1.89,1.47-3.66,3.09-5.29,4.84,1.13-3.13,2.96-6.01,5.34-8.33-5.75,4.43-11.49,8.86-17.24,13.29,2.23-3.84,4.45-7.68,6.68-11.52-2.95,2.71-6.11,5.18-9.43,7.42,3.09-4.9,6.78-9.42,11-13.39-8.52,6.26-17.05,12.53-25.57,18.79.66-4.91,2.94-9.59,6.45-13.09-3.55,2.03-6.94,4.36-10.14,6.91.71-1.41,1.41-2.82,2.12-4.23-.92,1.71-1.93,3.36-3.03,4.96-3.54,2.91-6.83,6.11-9.83,9.58l1.42-.03c-.17.15-.35.3-.52.45-2.65.04-5.31.08-7.97.11,4.09-8.28,9.32-15.99,15.53-22.83-8.54,7.65-17.07,15.29-25.61,22.94-1.03,0-2.05.02-3.08.03,4.15-7.52,9.66-14.3,16.22-19.85-9.28,6.64-18.56,13.28-27.84,19.92-.39,0-.78,0-1.16,0,1.06-3.39,2.59-6.62,4.52-9.59-4.49,2.95-9.68,4.83-15.04,5.27,8.14-10.9,18.04-20.33,27.9-29.71-15.32,10.41-30.63,20.81-45.95,31.22,1.04-4.7,2.84-9.23,5.29-13.38-5.4,5.48-10.93,10.82-16.57,16.05-23.78-.23-50.4-.72-82.27-1.53.06-2.3-.23-4.72-1.02-7.64-3.45,2.26-6.91,4.53-10.36,6.79-.47-4.91,1.59-10,5.36-13.19-5.02,4.5-10.04,9-15.06,13.5-1.93-.05-3.85-.09-5.78-.13,1.33-2.86,2.66-5.71,3.98-8.57-2.13,2.99-4.48,5.82-6.99,8.5-3.04-.06-6.08-.1-9.13-.15,3.62-5.44,7.62-10.62,11.99-15.48-5.49,6.02-11.88,11.21-18.88,15.38-2.1-.02-4.21-.04-6.31-.05.94-2.09,2.27-4.01,3.93-5.6-2.41,1.86-4.83,3.72-7.24,5.57-6.93-.05-13.87-.07-20.8-.06.52-1.43,1.05-2.86,1.57-4.28-2.42,1.44-4.85,2.87-7.27,4.31-3.03.01-6.06.02-9.1.05.89-1.36,1.92-2.63,3.09-3.76-1.64,1.3-3.31,2.55-5.01,3.78-4.76.04-9.52.09-14.28.16.02-.03.03-.05.05-.08l-.21.08c-7.29.1-14.58.23-21.88.38.71-2.11,1.88-4.07,3.45-5.65-4.07,1.95-8.15,3.9-12.22,5.85-2.19.05-4.38.1-6.58.16.58-2.9,2.29-5.58,4.76-7.22-3.98,2.47-7.96,4.94-11.94,7.41-.27,0-.54.02-.81.02,2.35-3.15,4.7-6.29,7.05-9.44-2.7.43-5.4.86-8.09,1.29l4.71-7.98c-4.63,4.75-10.29,8.49-16.48,10.89.97-1.58,2.1-3.06,3.35-4.43-5.41,3.64-11.32,6.53-17.53,8.52,4.42-6.47,10.07-12.11,16.55-16.52-8.22,5.11-16.92,9.44-25.96,12.91,2.69-5.97,6.76-11.31,11.8-15.49-7.87,7.07-16.73,13.03-26.24,17.66,4.01-6.31,8.02-12.62,12.03-18.93-6.54,6.87-14.64,12.24-23.51,15.58.58-3.97,2.54-7.73,5.47-10.47-7.44,7-15.4,13.45-23.79,19.28-32.25,1.35-64.51,2.85-96.76,4.2,5.1-6.89,10.61-13.49,16.49-19.73-7.93,5.55-16.1,10.76-24.47,15.61,1.57-3,3.14-6.01,4.71-9.01-6.6,3.96-13.49,7.46-20.58,10.45.19-3.28,2.11-6.41,4.95-8.08-5.55,2.99-11.2,5.79-16.93,8.4.34-3.85,2.18-7.56,5.05-10.15-6.5,4.02-13.01,8.03-19.51,12.05,1.44-7.33,5.21-14.18,10.63-19.32-7.46,6.77-15.77,12.6-24.67,17.31.63-3.56,2.17-6.94,4.36-9.81-6.32,5.98-13.9,10.62-22.11,13.49,2.95-4.58,5.9-9.16,8.86-13.75-4.36,3.38-9.4,5.86-14.73,7.25,2-3.65,4-7.31,6.01-10.96-7.37,6.58-14.74,13.16-22.11,19.73-18.53.39-37.05.64-55.55.66,1.28-8.56,2.57-17.12,3.85-25.67-3.35,4.31-8.29,7.36-13.65,8.43-.74-2.92-.5-6.08.69-8.85-4.57,3.91-9.61,7.26-14.98,9.96-1.42-3.14-1.05-7.03.94-9.84-4.96,4.31-10.48,7.97-16.38,10.86-.77-4.09-.26-8.41,1.44-12.21-4.46,4.89-9.83,8.95-15.74,11.93-.41-4.82.5-9.74,2.6-14.09-7.49,8.75-14.05,18.3-19.56,28.42-20.38-.68-40.73-1.72-61.04-3.18,2.09-6.35,5.15-12.39,9.06-17.82-4.76,5.59-10.56,10.29-17.01,13.8-.68-5.33.29-10.87,2.74-15.65-3.91,7.23-9.66,13.43-16.53,17.94-1.76-.15-3.52-.32-5.28-.48.99-5.57,3.14-10.94,6.32-15.62-4.91,5.7-10.72,10.62-17.12,14.58-4.59-.46-9.18-.94-13.77-1.45.21-9.28,3.58-18.49,9.58-25.59-8.85,7-16.86,15.06-23.82,23.93-16.32-2-32.62-4.36-48.88-7.07,2.49-5.81,5.66-11.33,9.47-16.37-5.23,4.91-10.23,10.07-14.97,15.46-.2-.04-.41-.07-.61-.1-.72-.12-1.46-.24-2.21-.35,3.58-7.07,7.16-14.14,10.73-21.2-7.81,6.38-15.39,13.04-22.73,19.97-3.25-.22-6.72-.38-10.37-.49,1.85-6.46,4.23-12.78,7.14-18.84-6.59,5.94-12.91,12.17-18.95,18.66-5.01,0-10.27.06-15.74.18,3.38-5.64,7.15-11.05,11.3-16.16-6.7,5.47-13.39,10.94-20.09,16.41-1.43.05-2.88.1-4.33.16,1.05-2.45,2.09-4.89,3.14-7.34-2.37,2.71-4.96,5.22-7.73,7.52-3.79.16-7.66.34-11.57.54,1.9-3.74,3.81-7.49,5.71-11.23-6.02,3.97-12.04,7.94-18.06,11.91-.64.04-1.28.07-1.92.11,3.26-5.73,6.51-11.47,9.77-17.2-8.16,5.49-16.33,10.99-24.49,16.48,3.93-6.81,7.86-13.62,11.78-20.43-9.8,7.33-19.61,14.66-29.41,21.99,3.28-4.44,6.56-8.89,9.84-13.33-5.43,4.05-10.86,8.11-16.28,12.16,4.25-6.41,8.5-12.81,12.74-19.22-7.64,8.22-16.44,15.35-26.06,21.12,4.2-9.37,9.47-18.26,15.67-26.45-8.52,8.3-17.64,15.98-27.28,22.96.47-3.12,1.67-6.12,3.41-8.75-5.02,5.42-10.13,10.75-15.34,15.98-1.76.13-3.51.26-5.26.39.9-6.79,3.07-13.41,6.44-19.37-4.77,6.09-9.54,12.18-14.3,18.27,1.26-9.9,3.73-19.65,7.34-28.96-12.2,10.85-19.03,27.66-34.62,33.1-4.83,1.69-46.28.23-46.28,1.41v27h3840v-27c-19.68-.39-41.2-1.19-64.42-2.22ZM80.97,2134.33c.03-.86.09-1.72.16-2.58l2.38.05c-.85.84-1.69,1.69-2.54,2.52ZM1240.17,2130.16c-.99.03-1.98.06-2.96.09,0-.01.01-.02.02-.03l2.94-.06ZM1231.65,2130.32s-.08.07-.12.1c-3.04.09-6.04.18-9,.27.03-.06.05-.13.08-.19l9.04-.18ZM1211.37,2131.02c.05-.1.1-.2.15-.3l6.06-.12c-.1.08-.2.17-.31.25-1.99.06-3.95.11-5.91.17ZM1200.7,2131.32c-2.91.08-5.78.15-8.63.22.08-.14.15-.29.23-.43l8.92-.18c-.17.13-.35.26-.52.39ZM1190.48,2131.14c-.18.15-.36.3-.54.45-3.51.09-6.98.17-10.43.24.07-.16.14-.32.21-.48l10.76-.21ZM1161.18,2131.73l3.42-.07c-.22.16-.44.32-.66.48-1,.02-2,.03-3,.05.08-.16.16-.31.23-.47Z"/>
      <path class="cls-2" d="M614.1,2121.82c-1.43,1.14-2.7,2.48-3.81,3.93,1.33-1.26,2.6-2.57,3.81-3.93Z"/>
      <path class="cls-2" d="M952.12,2124.26c1.03-.79,2.06-1.58,3.09-2.38-1.12.67-2.15,1.47-3.09,2.38Z"/>
      <path class="cls-2" d="M838.23,2121.31c2.85-1.92,5.57-4.03,8.1-6.35-3.04,1.63-5.78,3.8-8.1,6.35Z"/>
      <path class="cls-2" d="M1137.2,2112.39c-4.02,2.84-7.47,6.47-10.16,10.59,4.13-2.71,7.66-6.33,10.16-10.59Z"/>
      <path class="cls-2" d="M1621.16,2108.04c3.85-4.52,7.12-9.54,9.64-14.92-4.15,4.28-7.42,9.39-9.64,14.92Z"/>
      <path class="cls-2" d="M1594.22,2110.96c5.67-5.68,10.63-12.05,14.68-18.97-5.92,5.43-10.9,11.88-14.68,18.97Z"/>
      <path class="cls-2" d="M1623.74,2089.45c-5.65,5.79-10.67,12.17-15.04,18.98,6.09-5.37,11.24-11.81,15.04-18.98Z"/>
      <path class="cls-2" d="M1648.07,2087.91c-5.6,6.08-10.52,12.77-14.69,19.91,5.95-5.76,10.96-12.51,14.69-19.91Z"/>
      <path class="cls-2" d="M1648.67,2099.63c4.66-5.08,8.98-10.47,12.85-16.18-4.55,5.17-8.84,10.57-12.85,16.18Z"/>
      <path class="cls-2" d="M1655.36,2106.59c3.03-3.4,5.93-6.92,8.65-10.57-3.09,3.35-5.97,6.88-8.65,10.57Z"/>
      <path class="cls-2" d="M1455.21,2121.83c2.53-2.86,4.94-5.81,7.19-8.89-2.96,2.45-5.39,5.5-7.19,8.89Z"/>
      <path class="cls-2" d="M1257.7,2099.18c-1.38,1.33-2.7,2.72-4,4.13,1.37-1.34,2.71-2.71,4-4.13Z"/>
      <path class="cls-2" d="M1239.98,2106.13c.9-.84,1.79-1.7,2.66-2.58-.92.83-1.8,1.7-2.66,2.58Z"/>
      <path class="cls-2" d="M1433.63,2124.26c2.7-3.09,5.24-6.33,7.59-9.69-2.89,2.93-5.43,6.2-7.59,9.69Z"/>
      <path class="cls-2" d="M1265.83,2105.78c2.31-2.41,4.57-4.88,6.72-7.43-2.36,2.36-4.6,4.85-6.72,7.43Z"/>
      <path class="cls-2" d="M1288.49,2121.75c.56-.8,1.11-1.62,1.63-2.45-1.25.38-1.7,1.35-1.63,2.45Z"/>
      <path class="cls-2" d="M1285.66,2115.43c3.83-4.55,7.67-9.09,11.5-13.64-4.27,4.16-8.12,8.73-11.5,13.64Z"/>
      <path class="cls-2" d="M1284.74,2103.4c-1.5,1.39-2.92,2.85-4.3,4.36,1.46-1.43,2.9-2.87,4.3-4.36Z"/>
      <path class="cls-2" d="M1693.95,2106.5c2.2-3.08,4.27-6.25,6.2-9.5-2.48,2.88-4.55,6.08-6.2,9.5Z"/>
      <path class="cls-2" d="M1823.59,2103.96c.26-.31.52-.62.77-.93-.36.27-.61.58-.77.93Z"/>
      <path class="cls-2" d="M1771.09,2112.16c-1.47-.01-2.15,1.05-2.23,2.36.79-.74,1.54-1.52,2.23-2.36Z"/>
      <path class="cls-2" d="M1792.92,2111.04c.87-.89,1.71-1.81,2.5-2.77-1.85-.43-2.6,1.05-2.5,2.77Z"/>
      <path class="cls-2" d="M2165.35,2104.74c.93-1.01,1.83-2.05,2.71-3.1-.98.96-1.89,2-2.71,3.1Z"/>
      <path class="cls-2" d="M2209.47,2111.96c.12-.11.26-.22.38-.33-.71-.8-.74-.33-.38.33Z"/>
      <path class="cls-2" d="M2291.33,2108.78c2.02-2.49,3.89-5.1,5.6-7.81-2.31,2.24-4.21,4.91-5.6,7.81Z"/>
      <path class="cls-2" d="M2233.19,2095.42c-2.73,2.28-5.08,5-6.97,8.02,2.57-2.44,4.91-5.13,6.97-8.02Z"/>
      <path class="cls-2" d="M2361.38,2090.49c4.4-7.84,8.5-15.85,12.27-24.01-4.47,7.8-8.56,15.82-12.27,24.01Z"/>
      <path class="cls-2" d="M2089.53,2111.31c2.07-2.22,4-4.57,5.75-7.05-2.07,2.22-3.99,4.58-5.75,7.05Z"/>
      <path class="cls-2" d="M2007.26,2082.32c2.21-2.59,4.35-5.24,6.41-7.95-2.26,2.55-4.4,5.2-6.41,7.95Z"/>
      <path class="cls-2" d="M2101.96,2108.99c1.05-1.16,2.07-2.36,3.03-3.6-1.07,1.15-2.07,2.36-3.03,3.6Z"/>
      <path class="cls-2" d="M2020.33,2093.79c1.63-1.71,3.23-3.45,4.77-5.25-1.68,1.67-3.26,3.42-4.77,5.25Z"/>
      <path class="cls-2" d="M2041.97,2094.74c1.11-1.48,2.19-2.98,3.21-4.51-1.11,1.48-2.18,2.98-3.21,4.51Z"/>
      <path class="cls-2" d="M3474.25,2108.56c3.37-1.78,6.67-3.69,9.89-5.73-3.5,1.53-6.81,3.46-9.89,5.73Z"/>
      <path class="cls-2" d="M3611.16,2112.48c.49-.04.97-.09,1.46-.13-.56-.09-1.05-.04-1.46.13Z"/>
      <path class="cls-2" d="M3778.64,2123.73c-.34.83-.67,1.66-1.01,2.49.83-.52,1.3-1.35,1.01-2.49Z"/>
      <path class="cls-2" d="M2895.3,2111.15c2.06-.87,4.12-1.73,6.17-2.6-.84-3.64-5.6-.54-6.17,2.6Z"/>
      <path class="cls-2" d="M2805.87,2102.81c.19-.27.38-.55.57-.82-.22.27-.41.54-.57.82Z"/>
      <path class="cls-2" d="M2922.25,2106.14c-.93-.98-1.77-.85-2.38-.17.78-.06,1.57-.02,2.38.17Z"/>
      <path class="cls-2" d="M3327.33,2099.13c1.38-.7,2.76-1.4,4.13-2.13-1.4.67-2.77,1.39-4.13,2.13Z"/>
    </g>
  </g>
</svg>