<?xml version="1.0" encoding="UTF-8"?>
<svg xmlns="http://www.w3.org/2000/svg" viewBox="0 0 3840 2160">
  <defs>
    <style>
      .cls-1 {
        fill: #b29a34;
      }

      .cls-2 {
        fill: #ccb44e;
      }

      .cls-3 {
        fill: #a57838;
      }

      .cls-4 {
        fill: #b7a767;
      }

      .cls-5 {
        fill: #a08d3d;
      }

      .cls-6 {
        fill: #af9d52;
      }

      .cls-7 {
        fill: #966c23;
      }

      .cls-8 {
        fill: #967a48;
      }

      .cls-9 {
        fill: #896d33;
      }
    </style>
  </defs>
  <g id="Background">
    <rect class="cls-7" width="3840" height="2160"/>
  </g>
  <g id="Hills">
    <path class="cls-2" d="M461,469c117.42-95.58,266.18-91.75,352-87,429.94,23.81,461.11,136.11,758,132,344.33-4.77,600-95,600-95,36.26-12.8,113.15-41.79,219-45,132.6-4.02,223.87,35.06,285,55,301.52,98.33,436.42-84.28,804-21,157.96,27.19,366.53,99.63,361,149-11.97,106.8-1016.28-84.63-2486,54-356.99,33.67-951.4,106.76-983-10-13.03-48.13,72.5-117.75,90-132Z"/>
    <path class="cls-1" d="M0,540c86,3,106.26-2.26,181-18,65.39-13.77,110.94-35.94,124-42,51.84-24.07,155.53-56.2,489-48,71.96,1.77,310.48,9.25,650,56,169.51,23.34,250.64,40.84,402,42,163.6,1.26,273.95-17.6,346-34,118.79-27.03,135.61-47.85,222-71,150.87-40.43,323.63-11.84,663,47,227.49,39.44,266.02,58.4,370,48,50.04-5.01,128.13,10.9,248,10,61.04-.46,58,10,145,10v1620H0V540Z"/>
    <path class="cls-4" d="M142,1090c-.55-47.11,127.65-90.86,216-121,149.29-50.94,284.23-47.08,375-34,144.83,20.87,130.83,58.55,265,81,111.75,18.7,228.35-2.28,457-45,241.58-45.14,233.06-60.02,317-60,197.23.04,225.43,82.16,411,106,262.25,33.68,288.37-119.74,572-98,210.12,16.11,228.98,102.85,441,92,139.1-7.12,190.99-47.53,317-29,120.62,17.74,286.63,86.16,285,143-4.7,164.32-1412.52,301.2-2729,174-135.24-13.07-925.64-92.32-927-209Z"/>
    <path class="cls-6" d="M514,1098c83.59-77.05,197.89-83.92,349-93,79.93-4.8,134.64-8.09,209,6,110.9,21.01,140.16,56.92,285,84,86.21,16.12,132.93,14.07,150,13,74.2-4.67,109.35-23.76,167-37,76.24-17.51,117.51-7.72,251,3,197.78,15.88,296.66,23.82,396,11,101.65-13.12,73.55-26.28,312-80,172.5-38.87,240.73-44.04,293-45,42.49-.78,122.02-1.78,222,19,99.02,20.58,123.58,42.88,288,84,37.34,9.34,84.22,20.23,146,24,55.97,3.42,73.61-2.1,103,0,99.76,7.13,91.88,124.81,92,170,.31,116.4-588,206.08-1279,250-915.56,58.2-2040.97-5.49-2074-240-8.46-60.06,54.08-135.89,90-169Z"/>
    <path class="cls-5" d="M0,1080c55.28-1.63,193.94-31.79,296-33,254-3,253.35-2.19,488,56,258.86,64.19,427.99,106.13,650,83,116.51-12.14,225.98-39.94,364-75,212.49-53.97,266.51-86.04,409-96,122.1-8.54,216.75,5.61,313,20,102.98,15.39,125.21,1.4,396,91,136,45,201.04,82.24,250,79,79.03-5.23,137.41,4.99,263-33,87.1-26.35,164.91-55.11,210-72,56.35-21.11,165.66-5.26,201-20v1080H0v-1080Z"/>
    <path class="cls-8" d="M694,1561c26.59-77.97,184.53-86.63,246-90,171.14-9.38,195.37,50.81,433,66,11.38.73-.8-.19,238,8,140.79,4.83,159.17,5.63,190,10,154.39,21.89,154.41,67.14,257,77,150.65,14.48,172.79-80.95,370-85,95.37-1.96,188.59,18.34,214,24,116.34,25.92,157.13,57.24,240,45,58.23-8.6,53.09-26.28,137-47,39.17-9.67,114.73-27.64,204-16,116.39,15.17,133.96,64.73,209,47,39.75-9.39,57.89-28.75,108-29,35.36-.17,60.67,9.3,92,21,180.08,67.26,187.05,69.25,188,77,4.6,37.34-143.47,101.51-423,164-968.92,216.6-1325.08-77.08-2114,8-85.8,9.25-340.81,40.68-502-106-14.02-12.76-111.16-103.15-87-174Z"/>
    <path class="cls-9" d="M0,1623c47,0,72.97-4.18,127-16,69-15.1,106.78-34.21,196-66,12.14-4.33,102.84-36.53,156-50,91.89-23.28,167.74-14.91,356,21,191.23,36.48,233.4,50.81,415,87,250.1,49.83,312.95,51.1,357,50,122.55-3.05,232.6-27.71,282-39,164.12-37.52,205.65-73.45,307-64,91.17,8.5,106.43,42.13,201,72,172.99,54.65,243.82-19.38,478-24,226.33-4.47,190.93,64.07,457,66,109.74.8,282.55-9.65,431-24,32.27-3.12,38-13,77-13v537H0c0-179,0-358,0-537Z"/>
    <path class="cls-3" d="M163,2052c99.37-20.97,132.69-30.7,201-42,0,0,79.25-13.11,161-19,89.27-6.43,184.41-3.66,396,27,200.38,29.03,184.21,36.57,373,63,240.86,33.72,323.3,29.31,356,27,87.06-6.14,83.29-15.83,243-32,132.81-13.44,156.24-8.85,253-24,117.27-18.36,116.19-30.33,202-39,79.94-8.08,137.76-3.44,243,5,108.79,8.72,123.52,16.55,272,29,88.25,7.4,128,8.4,177,3,60.37-6.65,111.13-20.41,146-30,82.69-22.74,81.45-31.76,132-44,84.32-20.42,153.71-11.32,240,0,84.06,11.03,145.91,30.3,172,39,44.63,14.88,81.69,31.15,110,45v100H0v-76c65.96-11.99,121.39-23.22,163-32Z"/>
    <path class="cls-7" d="M0,1981c158,0,203.52,27.31,353,55,239.49,44.37,271.01,64.68,394,74,135.66,10.28,162.63-9.48,462-39,163.06-16.08,295.61-29.15,473-32,172.48-2.77,341.93-5.5,558,24,81.14,11.08,141.27,22.93,245,26,129.09,3.82,232.71-8.72,307-18,199.12-24.88,176.53-44.48,296-51,161.99-8.84,180.81,28.44,364,14,81.86-6.45,164.55-20.71,201-27,75.38-13,116-26,187-26v179H0v-179Z"/>
  </g>
</svg>