<?xml version="1.0" encoding="UTF-8"?>
<svg xmlns="http://www.w3.org/2000/svg" viewBox="0 0 3840 2160">
  <defs>
    <style>
      .cls-1 {
        fill: #8e5a1c;
      }

      .cls-2 {
        fill: #6d4d22;
      }

      .cls-3 {
        fill: #5b4524;
      }

      .cls-4 {
        fill: #b27028;
      }

      .cls-5 {
        fill: #a38e6c;
      }
    </style>
  </defs>
  <g id="Background">
    <path class="cls-5" d="M3840,2160H0V0h3840v2160Z"/>
  </g>
  <g id="Mountains">
    <path class="cls-4" d="M0,433c5.29-.82,13.19-1.36,22,1,32.49,8.69,31.79,44.49,56,54,38.89,15.28,100.95-53.41,118-76,9.24-12.25,14.37-19.78,19.9-31.48,10.8-22.85,9.24-36.44,29.1-57.52,39.47-41.88,110.98-57.62,167-41,30.15,8.94,60.1,37.63,120,95,53.66,51.39,48.93,55.18,75,74,73.11,52.77,153.3,53.98,164,54,28.11.05,106.73-4.16,169-57,36.25-30.77,34.51-50.48,82-89,24.23-19.65,56.29-45.66,95-54,79.92-17.22,170.71,44.65,220,110,71.56,94.88,39.93,176.22,108,213,49.21,26.59,109.46,7.7,134,0,61.55-19.3,71.43-50.99,143-98,40.28-26.45,35.29-15.2,174-77,109.68-48.87,165.09-73.88,193-102,39.76-40.06,46.31-69,90-87,7.62-3.14,68.42-28.19,115,0,59.45,35.98,37.4,123.39,102,156,15.07,7.61,27.61,8.58,49,10,124.69,8.3,163.57-79.43,241-64,56.97,11.35,51.53,61.95,169,121,27.61,13.88,41.42,20.82,59,25,127.68,30.35,256.26-84.02,265-92,51.63-47.13,57.54-78.88,94-82,34.75-2.97,45.63,24.49,118,69,39.27,24.15,28.33,11.31,159,72,71.24,33.09,90.72,44.45,121,39,4.19-.75,16.85-4.98,27.01-8.21,30.78-9.77,46.17-14.65,52.99-18.79,26.8-16.29,22.83-35.07,48-49,15-10,41-9,41-9,0,0-.67,1151.33-1,1727H0V433Z"/>
    <path class="cls-1" d="M64,1068c90.04-41.46,80.55-167.02,135.5-181.5,63.93-16.84,134.22,160.92,184,126,73.19-51.34,71.54-340.57,136-308,62,0,26,133,118,87,48.54-42.25,138-212,190-210,78.33,3.71,25.93,121.18,120,203,20.52,17.85,30.39,27.41,37.92,36.34,21.95,26.01,35.63,47.13,39.08,52.66,29.12,46.74,144.85,152.72,221,129,71.64-22.32,71-147.84,115-147,33.54.64,36.03,73.62,113,131,25.12,18.73,66.05,49.24,105,39,46.7-12.28,48.6-72.08,113-190,41.76-76.46,81.54-149.04,125-146,35.12,2.46,70.08,56.98,106,113,24.99,38.97,33.37,62.31,53,64,31.35,2.7,40.04-54.24,77-59,35.85-4.62,53.45,45.65,141,120,44.09,37.44,66.14,56.17,93,59,55.43,5.85,101.44-43.52,169-118,33.4-36.83,78.92-91.98,169-218,61.07-85.43,74.1-107.58,98-107,28.79.7,47.6,33.77,135,197,66.04,123.34,76.7,144.43,108,167,4.45,3.21,96.15,67.4,187,38,126.81-41.03,149.74-231.31,203-223,46.13,7.2,53.78,153.82,95,154,24.74.11,34.32-52.67,61-51,16.96,1.06,23.8,23.06,72,92,25.94,37.1,34.78,46.21,46,46,24.5-.47,32.76-44.91,57-46,16.63-.75,30.73,20.2,46,46,42.25,71.37,56.26,114.68,80.5,116.5,0,0,.05,0,27,0h0s-.5,694.5-.5,1079.5H-.5c1.67-398.67.5-1079.5.5-1079.5,14.75.55,38.87-.43,64-12Z"/>
    <path class="cls-2" d="M0,1202.5s83.45-10.24,105-21.5c29.85-15.6,79.47-52.4,119.5-60.5,4.77-.96,12.14-2.76,21.97-2.12,22.5,1.47,35.57,14.84,81.03,14.12,73.02-1.16,126.57-37.06,143-49,45.54-33.11,68.88-75.18,77-90,30.74-56.08,27.56-95.31,48-99,16.56-2.99,33.95,20.01,65,62,42.35,57.27,51.75,90.37,68,89,23.66-2,24.8-73.76,48.5-76.5,24.7-2.85,28.18,74.59,89.5,112.5,42.92,26.54,107.31,29.64,153,6,32.1-16.61,35.18-35.37,53-34,36.21,2.78,36.04,81.16,96,160,17.99,23.65,76.84,101.03,134,92,38.15-6.02,40.86-45.05,137-145,45.6-47.41,68.64-63.21,93-60,33.05,4.36,38.16,39.73,70,42,41.79,2.98,79.61-54.61,93-75,32.93-50.14,28.37-81.18,47-85,31.64-6.49,47.36,82.53,121,105,49.68,15.16,104.67-20.56,107-22,36.99-22.91,43.33-50.16,69.5-51.5,24.69-1.26,41.22,21.85,65.5,47.5,34.23,36.15,97.68,104.05,153,107,80.96,4.32,115.68-126.79,186-117,36.95,5.15,43.21,43.56,97,109,28.08,34.16,136.81,166.44,224,153,104.46-16.1,135.93-234.88,194-226,35.81,5.48,34.52,90.3,81,103,40.77,11.14,103.03-39.68,131-92,14.37-26.88,17.28-49.95,30-51,15.18-1.25,24.22,30.56,49,69,22.12,34.33,55.14,85.55,99,97,63.61,16.6,96.65-64.37,171-51,55.63,10,90.49,64.92,93,69,31.49,51.1,11.04,91.42,40,109,30.04,18.23,79.79-8.3,103-26,10.83-8.26,38.25-16.84,43-53,2.98-22.69,40.5-59,40.5-59,0,0-.17,638-.5,957H-.5c.17-319,.5-957,.5-957Z"/>
    <path class="cls-3" d="M0,1379c13.35-.28,36.27,1.25,60,14,53.36,28.66,63.71,88.74,65,97,7.66,21.19,20.02,50.2,40,82,13.3,21.16,25.94,40.96,49,61,16.51,14.36,53.18,46.23,88.5,36,2.38-.69,6.38-1.71,12.82-5.78,17.51-11.07,25.23-32.31,64.18-76.22,42.39-47.8,45.61-36.58,100-93,55.43-57.49,61.3-78.95,98-92,10.15-3.61,46.53-16.54,82-2,44.83,18.38,39.32,61.29,87,125,36.1,48.23,77.21,74.44,133,110,47.87,30.52,87.74,47.77,121,62,28.8,12.32,73.31,30.26,133,46,16.33,4.31,84.69,21.68,177,23,121.87,1.74,183.55,5.11,231-36,9.78-8.47,29.52-44.98,69-118,36.18-66.92,47.16-93.49,79-130,32.36-37.11,48.54-55.67,75-62,27.93-6.68,52.53,3.11,179,85,81.97,53.08,87.04,58.94,118,74,42.34,20.59,62.62,24.11,139,49,7.02,2.29,100.81,32.96,171,61,157.11,62.77,137.01,88.81,200,98,118.75,17.33,286.06-61.21,372-172,20.28-26.14,49.25-71.12,92-72,26.74-.55,33.83,16.67,90,46,28.53,14.9,71.54,36.34,126,44,53.65,7.54,54.84-9.67,95,0,25.45,6.13,33.87,15.91,115,72,56.94,39.37,63.83,42.43,74,41,19.58-2.75,26.47-18.66,90-116,29.48-45.16,41.08-61.45,53.7-71.79,1.57-1.29,5.51-3.36,10.3-7.21,16.52-13.27,24.11-28.53,30.5-41,7.85-15.33,17.69-33.92,31.5-59,2.09-7.55,12.96-43.7,48.5-62,15.63-8.05,30.47-9.78,40-10,0,0-1.17,522.33-2.5,781H-1.5c.5-260.33,1.5-781,1.5-781Z"/>
    <path class="cls-5" d="M0,1879c15.05-2.5,37.94-3.87,60,7,45.94,22.63,29.1,69.2,83,112,8.41,6.68,52.44,40.19,60.89,58.71.51,1.11,4.14,8.9,9.81,19.04,2.05,3.68,4.63,7.89,8.3,13.25,15.51,22.65,51.34,74.98,84,69,36.09-6.61,25.07-83.1,67-102,56.61-25.51,116.16,97.94,213,91,86.43-6.19,110.02-109.62,190-101,50.95,5.49,54.6,50.43,113,56,21.42,2.04,48.71-.65,151-59,114.63-65.39,115.14-81.85,172-100,32.54-10.38,96.75-30.88,164-8,47.43,16.14,47.9,37.36,110,67,23.97,11.44,79.42,37.91,139,36,95.23-3.05,115.76-93.66,192-92,46.12,1,51.54,32.67,126,80,15.74,10.01,199.13,123.38,351,63,53.02-21.08,39.22-38.3,98-65,119.02-54.07,181.71,13.75,292-21,127.94-40.31,124.78-157.14,214-155,86.71,2.08,174.87,114.46,211,175,27.37,45.85,26.97,64.3,54,82,61.18,40.07,159.79-1.41,223-28,90.18-37.94,103.89-68.98,162-67,51.77,1.76,74.88,29.41,107,13,28.7-14.67,17.55-39.95,61-89,15.6-17.62,47.41-53.52,85-55,7.91-.31,38.93,0,39,0h0v281H0v-281Z"/>
  </g>
</svg>